<?xml version="1.0" standalone="no"?>
<!DOCTYPE svg PUBLIC "-//W3C//DTD SVG 20010904//EN"
 "http://www.w3.org/TR/2001/REC-SVG-20010904/DTD/svg10.dtd">
<svg version="1.0" xmlns="http://www.w3.org/2000/svg"
 width="393.000000pt" height="393.000000pt" viewBox="0 0 393.000000 393.000000"
 preserveAspectRatio="xMidYMid meet">
<metadata>
Created by potrace 1.14, written by Peter Selinger 2001-2017
</metadata>
<g transform="translate(0.000000,393.000000) scale(0.100000,-0.100000)"
fill="#000000" stroke="none">
<path d="M1700 3904 c-558 -76 -1058 -392 -1373 -869 -69 -104 -174 -317 -210
-425 -114 -336 -137 -705 -67 -1050 60 -290 208 -601 399 -834 287 -350 680
-587 1131 -681 99 -21 165 -28 316 -32 276 -8 457 17 698 97 666 223 1166 799
1297 1495 26 139 37 439 20 581 -106 899 -800 1604 -1694 1719 -144 18 -376
18 -517 -1z m521 -524 c211 -22 422 -77 579 -153 63 -31 102 -58 150 -107 l65
-65 -90 -5 c-69 -5 -110 -13 -173 -38 -45 -18 -102 -35 -126 -38 -63 -9 -140
12 -187 52 -53 44 -107 47 -138 8 -12 -15 -21 -40 -21 -55 0 -42 58 -101 132
-135 53 -23 80 -29 164 -32 93 -4 107 -2 190 28 145 51 160 54 218 41 48 -11
126 -61 126 -80 0 -5 -33 -11 -72 -14 -50 -4 -103 -17 -168 -42 -226 -88 -493
-137 -735 -138 -234 0 -440 44 -613 132 -119 60 -281 63 -364 7 -31 -20 -34
-27 -46 -111 -24 -178 -77 -310 -151 -378 l-46 -42 -3 278 c-3 308 9 431 49
513 34 71 170 204 246 243 101 50 382 112 613 134 82 8 306 6 401 -3z m-750
-804 c196 -91 351 -126 600 -133 205 -6 324 4 514 43 96 20 338 93 428 129 16
7 17 -22 17 -513 0 -287 -5 -566 -10 -623 -53 -525 -410 -931 -894 -1015 -114
-20 -288 -14 -398 15 -355 93 -648 376 -761 737 -50 158 -57 224 -57 533 l0
287 56 23 c150 63 263 244 304 490 l12 74 57 -6 c34 -3 86 -19 132 -41z m-691
-847 l0 -240 -22 7 c-68 21 -97 47 -129 119 -41 92 -23 229 39 299 15 17 86
55 105 56 4 0 7 -108 7 -241z m2445 212 c43 -25 83 -88 97 -153 27 -132 -38
-259 -149 -293 l-23 -6 0 241 0 241 23 -6 c12 -4 35 -15 52 -24z"/>
<path d="M1270 1956 c-47 -16 -127 -71 -140 -96 -18 -33 -12 -79 15 -105 33
-34 73 -32 119 4 76 61 122 60 205 -3 44 -33 84 -33 116 -1 57 56 18 130 -100
186 -67 32 -151 38 -215 15z"/>
<path d="M2415 1942 c-65 -31 -125 -90 -125 -123 0 -28 26 -75 45 -83 35 -13
72 -5 107 24 72 60 113 60 187 4 52 -40 89 -43 127 -11 50 44 33 107 -44 161
-93 64 -199 74 -297 28z"/>
<path d="M1149 1241 c-16 -16 -29 -40 -29 -52 0 -51 82 -136 218 -223 91 -59
190 -102 311 -133 130 -33 353 -42 493 -19 243 40 499 163 626 300 57 62 56
112 -5 144 -37 20 -60 13 -120 -36 -86 -71 -144 -108 -235 -152 -344 -164
-758 -134 -1035 74 -34 26 -73 60 -86 75 -49 59 -94 66 -138 22z"/>
</g>
</svg>
