<?xml version="1.0" standalone="no"?>
<!DOCTYPE svg PUBLIC "-//W3C//DTD SVG 20010904//EN"
 "http://www.w3.org/TR/2001/REC-SVG-20010904/DTD/svg10.dtd">
<svg version="1.0" xmlns="http://www.w3.org/2000/svg"
 width="393.000000pt" height="393.000000pt" viewBox="0 0 393.000000 393.000000"
 preserveAspectRatio="xMidYMid meet">
<metadata>
Created by potrace 1.14, written by Peter Selinger 2001-2017
</metadata>
<g transform="translate(0.000000,393.000000) scale(0.100000,-0.100000)"
fill="#000000" stroke="none">
<path d="M1740 3909 c-283 -32 -604 -148 -845 -306 -493 -323 -813 -849 -876
-1438 -14 -135 -6 -395 16 -520 35 -201 81 -347 165 -523 289 -602 841 -1004
1510 -1098 172 -24 472 -15 638 20 229 49 422 122 605 229 481 284 819 755
931 1299 47 227 48 557 1 778 -174 832 -833 1445 -1670 1555 -123 16 -351 18
-475 4z m600 -544 c296 -50 522 -143 626 -258 l47 -52 -89 -5 c-69 -5 -108
-13 -174 -40 -65 -26 -101 -34 -150 -34 -84 -1 -109 6 -160 49 -54 45 -108 49
-139 9 -12 -15 -21 -40 -21 -55 0 -42 58 -101 132 -135 53 -23 80 -29 164 -32
93 -4 107 -2 190 28 146 52 159 54 219 41 38 -9 66 -24 97 -51 l43 -39 -61 -1
c-47 0 -92 -11 -188 -45 -313 -111 -618 -158 -873 -135 -184 16 -290 46 -523
146 -52 22 -80 28 -145 28 -92 1 -178 -24 -200 -57 -7 -12 -18 -58 -24 -101
-24 -176 -75 -299 -150 -369 l-46 -42 -3 278 c-3 307 9 432 49 514 35 73 157
194 237 236 102 54 343 111 572 136 123 14 456 6 570 -14z m-910 -769 c164
-71 212 -89 299 -111 139 -34 233 -45 404 -45 172 0 267 10 447 46 99 20 329
89 433 130 18 7 18 -14 14 -587 -4 -554 -5 -600 -24 -684 -64 -279 -201 -506
-403 -667 -349 -280 -823 -303 -1189 -57 -230 154 -389 382 -468 669 -26 92
-27 107 -31 420 l-4 326 59 24 c151 62 266 255 308 518 l7 42 46 0 c27 0 71
-11 102 -24z m-650 -867 l0 -240 -22 7 c-68 21 -97 47 -129 119 -41 92 -23
229 39 299 15 17 86 55 105 56 4 0 7 -108 7 -241z m2460 202 c74 -57 107 -179
76 -284 -24 -81 -68 -128 -143 -151 l-23 -7 0 241 0 240 28 -6 c15 -3 43 -18
62 -33z"/>
<path d="M1269 1955 c-50 -18 -115 -62 -134 -91 -23 -35 -19 -81 10 -109 31
-32 75 -32 112 -1 78 65 119 67 200 10 57 -41 94 -43 128 -9 57 56 13 135
-105 189 -63 29 -150 34 -211 11z"/>
<path d="M2413 1940 c-121 -61 -156 -142 -84 -197 26 -20 65 -15 102 12 88 64
126 66 198 10 51 -41 89 -45 126 -12 32 27 36 77 9 113 -10 14 -45 42 -77 62
-50 31 -68 36 -135 40 -71 3 -82 1 -139 -28z"/>
<path d="M1157 1250 c-54 -43 -44 -95 35 -172 169 -165 417 -264 688 -275 205
-9 369 19 547 91 156 64 364 213 379 272 13 51 -31 104 -86 104 -10 0 -45 -22
-77 -48 -256 -212 -577 -299 -893 -241 -173 32 -378 137 -463 238 -45 54 -88
64 -130 31z"/>
</g>
</svg>
