<?xml version="1.0" standalone="no"?>
<!DOCTYPE svg PUBLIC "-//W3C//DTD SVG 1.1//EN" "http://www.w3.org/Graphics/SVG/1.1/DTD/svg11.dtd">
<svg xmlns="http://www.w3.org/2000/svg">
<defs >
<font id="FiraSans" horiz-adv-x="558" ><font-face
    font-family="Fira Sans"
    units-per-em="1000"
    panose-1="2 11 5 3 5 0 0 2 0 4"
    ascent="935"
    descent="-265"
    alphabetic="0" />
<glyph unicode=" " glyph-name="space" horiz-adv-x="265" />
<glyph unicode="!" glyph-name="exclam" horiz-adv-x="241" d="M170 689L160 230H79L68 689H170ZM150 127T170 107T190 58Q190 29 170 9T120 -12Q91 -12 71 8T51 58Q51 87 71 107T120 127Q150 127 170 107Z" />
<glyph unicode="&quot;" glyph-name="quotedbl" horiz-adv-x="399" d="M75 427L60 689H159L144 427H75ZM255 427L240 689H339L324 427H255Z" />
<glyph unicode="#" glyph-name="numbersign" horiz-adv-x="518" d="M503 447H427L399 232H466V163H389L368 0H290L311 163H157L136 0H58L79 163H15V232H89L117 447H52V517H126L146 669H224L204 517H358L378 669H456L436 517H503V447ZM321 232L349 447H195L167 232H321Z" />
<glyph unicode="$" glyph-name="dollar" horiz-adv-x="531" d="M491 110T443 58T310 -8V-155H230V-11Q107 -5 25 75L79 134Q151 64 251 64Q314 64 354 95T395 183Q395 216 383 238T339 277T250 312Q147 344 100 387T52 505Q52 575 101 622T230 678V824H310V677Q358
672 396 654T470 602L417 544Q383 576 347 590T267 604Q214 604 181 580T147 509Q147 480 159 461T202 425T293 389Q356 370 398 347T465 285T491 186Q491 110 443 58Z" />
<glyph unicode="%" glyph-name="percent" horiz-adv-x="826" d="M613 711L677 669L214 -31L150 11L613 711ZM279 679T324 633T370 510Q370 433 325 387T207 341Q136 341 91 387T45 510Q45 587 90 633T207 679Q279 679 324 633ZM163 617T145 587T126 510Q126 464
144 434T207 403Q288 403 288 510Q288 556 270 586T207 617Q163 617 145 587ZM691 326T736 280T781 157Q781 80 736 34T619 -12Q547 -12 502 34T456 157Q456 234 501 280T619 326Q691 326 736 280ZM575 263T557 234T538 157Q538 111 556 81T619 50Q700 50 700 157Q700
203 682 233T619 263Q575 263 557 234Z" />
<glyph unicode="&amp;" glyph-name="ampersand" horiz-adv-x="729" d="M356 701T397 682T462 627T485 549Q485 490 448 448T344 366L520 200Q560 281 580 369L666 344Q631 228 577 147L689 42L623 -12L526 82Q483 35 429 12T305 -12Q239 -12 189 11T110 76T81
175Q81 237 116 283T220 374Q170 422 147 460T123 546Q123 614 170 657T302 701Q356 701 397 682ZM261 633T237 609T213 547Q213 511 232 483T292 415Q343 446 369 476T395 544Q395 586 370 609T303 633Q261 633 237 609ZM223 291T199 257T175 178Q175 123 213
92T315 61Q362 61 400 79T473 133L273 324Q223 291 199 257Z" />
<glyph unicode="&apos;" glyph-name="quotesingle" horiz-adv-x="219" d="M75 427L60 689H159L144 427H75Z" />
<glyph unicode="(" glyph-name="parenleft" horiz-adv-x="324" d="M284 805Q232 728 202 668T154 530T136 350Q136 248 153 171T201 33T284 -105L226 -145Q160 -51 125 9T65 154T40 350Q40 461 64 545T124 690T226 845L284 805Z" />
<glyph unicode=")" glyph-name="parenright" horiz-adv-x="324" d="M164 751T199 691T259 546T284 350Q284 239 260 155T200 10T98 -145L40 -105Q92 -29 122 32T170 171T188 350Q188 453 171 530T123 667T40 805L98 845Q164 751 199 691Z" />
<glyph unicode="*" glyph-name="asterisk" horiz-adv-x="439" d="M419 561L266 528L370 412L298 359L219 493L141 359L69 411L172 528L20 561L47 643L189 582L174 739H264L249 581L391 644L419 561Z" />
<glyph unicode="+" glyph-name="plus" horiz-adv-x="499" d="M291 519V369H437V293H291V144H207V293H62V369H207V519H291Z" />
<glyph unicode="," glyph-name="comma" horiz-adv-x="240" d="M149 127T169 107T189 58Q189 27 171 -13L104 -166H38L78 0Q65 10 58 25T50 58Q50 87 70 107T119 127Q149 127 169 107Z" />
<glyph unicode="-" glyph-name="hyphen" horiz-adv-x="403" d="M60 274V352H343V274H60Z" />
<glyph unicode="." glyph-name="period" horiz-adv-x="240" d="M149 127T169 107T189 58Q189 29 169 9T119 -12Q90 -12 70 8T50 58Q50 87 70 107T119 127Q149 127 169 107Z" />
<glyph unicode="/" glyph-name="slash" horiz-adv-x="520" d="M337 807L415 789L184 -104L105 -85L337 807Z" />
<glyph unicode="0" glyph-name="zero" d="M390 679T446 591T503 334Q503 166 447 77T279 -12Q168 -12 112 77T55 334Q55 502 111 590T279 679Q390 679 446 591ZM214 606T183 542T151 334Q151 190 182 126T279 61Q343 61 375 125T407 334Q407 477 375 541T279 606Q214
606 183 542Z" />
<glyph unicode="1" glyph-name="one" horiz-adv-x="433" d="M323 669V0H231V571L75 476L35 541L242 669H323Z" />
<glyph unicode="2" glyph-name="two" horiz-adv-x="495" d="M288 679T333 655T404 590T429 496Q429 435 402 379T317 258T144 77H445L434 0H39V73Q173 212 229 276T309 389T333 492Q333 544 303 573T223 603Q182 603 151 586T85 530L25 578Q66 629 116 654T228
679Q288 679 333 655Z" />
<glyph unicode="3" glyph-name="three" horiz-adv-x="499" d="M287 679T331 656T399 594T423 509Q423 448 388 409T293 355Q360 349 402 307T444 193Q444 135 416 88T336 15T216 -12Q155 -12 104 10T15 78L70 129Q103 95 137 79T213 63Q276 63 312 98T348 194Q348
260 314 287T215 314H165L176 385H210Q262 385 296 416T331 503Q331 550 301 577T220 605Q181 605 149 591T82 545L34 600Q119 679 225 679Q287 679 331 656Z" />
<glyph unicode="4" glyph-name="four" horiz-adv-x="532" d="M502 238V165H415V0H326V165H40V231L241 679L318 647L137 238H327L335 418H415V238H502Z" />
<glyph unicode="5" glyph-name="five" horiz-adv-x="501" d="M420 597H159V400Q210 426 266 426Q352 426 404 370T456 214Q456 148 427 97T346 17T224 -12Q163 -12 115 9T26 73L80 126Q112 94 146 79T223 63Q287 63 323 103T360 216Q360 289 327 322T238 355Q212
355 190 350T143 332H71V669H433L420 597Z" />
<glyph unicode="6" glyph-name="six" horiz-adv-x="533" d="M359 440T401 416T468 344T493 227Q493 156 465 102T388 18T280 -12Q163 -12 109 74T55 314Q55 423 85 505T173 633T308 679Q384 679 446 638L410 577Q363 606 307 606Q235 606 193 537T147 352Q209
440 308 440Q359 440 401 416ZM338 61T369 105T400 224Q400 367 292 367Q248 367 211 343T148 275Q151 165 182 113T280 61Q338 61 369 105Z" />
<glyph unicode="7" glyph-name="seven" horiz-adv-x="444" d="M414 669V600L164 -10L80 18L321 594H25V669H414Z" />
<glyph unicode="8" glyph-name="eight" horiz-adv-x="551" d="M506 302T506 179Q506 124 477 81T394 13T274 -12Q206 -12 154 12T74 79T45 177Q45 239 78 281T177 351Q124 378 99 416T73 507Q73 561 101 600T176 659T276 679Q328 679 374 660T450 603T479 510Q479
460 451 424T365 359Q506 302 506 179ZM224 610T194 583T163 506Q163 458 192 433T287 387L304 381Q349 407 369 436T389 507Q389 554 360 582T276 610Q224 610 194 583ZM337 61T373 93T410 178Q410 214 396 238T351 281T264 319L239 328Q189 304 165 268T141 177Q141
122 177 92T275 61Q337 61 373 93Z" />
<glyph unicode="9" glyph-name="nine" horiz-adv-x="525" d="M365 679T420 610T475 419Q475 282 438 199T325 66T119 -22L98 47Q232 85 303 150T380 323Q357 287 318 265T230 243Q178 243 136 269T70 344T45 458Q45 526 74 576T151 652T259 679Q365 679 420 610ZM328
315T382 398Q384 509 355 557T261 606Q202 606 170 567T138 456Q138 386 168 351T249 315Q328 315 382 398Z" />
<glyph unicode=":" glyph-name="colon" horiz-adv-x="240" d="M149 127T169 107T189 58Q189 29 169 9T119 -12Q90 -12 70 8T50 58Q50 87 70 107T119 127Q149 127 169 107ZM149 495T169 475T189 426Q189 397 169 377T119 356Q90 356 70 376T50 426Q50 455 70 475T119
495Q149 495 169 475Z" />
<glyph unicode=";" glyph-name="semicolon" horiz-adv-x="240" d="M149 127T169 107T189 58Q189 27 171 -13L104 -166H38L78 0Q65 10 58 25T50 58Q50 87 70 107T119 127Q149 127 169 107ZM149 495T169 475T189 426Q189 397 169 377T119 356Q90 356 70 376T50 426Q50
455 70 475T119 495Q149 495 169 475Z" />
<glyph unicode="&lt;" glyph-name="less" horiz-adv-x="500" d="M417 551L450 475L123 333L450 189L417 115L50 286V380L417 551Z" />
<glyph unicode="=" glyph-name="equal" horiz-adv-x="500" d="M62 389V466H438V389H62ZM62 452V529H438V452H62Z" />
<glyph unicode="&gt;" glyph-name="greater" horiz-adv-x="500" d="M83 551L450 380V286L83 115L50 189L377 333L50 475L83 551Z" />
<glyph unicode="?" glyph-name="question" horiz-adv-x="459" d="M298 701T341 680T407 622T429 545Q429 506 416 479T383 434T332 394Q290 365 269 341T248 275V230H157V280Q157 323 171 353T206 401T259 442Q297 467 315 487T333 539Q333 580 306 602T232 625Q152
625 93 553L30 602Q114 701 238 701Q298 701 341 680ZM235 127T255 107T275 58Q275 29 255 9T205 -12Q176 -12 156 8T136 58Q136 87 156 107T205 127Q235 127 255 107Z" />
<glyph unicode="@" glyph-name="at" horiz-adv-x="1020" d="M660 701T756 648T901 504T950 307Q950 177 900 93T753 9Q697 9 666 40T625 112Q606 68 571 40T481 11Q401 11 355 71T308 231Q308 357 368 424T526 492Q568 492 605 483T683 452V193Q683 131 700 106T751
80Q857 80 857 305Q857 402 819 474T707 585T526 625Q416 625 334 576T207 439T163 240Q163 129 205 44T330 -89T526 -137Q621 -137 718 -103L743 -174Q687 -194 638 -203T525 -213Q391 -213 288 -158T128 1T70 240Q70 370 127 475T289 640T526 701Q660 701 756
648ZM567 78T600 164V411Q567 426 529 426Q398 426 398 231Q398 156 422 117T492 78Q567 78 600 164Z" />
<glyph unicode="A" glyph-name="A" horiz-adv-x="573" d="M467 0L415 173H154L102 0H6L227 689H347L567 0H467ZM177 250H392L285 610L177 250Z" />
<glyph unicode="B" glyph-name="B" horiz-adv-x="608" d="M475 352T519 314T563 196Q563 0 290 0H100V689H263Q394 689 463 646T533 515Q533 455 496 415T404 364Q475 352 519 314ZM195 614V397H299Q359 397 397 426T436 508Q436 568 396 591T273 614H195ZM374
76T418 101T463 196Q463 264 420 294T308 324H195V76H290Q374 76 418 101Z" />
<glyph unicode="C" glyph-name="C" horiz-adv-x="560" d="M403 701T445 685T532 633L480 572Q417 623 347 623Q261 623 209 557T156 345Q156 203 208 136T346 68Q390 68 423 83T493 125L540 65Q508 32 458 10T343 -12Q259 -12 194 29T92 151T55 345Q55 458 93
538T196 660T341 701Q403 701 445 685Z" />
<glyph unicode="D" glyph-name="D" horiz-adv-x="644" d="M400 689T494 617T589 348Q589 157 495 79T265 0H100V689H244Q400 689 494 617ZM195 613V75H272Q368 75 428 134T488 348Q488 457 457 515T378 593T265 613H195Z" />
<glyph unicode="E" glyph-name="E" horiz-adv-x="535" d="M473 689L462 613H195V388H427V312H195V76H481V0H100V689H473Z" />
<glyph unicode="F" glyph-name="F" horiz-adv-x="491" d="M100 0V689H466L455 613H195V378H420V303H195V0H100Z" />
<glyph unicode="G" glyph-name="G" horiz-adv-x="631" d="M419 701T466 683T561 625L505 567Q468 597 434 610T354 623Q301 623 257 595T184 504T156 345Q156 200 203 133T344 66Q420 66 475 97V305H353L342 382H569V49Q462 -12 344 -12Q208 -12 132 79T55 345Q55
457 95 537T204 659T354 701Q419 701 466 683Z" />
<glyph unicode="H" glyph-name="H" horiz-adv-x="680" d="M485 0V323H195V0H100V689H195V401H485V689H580V0H485Z" />
<glyph unicode="I" glyph-name="I" horiz-adv-x="295" d="M195 689V0H100V689H195Z" />
<glyph unicode="J" glyph-name="J" horiz-adv-x="305" d="M210 96Q210 -6 166 -57T30 -137L5 -68Q51 -50 74 -29T106 22T115 100V689H210V96Z" />
<glyph unicode="K" glyph-name="K" horiz-adv-x="589" d="M195 689V0H100V689H195ZM570 689L309 374L589 0H472L200 368L462 689H570Z" />
<glyph unicode="L" glyph-name="L" horiz-adv-x="498" d="M195 689V83H478L467 0H100V689H195Z" />
<glyph unicode="M" glyph-name="M" horiz-adv-x="778" d="M716 0H624L600 311Q585 494 583 592L434 78H345L188 593Q188 468 175 304L152 0H62L119 689H247L392 188L530 689H659L716 0Z" />
<glyph unicode="N" glyph-name="N" horiz-adv-x="683" d="M583 0H456L176 585Q182 516 185 458T189 316V0H100V689H224L507 103Q504 129 499 194T494 313V689H583V0Z" />
<glyph unicode="O" glyph-name="O" horiz-adv-x="692" d="M433 701T498 660T600 538T637 344Q637 232 601 152T499 30T346 -12Q259 -12 194 29T92 150T55 343Q55 454 91 535T194 658T346 701Q433 701 498 660ZM256 623T206 555T156 343Q156 200 206 133T346 66Q536
66 536 344Q536 623 346 623Q256 623 206 555Z" />
<glyph unicode="P" glyph-name="P" horiz-adv-x="581" d="M409 689T479 636T549 476Q549 363 476 308T282 253H195V0H100V689H281Q409 689 479 636ZM361 328T404 360T448 475Q448 549 405 582T280 615H195V328H278Q361 328 404 360Z" />
<glyph unicode="Q" glyph-name="Q" horiz-adv-x="691" d="M534 39T579 23T666 -23L604 -103Q544 -50 490 -30T344 -10Q258 -10 193 30T92 150T55 343Q55 454 91 535T194 658T346 701Q433 701 498 660T600 538T637 344Q637 223 597 152T479 39Q534 39 579 23ZM156
200T206 133T346 66Q536 66 536 344Q536 623 346 623Q256 623 206 555T156 343Q156 200 206 133Z" />
<glyph unicode="R" glyph-name="R" horiz-adv-x="605" d="M302 292H195V0H100V689H281Q410 689 476 640T543 494Q543 422 506 377T394 309L580 0H467L302 292ZM291 365Q366 365 404 395T442 494Q442 558 404 586T280 615H195V365H291Z" />
<glyph unicode="S" glyph-name="S" horiz-adv-x="545" d="M339 701T388 682T483 621L431 563Q392 594 355 608T274 623Q220 623 185 598T150 525Q150 495 162 475T206 437T301 401Q366 381 409 358T478 295T505 192Q505 132 476 86T391 14T259 -12Q116 -12 25
77L77 135Q119 101 162 84T258 66Q322 66 364 97T406 189Q406 223 393 245T349 286T257 322Q151 354 102 399T53 521Q53 573 80 614T157 678T270 701Q339 701 388 682Z" />
<glyph unicode="T" glyph-name="T" horiz-adv-x="517" d="M507 689L497 608H306V0H211V608H15V689H507Z" />
<glyph unicode="U" glyph-name="U" horiz-adv-x="662" d="M572 221Q572 152 544 100T461 18T330 -12Q215 -12 153 51T90 221V689H185V228Q185 148 221 108T330 68Q404 68 440 107T476 228V689H572V221Z" />
<glyph unicode="V" glyph-name="V" horiz-adv-x="556" d="M550 689L330 0H228L6 689H108L281 103L454 689H550Z" />
<glyph unicode="W" glyph-name="W" horiz-adv-x="826" d="M801 689L661 0H539L412 577L284 0H165L25 689H118L229 83L362 689H463L599 83L714 689H801Z" />
<glyph unicode="X" glyph-name="X" horiz-adv-x="540" d="M325 372L535 0H427L268 305L107 0H5L212 367L23 689H131L270 430L410 689H512L325 372Z" />
<glyph unicode="Y" glyph-name="Y" horiz-adv-x="550" d="M545 689L323 265V0H227V264L5 689H110L278 348L446 689H545Z" />
<glyph unicode="Z" glyph-name="Z" horiz-adv-x="522" d="M477 689V612L136 81H477L466 0H30V76L374 609H66V689H477Z" />
<glyph unicode="[" glyph-name="bracketleft" horiz-adv-x="322" d="M272 816V739H152V-40H272V-116H65V816H272Z" />
<glyph unicode="\" glyph-name="backslash" horiz-adv-x="520" d="M183 807L415 -85L336 -104L105 789L183 807Z" />
<glyph unicode="]" glyph-name="bracketright" horiz-adv-x="322" d="M257 816V-116H50V-40H170V739H50V816H257Z" />
<glyph unicode="^" glyph-name="asciicircum" horiz-adv-x="540" d="M311 840L500 527H402L269 760L137 527H40L229 840H311Z" />
<glyph unicode="_" glyph-name="underscore" horiz-adv-x="520" d="M17 -142V-63H503V-142H17Z" />
<glyph unicode="`" glyph-name="grave" horiz-adv-x="300" d="M71 801L270 687L242 638L30 724L71 801Z" />
<glyph unicode="a" glyph-name="a" horiz-adv-x="544" d="M450 91T461 76T494 52L473 -12Q432 -7 407 11T370 67Q317 -12 213 -12Q135 -12 90 32T45 147Q45 231 105 276T277 321H358V360Q358 416 331 440T248 464Q190 464 106 436L83 503Q181 539 265 539Q358
539 404 494T450 364V123Q450 91 461 76ZM313 57T358 139V260H289Q143 260 143 152Q143 105 166 81T234 57Q313 57 358 139Z" />
<glyph unicode="b" glyph-name="b" horiz-adv-x="594" d="M426 539T479 467T532 264Q532 182 507 120T435 23T325 -12Q242 -12 185 58L176 0H95V739L187 750V461Q244 539 336 539Q426 539 479 467ZM364 61T398 110T433 264Q433 371 401 418T310 466Q240 466 187
384V132Q208 99 238 80T303 61Q364 61 398 110Z" />
<glyph unicode="c" glyph-name="c" horiz-adv-x="478" d="M334 539T373 526T448 482L404 424Q376 444 350 453T291 463Q227 463 192 412T156 261Q156 161 191 114T291 66Q322 66 348 75T406 106L448 46Q376 -12 287 -12Q180 -12 119 60T57 259Q57 343 85 406T164
504T287 539Q334 539 373 526Z" />
<glyph unicode="d" glyph-name="d" horiz-adv-x="598" d="M503 739V0H422L413 73Q387 33 348 11T261 -12Q167 -12 115 62T62 261Q62 342 87 405T159 503T269 539Q350 539 411 474V750L503 739ZM323 61T353 80T411 139V397Q385 431 356 448T289 466Q228 466 195
415T161 263Q161 161 192 111T281 61Q323 61 353 80Z" />
<glyph unicode="e" glyph-name="e" horiz-adv-x="545" d="M493 256T491 232H155Q161 145 199 104T297 63Q335 63 367 74T434 109L474 54Q390 -12 290 -12Q180 -12 119 60T57 258Q57 340 83 403T159 503T276 539Q381 539 437 470T493 279Q493 256 491 232ZM402
306Q402 384 371 425T278 466Q165 466 155 300H402V306Z" />
<glyph unicode="f" glyph-name="f" horiz-adv-x="335" d="M232 676T214 658T196 600V527H324L314 456H196V0H104V456H10V527H104V599Q104 667 147 708T269 750Q305 750 333 744T395 723L366 656Q321 676 274 676Q232 676 214 658Z" />
<glyph unicode="g" glyph-name="g" horiz-adv-x="520" d="M520 503Q490 493 454 490T366 487Q459 445 459 354Q459 275 405 225T258 175Q222 175 191 185Q179 177 172 164T165 136Q165 93 234 93H318Q371 93 412 74T475 22T498 -53Q498 -130 435 -171T251 -213Q166
-213 117 -196T46 -143T25 -53H108Q108 -85 120 -103T163 -131T251 -141Q334 -141 369 -121T405 -59Q405 -22 377 -3T299 16H216Q149 16 115 44T80 116Q80 142 95 166T138 209Q92 233 71 268T49 355Q49 408 75 450T148 515T252 539Q314 538 356 543T425 558T493
586L520 503ZM200 473T172 441T143 355Q143 301 172 269T254 236Q308 236 336 267T365 356Q365 473 252 473Q200 473 172 441Z" />
<glyph unicode="h" glyph-name="h" horiz-adv-x="586" d="M415 539T455 496T496 378V0H404V365Q404 421 383 444T320 467Q279 467 247 443T187 375V0H95V738L187 748V454Q249 539 343 539Q415 539 455 496Z" />
<glyph unicode="i" glyph-name="i" horiz-adv-x="282" d="M187 527V0H95V527H187ZM169 780T187 762T205 717Q205 690 187 673T140 655Q112 655 94 672T76 717Q76 744 94 762T140 780Q169 780 187 762Z" />
<glyph unicode="j" glyph-name="j" horiz-adv-x="280" d="M185 32Q185 -41 167 -85T115 -156T18 -212L-9 -145Q30 -127 51 -110T82 -61T93 26V527H185V32ZM168 780T186 762T204 717Q204 690 186 673T139 655Q111 655 93 672T75 717Q75 744 93 762T139 780Q168
780 186 762Z" />
<glyph unicode="k" glyph-name="k" horiz-adv-x="512" d="M187 750V0H95V739L187 750ZM490 527L296 294L512 0H402L193 288L387 527H490Z" />
<glyph unicode="l" glyph-name="l" horiz-adv-x="293" d="M149 -12T120 18T90 104V739L182 750V106Q182 84 189 74T215 64Q234 64 249 70L273 6Q240 -12 200 -12Q149 -12 120 18Z" />
<glyph unicode="m" glyph-name="m" horiz-adv-x="857" d="M689 539T728 496T767 378V0H675V365Q675 467 601 467Q562 467 535 445T477 374V0H385V365Q385 467 311 467Q271 467 244 444T187 374V0H95V527H174L182 450Q241 539 334 539Q383 539 417 514T467 444Q498
490 535 514T624 539Q689 539 728 496Z" />
<glyph unicode="n" glyph-name="n" horiz-adv-x="586" d="M415 539T455 496T496 378V0H404V365Q404 421 383 444T321 467Q279 467 247 443T187 374V0H95V527H174L182 449Q210 491 251 515T343 539Q415 539 455 496Z" />
<glyph unicode="o" glyph-name="o" horiz-adv-x="584" d="M404 539T465 465T527 264Q527 182 499 120T418 23T292 -12Q181 -12 119 62T57 263Q57 345 85 407T166 504T293 539Q404 539 465 465ZM156 465T156 263Q156 62 292 62Q428 62 428 264Q428 465 293 465Q156
465 156 263Z" />
<glyph unicode="p" glyph-name="p" horiz-adv-x="594" d="M438 539T485 467T532 264Q532 140 478 64T325 -12Q237 -12 187 48V-202L95 -213V527H174L181 456Q210 496 251 517T337 539Q438 539 485 467ZM433 63T433 264Q433 466 314 466Q275 466 243 443T187 384V127Q207
96 237 80T303 63Q433 63 433 264Z" />
<glyph unicode="q" glyph-name="q" horiz-adv-x="598" d="M503 527V-213L411 -202V70Q385 31 347 10T261 -12Q167 -12 115 62T62 261Q62 342 87 405T159 503T269 539Q353 539 417 468L424 527H503ZM323 61T353 80T411 139V397Q385 431 356 448T289 466Q228 466
195 415T161 263Q161 161 192 111T281 61Q323 61 353 80Z" />
<glyph unicode="r" glyph-name="r" horiz-adv-x="386" d="M352 539T376 533L359 443Q335 449 313 449Q264 449 234 413T187 301V0H95V527H174L183 420Q204 479 240 509T324 539Q352 539 376 533Z" />
<glyph unicode="s" glyph-name="s" horiz-adv-x="467" d="M292 539T335 524T417 479L378 421Q342 444 310 455T241 466Q196 466 170 448T144 397Q144 365 168 347T257 312Q345 290 388 252T432 148Q432 70 372 29T224 -12Q104 -12 25 57L74 113Q141 62 222 62Q274
62 304 83T335 142Q335 169 324 185T286 214T207 241Q123 263 86 300T48 394Q48 435 72 468T140 520T238 539Q292 539 335 524Z" />
<glyph unicode="t" glyph-name="t" horiz-adv-x="361" d="M361 24Q309 -12 243 -12Q176 -12 139 26T101 138V456H9V527H101V646L193 657V527H318L308 456H193V142Q193 101 207 83T256 64Q287 64 326 85L361 24Z" />
<glyph unicode="u" glyph-name="u" horiz-adv-x="582" d="M487 0H408L401 82Q371 33 332 11T237 -12Q168 -12 129 30T90 149V527H182V159Q182 105 201 83T263 60Q340 60 395 151V527H487V0Z" />
<glyph unicode="v" glyph-name="v" horiz-adv-x="492" d="M482 527L303 0H192L10 527H110L248 82L385 527H482Z" />
<glyph unicode="w" glyph-name="w" horiz-adv-x="717" d="M697 527L577 0H452L360 444L265 0H143L20 527H112L207 64L311 527H414L513 64L609 527H697Z" />
<glyph unicode="x" glyph-name="x" horiz-adv-x="485" d="M297 282L480 0H369L240 223L109 0H5L189 278L26 527H134L244 334L355 527H459L297 282Z" />
<glyph unicode="y" glyph-name="y" horiz-adv-x="492" d="M306 -3Q275 -95 220 -148T61 -213L51 -141Q103 -132 134 -115T183 -72T218 0H187L10 527H108L249 67L387 527H482L306 -3Z" />
<glyph unicode="z" glyph-name="z" horiz-adv-x="437" d="M404 527V457L129 77H407L396 0H25V69L299 449H48V527H404Z" />
<glyph unicode="{" glyph-name="braceleft" horiz-adv-x="322" d="M277 765Q226 765 204 750T182 697V458Q182 407 164 385T107 349Q147 335 164 314T182 242V3Q182 -34 204 -49T277 -65V-136Q177 -136 136 -102T95 13V235Q95 277 80 294T25 311V387Q64 387 79
405T95 465V687Q95 767 136 801T277 836V765Z" />
<glyph unicode="|" glyph-name="bar" horiz-adv-x="403" d="M243 807V-102H160V807H243Z" />
<glyph unicode="}" glyph-name="braceright" horiz-adv-x="322" d="M145 836T186 802T227 687V465Q227 423 242 405T297 387V311Q258 311 243 294T227 235V13Q227 -67 186 -101T45 -136V-65Q96 -65 118 -50T140 3V242Q140 293 157 314T215 349Q176 362 158 384T140
458V697Q140 734 118 749T45 765V836Q145 836 186 802Z" />
<glyph unicode="~" glyph-name="asciitilde" horiz-adv-x="488" d="M290 250T269 259T217 288Q199 300 187 306T163 312Q124 312 91 258L35 287Q85 384 172 384Q200 384 221 375T270 348Q290 335 302 329T328 323Q349 323 367 336T398 371L453 341Q406 250 319
250Q290 250 269 259Z" />
<glyph unicode="&#xa0;" glyph-name="uni00A0" horiz-adv-x="265" />
<glyph unicode="&#xa1;" glyph-name="exclamdown" horiz-adv-x="241" d="M150 495T170 475T190 425Q190 396 170 376T121 356Q91 356 71 376T51 425Q51 454 71 474T121 495Q150 495 170 475ZM162 247L173 -202H71L81 247H162Z" />
<glyph unicode="&#xa2;" glyph-name="cent" horiz-adv-x="478" d="M448 46Q392 1 329 -9V-154H249V-9Q159 3 108 73T57 259Q57 374 108 448T250 536V684H329V536Q394 527 448 482L404 424Q376 444 350 453T291 463Q227 463 192 412T156 261Q156 161 191 114T291
66Q322 66 348 75T406 106L448 46Z" />
<glyph unicode="&#xa3;" glyph-name="sterling" horiz-adv-x="520" d="M213 153T200 125T152 77H472L461 0H40V73Q75 86 92 100T115 138T122 205V322H56V382H122V493Q122 576 172 627T311 679Q366 679 410 659T490 596L430 550Q406 578 379 591T315 604Q266 604
240 576T213 494V382H421V322H213V204Q213 153 200 125Z" />
<glyph unicode="&#xa4;" glyph-name="currency" horiz-adv-x="560" d="M492 272T455 218L531 143L476 88L398 164Q345 132 278 132Q212 132 160 167L82 88L29 143L107 221Q71 274 71 341Q71 406 106 460L29 540L84 595L162 515Q211 549 278 549Q347 549 399 516L478
595L531 540L455 463Q492 411 492 341Q492 272 455 218ZM341 205T372 241T404 342Q404 407 373 443T281 479Q222 479 191 443T159 342Q159 277 190 241T281 205Q341 205 372 241Z" />
<glyph unicode="&#xa5;" glyph-name="yen" horiz-adv-x="536" d="M531 669L340 346H453V284H315V194H453V133H315V0H221V133H82V194H221V284H82V346H196L5 669H107L271 374L434 669H531Z" />
<glyph unicode="&#xa6;" glyph-name="brokenbar" horiz-adv-x="403" d="M243 807V443H160V807H243ZM243 262V-102H160V262H243Z" />
<glyph unicode="&#xa7;" glyph-name="section" horiz-adv-x="533" d="M441 136T441 75Q441 8 387 -31T246 -71Q149 -71 78 -21L113 40Q143 20 175 11T249 1Q293 1 321 18T349 66Q349 90 339 105T304 133T225 163Q142 190 106 222T70 311Q70 347 90 378T147 432Q120
450 107 474T94 533Q94 600 146 638T281 677Q378 677 452 623L417 565Q384 586 352 596T280 606Q235 606 210 589T185 540Q185 516 194 501T230 471T307 440Q390 412 426 379T463 293Q463 224 387 173Q441 136 441 75ZM159 287T178 269T254 233Q297 219 333 203Q353
221 364 241T375 280Q375 304 366 319T335 347T267 376Q232 389 200 403Q181 384 170 363T159 323Q159 287 178 269Z" />
<glyph unicode="&#xa8;" glyph-name="dieresis" horiz-adv-x="385" d="M112 768T128 752T145 711Q145 687 129 671T88 654Q63 654 47 670T30 711Q30 735 46 751T88 768Q112 768 128 752ZM322 768T338 752T355 711Q355 687 339 671T297 654Q273 654 257 670T240
711Q240 735 256 751T297 768Q322 768 338 752Z" />
<glyph unicode="&#xa9;" glyph-name="copyright" horiz-adv-x="810" d="M492 748T563 708T676 596T718 434Q718 344 677 273T564 161T406 121Q320 121 248 161T134 272T92 434Q92 524 134 595T248 707T406 748Q492 748 563 708ZM334 696T277 663T186 570T153 434Q153
358 186 299T276 207T406 174Q477 174 534 207T625 299T658 434Q658 510 625 570T535 663T406 696Q334 696 277 663ZM444 625T471 615T525 585L490 538Q452 565 412 565Q371 565 346 533T321 435Q321 372 345 340T412 308Q437 308 456 315T496 339L528 291Q476
245 409 245Q335 245 290 295T245 435Q245 495 267 538T326 603T408 625Q444 625 471 615Z" />
<glyph unicode="&#xaa;" glyph-name="ordfeminine" horiz-adv-x="500" d="M313 525V549Q313 588 293 604T230 620Q181 620 117 599L95 661Q173 689 245 689Q402 689 402 554V384Q402 361 410 350T435 333L416 272Q381 276 360 289T327 331Q306 301 274 286T201
271Q138 271 102 304T65 393Q65 457 114 491T255 525H313ZM280 337T313 390V470H265Q159 470 159 398Q159 369 176 353T224 337Q280 337 313 390ZM71 77H447V0H71V77Z" />
<glyph unicode="&#xab;" glyph-name="guillemotleft" horiz-adv-x="575" d="M230 535L285 497L150 287L285 77L230 39L55 255V318L230 535ZM465 535L520 497L385 287L520 77L465 39L290 255V318L465 535Z" />
<glyph unicode="&#xac;" glyph-name="logicalnot" horiz-adv-x="500" d="M438 361V141H355V284H62V361H438Z" />
<glyph unicode="&#xad;" glyph-name="uni00AD" horiz-adv-x="403" d="M60 274V352H343V274H60Z" />
<glyph unicode="&#xae;" glyph-name="registered" horiz-adv-x="641" d="M390 750T448 716T540 622T574 493Q574 423 541 365T449 272T319 238Q250 238 192 272T101 364T67 493Q67 563 100 622T192 715T319 750Q390 750 448 716ZM377 287T422 313T493 387T519
493Q519 552 494 599T423 674T319 701Q263 701 218 674T148 600T122 493Q122 434 147 387T218 314T319 287Q377 287 422 313ZM428 522T410 503T363 474L437 359H370L309 465H285V359H228V635H306Q428 635 428 551Q428 522 410 503ZM285 509H315Q369 509 369 551Q369
572 356 581T313 591H285V509Z" />
<glyph unicode="&#xaf;" glyph-name="overscore" horiz-adv-x="333" d="M303 667H30V736H303V667Z" />
<glyph unicode="&#xb0;" glyph-name="degree" horiz-adv-x="523" d="M176 381T139 400T78 455T55 541Q55 590 78 626T138 682T219 701Q262 701 299 682T360 626T383 540Q383 491 360 455T300 400T219 381Q176 381 139 400ZM256 443T281 468T306 540Q306 587 281
612T219 638Q182 638 157 613T132 541Q132 494 157 469T219 443Q256 443 281 468Z" />
<glyph unicode="&#xb1;" glyph-name="plusminus" horiz-adv-x="500" d="M62 0V77H438V0H62ZM292 542V392H438V316H292V167H208V316H63V392H208V542H292Z" />
<glyph unicode="&#xb2;" glyph-name="uni00B2" horiz-adv-x="400" d="M259 746T296 712T334 626Q334 592 318 561T264 489T155 384H344L336 322H67V380Q151 461 187 499T238 565T254 620Q254 650 236 667T189 684Q163 684 144 674T104 640L55 678Q110 746 195
746Q259 746 296 712Z" />
<glyph unicode="&#xb3;" glyph-name="uni00B3" horiz-adv-x="400" d="M261 746T297 716T334 641Q334 603 311 578T248 543Q292 539 320 513T348 441Q348 386 306 350T191 313Q104 313 52 373L97 415Q135 374 187 374Q224 374 245 393T267 445Q267 481 247 496T187
512H153L162 568H185Q217 568 237 584T257 631Q257 657 239 672T191 687Q166 687 145 678T103 650L63 694Q121 746 197 746Q261 746 297 716Z" />
<glyph unicode="&#xb4;" glyph-name="acute" horiz-adv-x="300" d="M229 801L270 724L58 638L30 687L229 801Z" />
<glyph unicode="&#xb5;" glyph-name="uni00B5" horiz-adv-x="588" d="M487 80T513 0L427 -12Q416 14 412 33T403 85V86Q379 44 344 16T265 -12Q230 -12 208 -1T169 38Q178 10 182 -20T186 -96V-202L95 -213V527H187V156Q187 67 266 67Q346 67 395 163V527H487V180Q487
80 513 0Z" />
<glyph unicode="&#xb6;" glyph-name="paragraph" horiz-adv-x="734" d="M594 689V-202L511 -215V616H397V-202L314 -215V282Q201 288 146 343T90 486Q90 583 156 636T336 689H594Z" />
<glyph unicode="&#xb7;" glyph-name="middot" horiz-adv-x="240" d="M149 380T169 360T189 311Q189 282 169 262T119 241Q90 241 70 261T50 311Q50 340 70 360T119 380Q149 380 169 360Z" />
<glyph unicode="&#xb8;" glyph-name="cedilla" horiz-adv-x="275" d="M152 -56Q200 -60 222 -83T245 -141Q245 -189 210 -215T121 -241Q93 -241 69 -235T30 -217L55 -165Q85 -181 118 -181Q141 -181 154 -172T168 -141Q168 -120 147 -110T79 -99L93 16H152V-56Z" />
<glyph unicode="&#xb9;" glyph-name="uni00B9" horiz-adv-x="400" d="M274 739V322H197V660L99 603L65 656L205 739H274Z" />
<glyph unicode="&#xba;" glyph-name="ordmasculine" horiz-adv-x="500" d="M343 689T393 634T444 480Q444 385 393 328T250 271Q158 271 107 327T56 480Q56 575 108 632T251 689Q343 689 393 634ZM151 620T151 480Q151 340 250 340Q349 340 349 480Q349 552 325
586T251 620Q151 620 151 480ZM62 0V77H438V0H62Z" />
<glyph unicode="&#xbb;" glyph-name="guillemotright" horiz-adv-x="566" d="M110 535L285 318V255L110 39L55 77L190 287L55 497L110 535ZM336 535L511 318V255L336 39L281 77L416 287L281 497L336 535Z" />
<glyph unicode="&#xbc;" glyph-name="onequarter" horiz-adv-x="932" d="M274 689V272H197V610L99 553L65 606L205 689H274ZM640 750L699 721L293 -78L233 -49L640 750ZM889 156V96H836V0H760V96H574V150L702 424L768 399L655 156H761L768 261H836V156H889Z" />
<glyph unicode="&#xbd;" glyph-name="onehalf" horiz-adv-x="932" d="M274 689V272H197V610L99 553L65 606L205 689H274ZM640 750L699 721L293 -78L233 -49L640 750ZM791 424T828 390T866 304Q866 270 850 239T796 167T687 62H876L868 0H599V58Q683 139 719 177T770
243T786 298Q786 328 768 345T721 362Q695 362 676 352T636 318L587 356Q642 424 727 424Q791 424 828 390Z" />
<glyph unicode="&#xbe;" glyph-name="threequarters" horiz-adv-x="932" d="M261 696T297 666T334 591Q334 553 311 528T248 493Q292 489 320 463T348 391Q348 336 306 300T191 263Q104 263 52 323L97 365Q135 324 187 324Q224 324 245 343T267 395Q267 431 247
446T187 462H153L162 518H185Q217 518 237 534T257 581Q257 607 239 622T191 637Q166 637 145 628T103 600L63 644Q121 696 197 696Q261 696 297 666ZM640 750L699 721L293 -78L233 -49L640 750ZM889 156V96H836V0H760V96H574V150L702 424L768 399L655 156H761L768
261H836V156H889Z" />
<glyph unicode="&#xbf;" glyph-name="questiondown" horiz-adv-x="459" d="M224 356T204 376T184 425Q184 454 204 474T254 495Q283 495 303 475T323 425Q323 396 303 376T254 356Q224 356 204 376ZM161 -215T118 -194T52 -136T30 -59Q30 -19 43 8T77 53T129 92Q170
120 190 143T211 206V247H302V201Q302 159 288 130T254 84T201 44Q163 20 145 0T126 -53Q126 -94 153 -116T227 -139Q307 -139 366 -67L429 -116Q345 -215 221 -215Q161 -215 118 -194Z" />
<glyph unicode="&#xc0;" glyph-name="Agrave" horiz-adv-x="573" d="M467 0L415 173H154L102 0H6L227 689H347L567 0H467ZM177 250H392L285 610L177 250ZM196 911L397 804L373 755L157 834L196 911Z" />
<glyph unicode="&#xc1;" glyph-name="Aacute" horiz-adv-x="573" d="M467 0L415 173H154L102 0H6L227 689H347L567 0H467ZM177 250H392L285 610L177 250ZM367 911L407 834L191 755L167 804L367 911Z" />
<glyph unicode="&#xc2;" glyph-name="Acircumflex" horiz-adv-x="573" d="M467 0L415 173H154L102 0H6L227 689H347L567 0H467ZM177 250H392L285 610L177 250ZM160 759L120 804L256 914H317L452 804L413 759L286 840L160 759Z" />
<glyph unicode="&#xc3;" glyph-name="Atilde" horiz-adv-x="573" d="M467 0L415 173H154L102 0H6L227 689H347L567 0H467ZM177 250H392L285 610L177 250ZM326 782T311 789T276 809Q261 820 251 825T229 830Q213 830 201 819T176 784L120 812Q139 852 166 876T229
900Q250 900 265 893T299 872Q302 870 311 864T329 855T345 852Q360 852 372 862T398 896L454 868Q435 826 407 804T345 782Q326 782 311 789Z" />
<glyph unicode="&#xc4;" glyph-name="Adieresis" horiz-adv-x="573" d="M467 0L415 173H154L102 0H6L227 689H347L567 0H467ZM177 250H392L285 610L177 250ZM206 894T222 878T239 837Q239 813 223 797T182 780Q157 780 141 796T124 837Q124 861 140 877T182 894Q206
894 222 878ZM416 894T432 878T449 837Q449 813 433 797T391 780Q367 780 351 796T334 837Q334 861 350 877T391 894Q416 894 432 878Z" />
<glyph unicode="&#xc5;" glyph-name="Aring" horiz-adv-x="573" d="M467 0L415 173H154L102 0H6L227 689H347L567 0H467ZM177 250H392L285 610L177 250ZM337 962T369 932T401 856Q401 811 369 781T287 750Q237 750 205 780T173 856Q173 901 205 931T287 962Q337
962 369 932ZM262 912T248 897T234 856Q234 830 248 815T287 800Q311 800 325 815T340 856Q340 882 326 897T287 912Q262 912 248 897Z" />
<glyph unicode="&#xc6;" glyph-name="AE" horiz-adv-x="816" d="M535 76H762V0H458L418 173H150L85 0H-12L262 689H721L710 613H401L457 387H712V311H476L535 76ZM179 250H400L316 613L179 250Z" />
<glyph unicode="&#xc7;" glyph-name="Ccedilla" horiz-adv-x="560" d="M512 36T471 16T376 -10V-56Q424 -60 446 -83T469 -141Q469 -189 434 -215T345 -241Q317 -241 293 -235T254 -217L279 -165Q309 -181 342 -181Q365 -181 378 -172T392 -141Q392 -120 371 -110T303
-99L314 -11Q237 -4 179 39T88 160T55 345Q55 458 93 538T196 660T341 701Q403 701 445 685T532 633L480 572Q417 623 347 623Q261 623 209 557T156 345Q156 203 208 136T346 68Q390 68 423 83T493 125L540 65Q512 36 471 16Z" />
<glyph unicode="&#xc8;" glyph-name="Egrave" horiz-adv-x="535" d="M473 689L462 613H195V388H427V312H195V76H481V0H100V689H473ZM199 911L400 804L376 755L160 834L199 911Z" />
<glyph unicode="&#xc9;" glyph-name="Eacute" horiz-adv-x="535" d="M473 689L462 613H195V388H427V312H195V76H481V0H100V689H473ZM370 911L410 834L194 755L170 804L370 911Z" />
<glyph unicode="&#xca;" glyph-name="Ecircumflex" horiz-adv-x="535" d="M473 689L462 613H195V388H427V312H195V76H481V0H100V689H473ZM163 759L123 804L259 914H320L455 804L416 759L289 840L163 759Z" />
<glyph unicode="&#xcb;" glyph-name="Edieresis" horiz-adv-x="535" d="M473 689L462 613H195V388H427V312H195V76H481V0H100V689H473ZM209 894T225 878T242 837Q242 813 226 797T185 780Q160 780 144 796T127 837Q127 861 143 877T185 894Q209 894 225 878ZM419
894T435 878T452 837Q452 813 436 797T394 780Q370 780 354 796T337 837Q337 861 353 877T394 894Q419 894 435 878Z" />
<glyph unicode="&#xcc;" glyph-name="Igrave" horiz-adv-x="295" d="M195 689V0H100V689H195ZM56 911L257 804L233 755L17 834L56 911Z" />
<glyph unicode="&#xcd;" glyph-name="Iacute" horiz-adv-x="295" d="M195 689V0H100V689H195ZM227 911L267 834L51 755L27 804L227 911Z" />
<glyph unicode="&#xce;" glyph-name="Icircumflex" horiz-adv-x="295" d="M195 689V0H100V689H195ZM20 759L-20 804L116 914H177L312 804L273 759L146 840L20 759Z" />
<glyph unicode="&#xcf;" glyph-name="Idieresis" horiz-adv-x="295" d="M195 689V0H100V689H195ZM66 894T82 878T99 837Q99 813 83 797T42 780Q17 780 1 796T-16 837Q-16 861 0 877T42 894Q66 894 82 878ZM276 894T292 878T309 837Q309 813 293 797T251 780Q227
780 211 796T194 837Q194 861 210 877T251 894Q276 894 292 878Z" />
<glyph unicode="&#xd0;" glyph-name="Eth" horiz-adv-x="656" d="M412 689T506 617T601 348Q601 157 507 79T277 0H112V318H20V388H112V689H256Q412 689 506 617ZM380 75T440 134T500 348Q500 457 469 515T390 593T277 613H207V388H364V318H207V75H284Q380 75 440 134Z" />
<glyph unicode="&#xd1;" glyph-name="Ntilde" horiz-adv-x="683" d="M583 0H456L176 585Q182 516 185 458T189 316V0H100V689H224L507 103Q504 129 499 194T494 313V689H583V0ZM392 782T377 789T342 809Q327 820 317 825T295 830Q279 830 267 819T242 784L186
812Q205 852 232 876T295 900Q316 900 331 893T365 872Q368 870 377 864T395 855T411 852Q426 852 438 862T464 896L520 868Q501 826 473 804T411 782Q392 782 377 789Z" />
<glyph unicode="&#xd2;" glyph-name="Ograve" horiz-adv-x="692" d="M433 701T498 660T600 538T637 344Q637 232 601 152T499 30T346 -12Q259 -12 194 29T92 150T55 343Q55 454 91 535T194 658T346 701Q433 701 498 660ZM256 623T206 555T156 343Q156 200 206
133T346 66Q536 66 536 344Q536 623 346 623Q256 623 206 555ZM255 911L456 804L432 755L216 834L255 911Z" />
<glyph unicode="&#xd3;" glyph-name="Oacute" horiz-adv-x="692" d="M433 701T498 660T600 538T637 344Q637 232 601 152T499 30T346 -12Q259 -12 194 29T92 150T55 343Q55 454 91 535T194 658T346 701Q433 701 498 660ZM256 623T206 555T156 343Q156 200 206
133T346 66Q536 66 536 344Q536 623 346 623Q256 623 206 555ZM426 911L466 834L250 755L226 804L426 911Z" />
<glyph unicode="&#xd4;" glyph-name="Ocircumflex" horiz-adv-x="692" d="M433 701T498 660T600 538T637 344Q637 232 601 152T499 30T346 -12Q259 -12 194 29T92 150T55 343Q55 454 91 535T194 658T346 701Q433 701 498 660ZM256 623T206 555T156 343Q156 200
206 133T346 66Q536 66 536 344Q536 623 346 623Q256 623 206 555ZM219 759L179 804L315 914H376L511 804L472 759L345 840L219 759Z" />
<glyph unicode="&#xd5;" glyph-name="Otilde" horiz-adv-x="692" d="M433 701T498 660T600 538T637 344Q637 232 601 152T499 30T346 -12Q259 -12 194 29T92 150T55 343Q55 454 91 535T194 658T346 701Q433 701 498 660ZM256 623T206 555T156 343Q156 200 206
133T346 66Q536 66 536 344Q536 623 346 623Q256 623 206 555ZM385 782T370 789T335 809Q320 820 310 825T288 830Q272 830 260 819T235 784L179 812Q198 852 225 876T288 900Q309 900 324 893T358 872Q361 870 370 864T388 855T404 852Q419 852 431 862T457 896L513
868Q494 826 466 804T404 782Q385 782 370 789Z" />
<glyph unicode="&#xd6;" glyph-name="Odieresis" horiz-adv-x="692" d="M433 701T498 660T600 538T637 344Q637 232 601 152T499 30T346 -12Q259 -12 194 29T92 150T55 343Q55 454 91 535T194 658T346 701Q433 701 498 660ZM256 623T206 555T156 343Q156 200 206
133T346 66Q536 66 536 344Q536 623 346 623Q256 623 206 555ZM265 894T281 878T298 837Q298 813 282 797T241 780Q216 780 200 796T183 837Q183 861 199 877T241 894Q265 894 281 878ZM475 894T491 878T508 837Q508 813 492 797T450 780Q426 780 410 796T393 837Q393
861 409 877T450 894Q475 894 491 878Z" />
<glyph unicode="&#xd7;" glyph-name="multiply" horiz-adv-x="500" d="M372 486L428 429L308 309L428 185L372 129L252 253L128 129L72 185L192 305L72 429L128 486L248 361L372 486Z" />
<glyph unicode="&#xd8;" glyph-name="Oslash" horiz-adv-x="692" d="M558 628T597 546T637 344Q637 232 601 152T499 30T346 -12Q310 -12 279 -5L244 -127L165 -106L205 22Q134 62 95 143T55 343Q55 454 91 535T194 658T346 701Q383 701 412 694L449 819L528 798L486
667Q558 628 597 546ZM256 623T206 555T156 343Q156 158 238 97L396 618Q369 623 346 623Q256 623 206 555ZM536 66T536 344Q536 443 515 504T452 594L296 71Q321 66 346 66Q536 66 536 344Z" />
<glyph unicode="&#xd9;" glyph-name="Ugrave" horiz-adv-x="662" d="M572 221Q572 152 544 100T461 18T330 -12Q215 -12 153 51T90 221V689H185V228Q185 148 221 108T330 68Q404 68 440 107T476 228V689H572V221ZM240 911L441 804L417 755L201 834L240 911Z" />
<glyph unicode="&#xda;" glyph-name="Uacute" horiz-adv-x="662" d="M572 221Q572 152 544 100T461 18T330 -12Q215 -12 153 51T90 221V689H185V228Q185 148 221 108T330 68Q404 68 440 107T476 228V689H572V221ZM411 911L451 834L235 755L211 804L411 911Z" />
<glyph unicode="&#xdb;" glyph-name="Ucircumflex" horiz-adv-x="662" d="M572 221Q572 152 544 100T461 18T330 -12Q215 -12 153 51T90 221V689H185V228Q185 148 221 108T330 68Q404 68 440 107T476 228V689H572V221ZM204 759L164 804L300 914H361L496 804L457
759L330 840L204 759Z" />
<glyph unicode="&#xdc;" glyph-name="Udieresis" horiz-adv-x="662" d="M572 221Q572 152 544 100T461 18T330 -12Q215 -12 153 51T90 221V689H185V228Q185 148 221 108T330 68Q404 68 440 107T476 228V689H572V221ZM250 894T266 878T283 837Q283 813 267 797T226
780Q201 780 185 796T168 837Q168 861 184 877T226 894Q250 894 266 878ZM460 894T476 878T493 837Q493 813 477 797T435 780Q411 780 395 796T378 837Q378 861 394 877T435 894Q460 894 476 878Z" />
<glyph unicode="&#xdd;" glyph-name="Yacute" horiz-adv-x="550" d="M545 689L323 265V0H227V264L5 689H110L278 348L446 689H545ZM355 911L395 834L179 755L155 804L355 911Z" />
<glyph unicode="&#xde;" glyph-name="Thorn" horiz-adv-x="581" d="M409 571T479 517T549 354Q549 238 476 183T282 127H195V0H100V689H195V571H281Q409 571 479 517ZM362 202T405 235T448 353Q448 430 405 463T280 497H195V202H278Q362 202 405 235Z" />
<glyph unicode="&#xdf;" glyph-name="germandbls" horiz-adv-x="593" d="M351 750T391 731T454 680T476 607Q476 566 459 542T410 492Q386 472 376 459T365 427Q365 404 382 387T434 346Q472 320 495 299T536 244T553 162Q553 110 529 71T463 10T375 -12Q316 -12
273 11L300 75Q326 62 366 62Q408 62 433 88T459 163Q459 208 436 236T366 297Q323 328 301 354T278 420Q278 453 292 472T335 515Q362 537 375 555T388 602Q388 639 362 658T295 678Q187 678 187 539V0H95V539Q95 639 147 694T296 750Q351 750 391 731Z" />
<glyph unicode="&#xe0;" glyph-name="agrave" horiz-adv-x="544" d="M450 91T461 76T494 52L473 -12Q432 -7 407 11T370 67Q317 -12 213 -12Q135 -12 90 32T45 147Q45 231 105 276T277 321H358V360Q358 416 331 440T248 464Q190 464 106 436L83 503Q181 539 265
539Q358 539 404 494T450 364V123Q450 91 461 76ZM313 57T358 139V260H289Q143 260 143 152Q143 105 166 81T234 57Q313 57 358 139ZM192 801L391 687L363 638L151 724L192 801Z" />
<glyph unicode="&#xe1;" glyph-name="aacute" horiz-adv-x="544" d="M450 91T461 76T494 52L473 -12Q432 -7 407 11T370 67Q317 -12 213 -12Q135 -12 90 32T45 147Q45 231 105 276T277 321H358V360Q358 416 331 440T248 464Q190 464 106 436L83 503Q181 539 265
539Q358 539 404 494T450 364V123Q450 91 461 76ZM313 57T358 139V260H289Q143 260 143 152Q143 105 166 81T234 57Q313 57 358 139ZM340 801L381 724L169 638L141 687L340 801Z" />
<glyph unicode="&#xe2;" glyph-name="acircumflex" horiz-adv-x="544" d="M450 91T461 76T494 52L473 -12Q432 -7 407 11T370 67Q317 -12 213 -12Q135 -12 90 32T45 147Q45 231 105 276T277 321H358V360Q358 416 331 440T248 464Q190 464 106 436L83 503Q181 539
265 539Q358 539 404 494T450 364V123Q450 91 461 76ZM313 57T358 139V260H289Q143 260 143 152Q143 105 166 81T234 57Q313 57 358 139ZM134 634L95 679L230 792H291L427 679L387 634L261 718L134 634Z" />
<glyph unicode="&#xe3;" glyph-name="atilde" horiz-adv-x="544" d="M450 91T461 76T494 52L473 -12Q432 -7 407 11T370 67Q317 -12 213 -12Q135 -12 90 32T45 147Q45 231 105 276T277 321H358V360Q358 416 331 440T248 464Q190 464 106 436L83 503Q181 539 265
539Q358 539 404 494T450 364V123Q450 91 461 76ZM313 57T358 139V260H289Q143 260 143 152Q143 105 166 81T234 57Q313 57 358 139ZM300 656T285 663T250 683Q235 694 225 699T203 704Q187 704 175 693T150 658L94 686Q113 726 140 750T203 774Q224 774 239 767T273
746Q276 744 285 738T303 729T319 726Q334 726 346 736T372 770L428 742Q409 700 381 678T319 656Q300 656 285 663Z" />
<glyph unicode="&#xe4;" glyph-name="adieresis" horiz-adv-x="544" d="M450 91T461 76T494 52L473 -12Q432 -7 407 11T370 67Q317 -12 213 -12Q135 -12 90 32T45 147Q45 231 105 276T277 321H358V360Q358 416 331 440T248 464Q190 464 106 436L83 503Q181 539
265 539Q358 539 404 494T450 364V123Q450 91 461 76ZM313 57T358 139V260H289Q143 260 143 152Q143 105 166 81T234 57Q313 57 358 139ZM180 768T196 752T213 711Q213 687 197 671T156 654Q131 654 115 670T98 711Q98 735 114 751T156 768Q180 768 196 752ZM390
768T406 752T423 711Q423 687 407 671T365 654Q341 654 325 670T308 711Q308 735 324 751T365 768Q390 768 406 752Z" />
<glyph unicode="&#xe5;" glyph-name="aring" horiz-adv-x="544" d="M450 91T461 76T494 52L473 -12Q432 -7 407 11T370 67Q317 -12 213 -12Q135 -12 90 32T45 147Q45 231 105 276T277 321H358V360Q358 416 331 440T248 464Q190 464 106 436L83 503Q181 539 265
539Q358 539 404 494T450 364V123Q450 91 461 76ZM313 57T358 139V260H289Q143 260 143 152Q143 105 166 81T234 57Q313 57 358 139ZM311 836T343 806T375 730Q375 685 343 655T261 624Q211 624 179 654T147 730Q147 775 179 805T261 836Q311 836 343 806ZM236
786T222 771T208 730Q208 704 222 689T261 674Q285 674 299 689T314 730Q314 756 300 771T261 786Q236 786 222 771Z" />
<glyph unicode="&#xe6;" glyph-name="ae" horiz-adv-x="849" d="M797 256T795 232H459Q465 145 503 104T601 63Q639 63 671 74T738 109L778 54Q694 -12 594 -12Q531 -12 483 13T404 85Q368 33 323 11T216 -12Q137 -12 91 32T45 147Q45 231 107 276T280 321H361V360Q361
416 334 440T251 464Q193 464 109 436L86 503Q184 539 268 539Q382 539 425 455Q482 539 584 539Q686 539 741 470T797 279Q797 256 795 232ZM706 306Q706 384 675 425T582 466Q469 466 459 300H706V306ZM279 57T312 79T376 149Q361 197 361 257V260H292Q146 260
146 152Q146 105 169 81T237 57Q279 57 312 79Z" />
<glyph unicode="&#xe7;" glyph-name="ccedilla" horiz-adv-x="478" d="M385 -5T308 -11V-56Q356 -60 378 -83T401 -141Q401 -189 366 -215T277 -241Q249 -241 225 -235T186 -217L211 -165Q241 -181 274 -181Q297 -181 310 -172T324 -141Q324 -120 303 -110T235
-99L246 -9Q157 5 107 75T57 259Q57 343 85 406T164 504T287 539Q334 539 373 526T448 482L404 424Q376 444 350 453T291 463Q227 463 192 412T156 261Q156 161 191 114T291 66Q322 66 348 75T406 106L448 46Q385 -5 308 -11Z" />
<glyph unicode="&#xe8;" glyph-name="egrave" horiz-adv-x="545" d="M493 256T491 232H155Q161 145 199 104T297 63Q335 63 367 74T434 109L474 54Q390 -12 290 -12Q180 -12 119 60T57 258Q57 340 83 403T159 503T276 539Q381 539 437 470T493 279Q493 256 491
232ZM402 306Q402 384 371 425T278 466Q165 466 155 300H402V306ZM210 801L409 687L381 638L169 724L210 801Z" />
<glyph unicode="&#xe9;" glyph-name="eacute" horiz-adv-x="545" d="M493 256T491 232H155Q161 145 199 104T297 63Q335 63 367 74T434 109L474 54Q390 -12 290 -12Q180 -12 119 60T57 258Q57 340 83 403T159 503T276 539Q381 539 437 470T493 279Q493 256 491
232ZM402 306Q402 384 371 425T278 466Q165 466 155 300H402V306ZM358 801L399 724L187 638L159 687L358 801Z" />
<glyph unicode="&#xea;" glyph-name="ecircumflex" horiz-adv-x="545" d="M493 256T491 232H155Q161 145 199 104T297 63Q335 63 367 74T434 109L474 54Q390 -12 290 -12Q180 -12 119 60T57 258Q57 340 83 403T159 503T276 539Q381 539 437 470T493 279Q493 256
491 232ZM402 306Q402 384 371 425T278 466Q165 466 155 300H402V306ZM152 634L113 679L248 792H309L445 679L405 634L279 718L152 634Z" />
<glyph unicode="&#xeb;" glyph-name="edieresis" horiz-adv-x="545" d="M493 256T491 232H155Q161 145 199 104T297 63Q335 63 367 74T434 109L474 54Q390 -12 290 -12Q180 -12 119 60T57 258Q57 340 83 403T159 503T276 539Q381 539 437 470T493 279Q493 256
491 232ZM402 306Q402 384 371 425T278 466Q165 466 155 300H402V306ZM198 768T214 752T231 711Q231 687 215 671T174 654Q149 654 133 670T116 711Q116 735 132 751T174 768Q198 768 214 752ZM408 768T424 752T441 711Q441 687 425 671T383 654Q359 654 343 670T326
711Q326 735 342 751T383 768Q408 768 424 752Z" />
<glyph unicode="&#xec;" glyph-name="igrave" horiz-adv-x="282" d="M187 527V0H95V527H187ZM72 801L271 687L243 638L31 724L72 801Z" />
<glyph unicode="&#xed;" glyph-name="iacute" horiz-adv-x="282" d="M187 527V0H95V527H187ZM220 801L261 724L49 638L21 687L220 801Z" />
<glyph unicode="&#xee;" glyph-name="icircumflex" horiz-adv-x="282" d="M187 527V0H95V527H187ZM14 634L-25 679L110 792H171L307 679L267 634L141 718L14 634Z" />
<glyph unicode="&#xef;" glyph-name="idieresis" horiz-adv-x="282" d="M187 527V0H95V527H187ZM60 768T76 752T93 711Q93 687 77 671T36 654Q11 654 -5 670T-22 711Q-22 735 -6 751T36 768Q60 768 76 752ZM270 768T286 752T303 711Q303 687 287 671T245 654Q221
654 205 670T188 711Q188 735 204 751T245 768Q270 768 286 752Z" />
<glyph unicode="&#xf0;" glyph-name="eth" horiz-adv-x="570" d="M432 596T470 501T508 265Q508 182 479 120T398 23T278 -12Q216 -12 166 17T86 102T57 235Q57 297 79 352T147 441T258 475Q349 475 405 408Q393 471 365 519T286 607L214 537L151 569L225 644Q173
668 112 680L132 750Q217 733 281 702L351 776L405 729L342 664Q432 596 470 501ZM340 61T377 114T415 266Q415 287 413 325Q387 364 353 383T272 403Q151 403 151 239Q151 153 185 107T277 61Q340 61 377 114Z" />
<glyph unicode="&#xf1;" glyph-name="ntilde" horiz-adv-x="586" d="M415 539T455 496T496 378V0H404V365Q404 421 383 444T321 467Q279 467 247 443T187 374V0H95V527H174L182 449Q210 491 251 515T343 539Q415 539 455 496ZM337 656T322 663T287 683Q272 694
262 699T240 704Q224 704 212 693T187 658L131 686Q150 726 177 750T240 774Q261 774 276 767T310 746Q313 744 322 738T340 729T356 726Q371 726 383 736T409 770L465 742Q446 700 418 678T356 656Q337 656 322 663Z" />
<glyph unicode="&#xf2;" glyph-name="ograve" horiz-adv-x="584" d="M404 539T465 465T527 264Q527 182 499 120T418 23T292 -12Q181 -12 119 62T57 263Q57 345 85 407T166 504T293 539Q404 539 465 465ZM156 465T156 263Q156 62 292 62Q428 62 428 264Q428 465
293 465Q156 465 156 263ZM223 801L422 687L394 638L182 724L223 801Z" />
<glyph unicode="&#xf3;" glyph-name="oacute" horiz-adv-x="584" d="M404 539T465 465T527 264Q527 182 499 120T418 23T292 -12Q181 -12 119 62T57 263Q57 345 85 407T166 504T293 539Q404 539 465 465ZM156 465T156 263Q156 62 292 62Q428 62 428 264Q428 465
293 465Q156 465 156 263ZM371 801L412 724L200 638L172 687L371 801Z" />
<glyph unicode="&#xf4;" glyph-name="ocircumflex" horiz-adv-x="584" d="M404 539T465 465T527 264Q527 182 499 120T418 23T292 -12Q181 -12 119 62T57 263Q57 345 85 407T166 504T293 539Q404 539 465 465ZM156 465T156 263Q156 62 292 62Q428 62 428 264Q428
465 293 465Q156 465 156 263ZM165 634L126 679L261 792H322L458 679L418 634L292 718L165 634Z" />
<glyph unicode="&#xf5;" glyph-name="otilde" horiz-adv-x="584" d="M404 539T465 465T527 264Q527 182 499 120T418 23T292 -12Q181 -12 119 62T57 263Q57 345 85 407T166 504T293 539Q404 539 465 465ZM156 465T156 263Q156 62 292 62Q428 62 428 264Q428 465
293 465Q156 465 156 263ZM331 656T316 663T281 683Q266 694 256 699T234 704Q218 704 206 693T181 658L125 686Q144 726 171 750T234 774Q255 774 270 767T304 746Q307 744 316 738T334 729T350 726Q365 726 377 736T403 770L459 742Q440 700 412 678T350 656Q331
656 316 663Z" />
<glyph unicode="&#xf6;" glyph-name="odieresis" horiz-adv-x="584" d="M404 539T465 465T527 264Q527 182 499 120T418 23T292 -12Q181 -12 119 62T57 263Q57 345 85 407T166 504T293 539Q404 539 465 465ZM156 465T156 263Q156 62 292 62Q428 62 428 264Q428
465 293 465Q156 465 156 263ZM211 768T227 752T244 711Q244 687 228 671T187 654Q162 654 146 670T129 711Q129 735 145 751T187 768Q211 768 227 752ZM421 768T437 752T454 711Q454 687 438 671T396 654Q372 654 356 670T339 711Q339 735 355 751T396 768Q421
768 437 752Z" />
<glyph unicode="&#xf7;" glyph-name="divide" horiz-adv-x="500" d="M280 174T300 154T320 105Q320 76 300 56T250 35Q221 35 201 55T181 105Q181 134 201 154T250 174Q280 174 300 154ZM280 631T300 611T320 562Q320 533 300 513T250 492Q221 492 201 512T181
562Q181 591 201 611T250 631Q280 631 300 611ZM62 294V371H438V294H62Z" />
<glyph unicode="&#xf8;" glyph-name="oslash" horiz-adv-x="584" d="M470 475T498 413T527 264Q527 182 499 120T418 23T292 -12Q268 -12 241 -7L202 -130L127 -108L169 19Q115 52 86 115T57 263Q57 345 85 407T166 504T293 539Q317 539 344 534L383 656L458 634L416
508Q470 475 498 413ZM156 465T156 263Q156 134 204 89L328 462Q311 465 293 465Q156 465 156 263ZM428 62T428 264Q428 331 417 373T381 437L258 65Q273 62 292 62Q428 62 428 264Z" />
<glyph unicode="&#xf9;" glyph-name="ugrave" horiz-adv-x="582" d="M487 0H408L401 82Q371 33 332 11T237 -12Q168 -12 129 30T90 149V527H182V159Q182 105 201 83T263 60Q340 60 395 151V527H487V0ZM220 801L419 687L391 638L179 724L220 801Z" />
<glyph unicode="&#xfa;" glyph-name="uacute" horiz-adv-x="582" d="M487 0H408L401 82Q371 33 332 11T237 -12Q168 -12 129 30T90 149V527H182V159Q182 105 201 83T263 60Q340 60 395 151V527H487V0ZM368 801L409 724L197 638L169 687L368 801Z" />
<glyph unicode="&#xfb;" glyph-name="ucircumflex" horiz-adv-x="582" d="M487 0H408L401 82Q371 33 332 11T237 -12Q168 -12 129 30T90 149V527H182V159Q182 105 201 83T263 60Q340 60 395 151V527H487V0ZM162 634L123 679L258 792H319L455 679L415 634L289 718L162
634Z" />
<glyph unicode="&#xfc;" glyph-name="udieresis" horiz-adv-x="582" d="M487 0H408L401 82Q371 33 332 11T237 -12Q168 -12 129 30T90 149V527H182V159Q182 105 201 83T263 60Q340 60 395 151V527H487V0ZM208 768T224 752T241 711Q241 687 225 671T184 654Q159
654 143 670T126 711Q126 735 142 751T184 768Q208 768 224 752ZM418 768T434 752T451 711Q451 687 435 671T393 654Q369 654 353 670T336 711Q336 735 352 751T393 768Q418 768 434 752Z" />
<glyph unicode="&#xfd;" glyph-name="yacute" horiz-adv-x="492" d="M306 -3Q275 -95 220 -148T61 -213L51 -141Q103 -132 134 -115T183 -72T218 0H187L10 527H108L249 67L387 527H482L306 -3ZM325 801L366 724L154 638L126 687L325 801Z" />
<glyph unicode="&#xfe;" glyph-name="thorn" horiz-adv-x="594" d="M438 539T485 467T532 264Q532 140 478 64T325 -12Q237 -12 187 48V-198L95 -213V739L187 750V463Q215 500 254 519T337 539Q438 539 485 467ZM433 63T433 264Q433 466 314 466Q275 466 243 443T187
384V127Q207 96 237 80T303 63Q433 63 433 264Z" />
<glyph unicode="&#xff;" glyph-name="ydieresis" horiz-adv-x="492" d="M306 -3Q275 -95 220 -148T61 -213L51 -141Q103 -132 134 -115T183 -72T218 0H187L10 527H108L249 67L387 527H482L306 -3ZM165 768T181 752T198 711Q198 687 182 671T141 654Q116 654 100
670T83 711Q83 735 99 751T141 768Q165 768 181 752ZM375 768T391 752T408 711Q408 687 392 671T350 654Q326 654 310 670T293 711Q293 735 309 751T350 768Q375 768 391 752Z" />
<glyph unicode="&#x2013;" glyph-name="endash" horiz-adv-x="520" d="M32 274V352H488V274H32Z" />
<glyph unicode="&#x2014;" glyph-name="emdash" horiz-adv-x="790" d="M32 274V352H758V274H32Z" />
<glyph unicode="&#x2018;" glyph-name="quoteleft" horiz-adv-x="228" d="M82 490T63 508T44 553Q44 565 47 577T61 611L128 753H188L148 603Q174 583 174 553Q174 527 155 509T109 490Q82 490 63 508Z" />
<glyph unicode="&#x2019;" glyph-name="quoteright" horiz-adv-x="228" d="M146 753T165 735T184 690Q184 678 181 666T167 632L100 490H40L80 640Q54 660 54 690Q54 716 73 734T119 753Q146 753 165 735Z" />
<glyph unicode="&#x201a;" glyph-name="quotesinglbase" horiz-adv-x="228" d="M146 107T165 89T184 44Q184 32 181 20T167 -14L100 -156H40L80 -6Q54 14 54 44Q54 70 73 88T119 107Q146 107 165 89Z" />
<glyph unicode="&#x201c;" glyph-name="quotedblleft" horiz-adv-x="406" d="M82 490T63 508T44 553Q44 565 47 577T61 611L128 753H188L148 603Q174 583 174 553Q174 527 155 509T109 490Q82 490 63 508ZM260 490T241 508T222 553Q222 565 225 577T239 611L306
753H366L326 603Q352 583 352 553Q352 527 333 509T287 490Q260 490 241 508Z" />
<glyph unicode="&#x201d;" glyph-name="quotedblright" horiz-adv-x="406" d="M146 753T165 735T184 690Q184 678 181 666T167 632L100 490H40L80 640Q54 660 54 690Q54 716 73 734T119 753Q146 753 165 735ZM324 753T343 735T362 690Q362 678 359 666T345 632L278
490H218L258 640Q232 660 232 690Q232 716 251 734T297 753Q324 753 343 735Z" />
<glyph unicode="&#x201e;" glyph-name="quotedblbase" horiz-adv-x="406" d="M146 107T165 89T184 44Q184 32 181 20T167 -14L100 -156H40L80 -6Q54 14 54 44Q54 70 73 88T119 107Q146 107 165 89ZM324 107T343 89T362 44Q362 32 359 20T345 -14L278 -156H218L258
-6Q232 14 232 44Q232 70 251 88T297 107Q324 107 343 89Z" />
<glyph unicode="&#x2022;" glyph-name="bullet" horiz-adv-x="324" d="M210 454T242 422T274 341Q274 293 242 261T162 229Q114 229 82 261T50 342Q50 390 82 422T162 454Q210 454 242 422Z" />
<glyph unicode="&#x2039;" glyph-name="guilsinglleft" horiz-adv-x="340" d="M230 535L285 497L150 287L285 77L230 39L55 255V318L230 535Z" />
<glyph unicode="&#x203a;" glyph-name="guilsinglright" horiz-adv-x="340" d="M110 535L285 318V255L110 39L55 77L190 287L55 497L110 535Z" />
</font>
</defs>
</svg>
