<?xml version="1.0" standalone="no"?>
<!DOCTYPE svg PUBLIC "-//W3C//DTD SVG 1.1//EN" "http://www.w3.org/Graphics/SVG/1.1/DTD/svg11.dtd">
<svg xmlns="http://www.w3.org/2000/svg">
<defs >
<font id="FiraSans" horiz-adv-x="567" ><font-face
    font-family="Fira Sans Medium"
    units-per-em="1000"
    panose-1="2 11 6 3 5 0 0 2 0 4"
    ascent="935"
    descent="-265"
    alphabetic="0" />
<glyph unicode=" " glyph-name="space" horiz-adv-x="250" />
<glyph unicode="!" glyph-name="exclam" horiz-adv-x="241" d="M188 691L173 244H66L50 691H188ZM154 147T177 124T201 66Q201 33 178 9T120 -15Q86 -15 63 9T39 66Q39 100 62 123T120 147Q154 147 177 124Z" />
<glyph unicode="&quot;" glyph-name="quotedbl" horiz-adv-x="421" d="M71 420L53 691H176L159 420H71ZM263 420L245 691H368L351 420H263Z" />
<glyph unicode="#" glyph-name="numbersign" horiz-adv-x="539" d="M524 443H452L425 240H487V152H413L393 0H286L306 152H181L161 0H55L75 152H15V240H86L113 443H52V532H125L143 673H250L231 532H356L375 673H482L463 532H524V443ZM318 240L345 443H220L193 240H318Z" />
<glyph unicode="$" glyph-name="dollar" horiz-adv-x="541" d="M509 116T461 64T326 -5V-158H228V-10Q100 -2 17 80L85 155Q158 87 254 87Q309 87 343 113T377 186Q377 215 366 234T326 268T245 299Q138 331 91 378T44 499Q44 572 94 620T228 680V827H326V680Q376
673 415 654T490 601L425 528Q392 558 356 572T278 586Q232 586 204 566T175 507Q175 482 186 466T227 435T312 403Q411 372 460 326T509 193Q509 116 461 64Z" />
<glyph unicode="%" glyph-name="percent" horiz-adv-x="844" d="M613 716L696 663L232 -36L150 17L613 716ZM255 685T294 664T355 602T378 510Q378 458 356 418T294 357T207 335Q159 335 121 356T60 418T37 510Q37 562 59 602T120 663T207 685Q255 685 294 664ZM168
605T152 579T135 510Q135 469 151 442T207 415Q279 415 279 510Q279 605 207 605Q168 605 152 579ZM685 335T724 314T785 252T807 160Q807 108 785 68T724 7T637 -15Q589 -15 550 6T489 68T466 160Q466 212 488 252T550 313T637 335Q685 335 724 314ZM598 255T582
229T565 160Q565 119 581 92T637 65Q709 65 709 160Q709 255 637 255Q598 255 582 229Z" />
<glyph unicode="&amp;" glyph-name="ampersand" horiz-adv-x="746" d="M368 706T413 686T483 631T508 550Q508 491 473 448T372 363L526 218Q559 290 579 374L690 341Q653 229 599 150L716 44L613 -15L526 69Q436 -15 306 -15Q236 -15 183 8T99 75T69 176Q69 237
103 282T207 373Q155 424 133 461T110 545Q110 589 132 625T199 684T308 706Q368 706 413 686ZM274 619T254 599T234 545Q234 515 249 491T301 431Q343 458 364 484T385 545Q385 579 365 599T309 619Q274 619 254 599ZM240 277T222 248T203 182Q203 135 236 108T326
80Q365 80 396 93T458 133L280 304Q240 277 222 248Z" />
<glyph unicode="&apos;" glyph-name="quotesingle" horiz-adv-x="230" d="M71 420L53 691H176L159 420H71Z" />
<glyph unicode="(" glyph-name="parenleft" horiz-adv-x="324" d="M300 797Q226 691 193 592T159 350Q159 209 192 109T300 -97L218 -152Q153 -61 116 2T53 152T28 350Q28 461 53 547T115 697T218 852L300 797Z" />
<glyph unicode=")" glyph-name="parenright" horiz-adv-x="324" d="M171 762T208 698T271 548T296 350Q296 238 271 152T209 2T106 -152L25 -97Q98 9 132 109T166 350Q166 491 132 590T25 797L106 852Q171 762 208 698Z" />
<glyph unicode="*" glyph-name="asterisk" horiz-adv-x="444" d="M431 547L284 519L387 411L294 343L222 473L151 343L58 410L159 520L13 547L48 653L182 590L164 741H280L262 590L395 654L431 547Z" />
<glyph unicode="+" glyph-name="plus" horiz-adv-x="516" d="M313 535V382H462V281H313V128H203V281H55V382H203V535H313Z" />
<glyph unicode="," glyph-name="comma" horiz-adv-x="240" d="M154 147T177 124T201 66Q201 47 195 27T175 -24L110 -172H32L73 0Q39 23 39 67Q39 101 62 124T119 147Q154 147 177 124Z" />
<glyph unicode="-" glyph-name="hyphen" horiz-adv-x="405" d="M52 262V364H354V262H52Z" />
<glyph unicode="." glyph-name="period" horiz-adv-x="240" d="M153 147T177 124T201 66Q201 33 177 9T119 -15Q86 -15 63 9T39 66Q39 100 62 123T119 147Q153 147 177 124Z" />
<glyph unicode="/" glyph-name="slash" horiz-adv-x="520" d="M322 812L432 787L199 -108L88 -82L322 812Z" />
<glyph unicode="0" glyph-name="zero" horiz-adv-x="573" d="M404 685T465 595T527 336Q527 166 466 76T286 -15Q168 -15 107 75T45 336Q45 505 106 595T286 685Q404 685 465 595ZM229 588T203 531T177 336Q177 198 203 140T286 82Q343 82 369 139T395 336Q395
474 369 531T286 588Q229 588 203 531Z" />
<glyph unicode="1" glyph-name="one" horiz-adv-x="450" d="M355 673V0H229V544L79 453L23 539L242 673H355Z" />
<glyph unicode="2" glyph-name="two" horiz-adv-x="507" d="M301 685T350 660T426 592T452 496Q452 439 428 387T346 270T179 101H467L453 0H34V94Q162 224 217 286T296 393T320 486Q320 532 294 558T223 584Q184 584 155 568T93 513L15 575Q100 685 233 685Q301
685 350 660Z" />
<glyph unicode="3" glyph-name="three" horiz-adv-x="510" d="M299 685T347 662T420 600T445 514Q445 453 410 413T314 356Q381 350 424 308T467 192Q467 134 438 87T353 13T223 -15Q85 -15 5 82L76 150Q110 116 143 101T216 85Q270 85 302 115T335 198Q335 256
305 281T214 306H161L176 397H212Q261 397 290 424T320 499Q320 540 293 563T221 587Q182 587 150 573T86 528L21 599Q112 685 232 685Q299 685 347 662Z" />
<glyph unicode="4" glyph-name="four" horiz-adv-x="550" d="M525 252V154H444V0H319V154H33V242L229 686L338 645L166 252H320L333 421H444V252H525Z" />
<glyph unicode="5" glyph-name="five" horiz-adv-x="520" d="M439 578H187V411Q237 436 289 436Q345 436 389 410T457 335T482 219Q482 150 451 97T363 15T231 -15Q164 -15 113 9T19 80L92 148Q150 84 228 84Q285 84 317 119T350 219Q350 344 242 344Q219 344
199 339T155 321H64V673H454L439 578Z" />
<glyph unicode="6" glyph-name="six" horiz-adv-x="550" d="M381 448T424 423T493 348T518 229Q518 159 489 104T408 17T288 -15Q164 -15 105 72T45 311Q45 423 78 507T174 638T321 685Q404 685 468 642L420 563Q374 590 323 590Q259 590 221 533T177 374Q238
448 328 448Q381 448 424 423ZM338 80T363 119T389 227Q389 296 366 325T297 355Q263 355 233 337T178 286Q180 177 205 129T288 80Q338 80 363 119Z" />
<glyph unicode="7" glyph-name="seven" horiz-adv-x="457" d="M434 673V583L185 -13L68 25L302 574H18V673H434Z" />
<glyph unicode="8" glyph-name="eight" d="M531 299T531 181Q531 126 500 82T413 11T281 -15Q207 -15 152 10T67 80T37 179Q37 295 165 349Q64 404 64 508Q64 561 93 601T173 663T284 685Q345 685 395 665T474 606T504 513Q504 418 393 361Q531 299 531 181ZM239
595T214 572T188 506Q188 466 212 443T289 400L308 393Q347 417 363 443T380 507Q380 548 355 571T284 595Q239 595 214 572ZM339 80T370 108T401 181Q401 227 374 253T278 305L247 316Q166 273 166 183Q166 135 198 108T284 80Q339 80 370 108Z" />
<glyph unicode="9" glyph-name="nine" horiz-adv-x="544" d="M383 685T444 615T505 424Q505 287 464 200T338 60T113 -25L86 66Q218 101 286 156T368 308Q313 238 224 238Q172 238 129 264T60 341T35 457Q35 526 66 577T150 657T269 685Q383 685 444 615ZM327
331T374 400Q375 503 351 546T269 590Q219 590 191 556T163 459Q163 393 189 362T259 331Q327 331 374 400Z" />
<glyph unicode=":" glyph-name="colon" horiz-adv-x="240" d="M153 147T177 124T201 66Q201 33 177 9T119 -15Q86 -15 63 9T39 66Q39 100 62 123T119 147Q153 147 177 124ZM153 503T177 480T201 422Q201 389 177 365T119 341Q86 341 63 365T39 422Q39 456 62 479T119
503Q153 503 177 480Z" />
<glyph unicode=";" glyph-name="semicolon" horiz-adv-x="240" d="M154 147T177 124T201 66Q201 47 195 27T175 -24L110 -172H32L73 0Q39 23 39 67Q39 101 62 124T119 147Q154 147 177 124ZM153 503T177 480T201 422Q201 389 177 365T119 341Q86 341 63 365T39
422Q39 456 62 479T119 503Q153 503 177 480Z" />
<glyph unicode="&lt;" glyph-name="less" horiz-adv-x="510" d="M427 565L469 470L148 333L469 198L427 101L42 273V392L427 565Z" />
<glyph unicode="=" glyph-name="equal" horiz-adv-x="510" d="M55 381V483H456V381H55ZM55 435V537H456V435H55Z" />
<glyph unicode="&gt;" glyph-name="greater" horiz-adv-x="510" d="M84 565L469 392V273L84 101L42 198L362 333L42 470L84 565Z" />
<glyph unicode="?" glyph-name="question" horiz-adv-x="471" d="M309 706T355 684T426 625T450 544Q450 504 436 476T402 429T350 389Q309 362 289 339T269 278V244H150V283Q150 328 164 359T199 409T251 450Q285 473 300 490T316 534Q316 567 294 585T232 604Q161
604 105 538L22 603Q109 706 243 706Q309 706 355 684ZM245 147T269 124T293 66Q293 33 269 9T211 -15Q178 -15 155 9T131 66Q131 100 154 123T211 147Q245 147 269 124Z" />
<glyph unicode="@" glyph-name="at" horiz-adv-x="1020" d="M662 706T760 652T910 508T962 312Q962 225 938 156T866 46T753 6Q697 6 665 36T622 109Q603 65 567 37T479 9Q393 9 347 70T301 232Q301 357 361 427T527 498Q613 498 693 455V203Q693 141 706 117T749
92Q794 92 818 143T842 310Q842 451 762 530T526 609Q418 609 340 562T220 432T178 241Q178 132 218 51T337 -75T527 -120Q623 -120 721 -85L753 -177Q644 -218 526 -218Q386 -218 280 -162T116 -1T58 241Q58 373 117 479T284 645T526 706Q662 706 760 652ZM529
94T550 114T582 161V401Q555 413 525 413Q473 413 446 370T419 232Q419 161 437 128T495 94Q529 94 550 114Z" />
<glyph unicode="A" glyph-name="A" horiz-adv-x="583" d="M447 0L404 160H175L132 0H-5L210 691H373L587 0H447ZM201 260H377L289 590L201 260Z" />
<glyph unicode="B" glyph-name="B" horiz-adv-x="613" d="M491 353T534 315T578 199Q578 91 502 46T289 0H81V691H262Q548 691 548 515Q548 454 511 416T420 366Q491 353 534 315ZM213 594V407H294Q349 407 381 431T413 504Q413 554 380 574T275 594H213ZM363
99T401 121T440 204Q440 263 404 289T304 315H213V99H290Q363 99 401 121Z" />
<glyph unicode="C" glyph-name="C" horiz-adv-x="568" d="M408 706T455 688T547 633L480 555Q419 604 352 604Q275 604 229 542T182 347Q182 217 228 154T352 91Q393 91 425 105T493 147L555 69Q520 33 467 9T347 -15Q257 -15 188 27T81 150T43 347Q43 460 82
541T190 664T345 706Q408 706 455 688Z" />
<glyph unicode="D" glyph-name="D" horiz-adv-x="648" d="M412 691T508 618T605 349Q605 157 510 79T269 0H81V691H251Q412 691 508 618ZM213 592V99H278Q366 99 416 153T466 349Q466 447 441 500T374 573T274 592H213Z" />
<glyph unicode="E" glyph-name="E" horiz-adv-x="530" d="M482 691L468 593H213V400H435V302H213V99H486V0H81V691H482Z" />
<glyph unicode="F" glyph-name="F" horiz-adv-x="489" d="M81 0V691H472L458 593H213V386H426V288H213V0H81Z" />
<glyph unicode="G" glyph-name="G" horiz-adv-x="638" d="M428 706T480 686T580 625L509 551Q472 580 440 593T364 606Q284 606 233 542T182 346Q182 208 222 147T346 86Q409 86 456 113V293H352L338 391H586V53Q474 -15 348 -15Q200 -15 122 77T43 346Q43 459
85 540T200 664T360 706Q428 706 480 686Z" />
<glyph unicode="H" glyph-name="H" horiz-adv-x="672" d="M459 0V309H213V0H81V691H213V414H459V691H592V0H459Z" />
<glyph unicode="I" glyph-name="I" horiz-adv-x="294" d="M213 691V0H81V691H213Z" />
<glyph unicode="J" glyph-name="J" horiz-adv-x="312" d="M235 101Q235 -10 183 -66T32 -155L-3 -60Q41 -43 63 -22T94 29T102 106V691H235V101Z" />
<glyph unicode="K" glyph-name="K" horiz-adv-x="613" d="M213 691V0H81V691H213ZM601 691L362 378L620 0H463L219 369L458 691H601Z" />
<glyph unicode="L" glyph-name="L" horiz-adv-x="506" d="M213 691V108H490L475 0H81V691H213Z" />
<glyph unicode="M" glyph-name="M" horiz-adv-x="782" d="M736 0H607L589 289Q580 444 580 535V571L454 75H329L195 572Q197 506 197 472Q197 381 191 285L174 0H46L101 691H271L394 207L510 691H682L736 0Z" />
<glyph unicode="N" glyph-name="N" horiz-adv-x="672" d="M591 0H420L183 559Q192 485 196 425T201 282V0H81V691H248L489 131Q483 171 477 236T471 367V691H591V0Z" />
<glyph unicode="O" glyph-name="O" horiz-adv-x="691" d="M439 706T507 664T611 541T648 346Q648 233 611 152T506 28T346 -15Q253 -15 185 27T80 150T43 345Q43 457 80 538T185 663T346 706Q439 706 507 664ZM266 605T224 543T182 345Q182 86 346 86Q426 86 467
148T509 346Q509 481 468 543T346 605Q266 605 224 543Z" />
<glyph unicode="P" glyph-name="P" horiz-adv-x="591" d="M418 691T491 636T565 471Q565 356 491 299T294 241H213V0H81V691H285Q418 691 491 636ZM355 340T391 369T427 471Q427 594 284 594H213V340H284Q355 340 391 369Z" />
<glyph unicode="Q" glyph-name="Q" horiz-adv-x="691" d="M548 42T595 26T684 -20L602 -127Q544 -68 487 -40T339 -12Q250 -12 183 29T80 151T43 345Q43 457 80 538T185 663T346 706Q439 706 507 664T611 541T648 346Q648 227 606 155T487 42Q548 42 595 26ZM182
86T346 86Q426 86 467 148T509 346Q509 481 468 543T346 605Q266 605 224 543T182 345Q182 86 346 86Z" />
<glyph unicode="R" glyph-name="R" horiz-adv-x="611" d="M297 277H213V0H81V691H287Q561 691 561 488Q561 419 527 374T421 301L602 0H450L297 277ZM213 372H295Q358 372 390 399T423 488Q423 544 390 569T284 595H213V372Z" />
<glyph unicode="S" glyph-name="S" horiz-adv-x="560" d="M353 706T407 685T508 621L443 546Q406 577 369 591T288 605Q240 605 211 584T181 523Q181 497 192 480T234 448T323 415Q425 383 476 336T528 197Q528 135 497 87T406 12T266 -15Q187 -15 125 10T17 80L85
156Q125 122 168 105T263 87Q320 87 355 114T390 190Q390 220 378 239T337 274T253 307Q143 341 94 389T45 515Q45 572 75 615T158 682T280 706Q353 706 407 685Z" />
<glyph unicode="T" glyph-name="T" horiz-adv-x="530" d="M525 691L511 586H331V0H198V586H12V691H525Z" />
<glyph unicode="U" glyph-name="U" horiz-adv-x="656" d="M585 226Q585 156 556 102T468 16T327 -15Q203 -15 137 50T71 226V691H203V233Q203 160 233 124T327 88Q391 88 421 124T452 233V691H585V226Z" />
<glyph unicode="V" glyph-name="V" horiz-adv-x="564" d="M568 691L363 0H206L-5 691H137L287 117L433 691H568Z" />
<glyph unicode="W" glyph-name="W" horiz-adv-x="837" d="M821 691L694 0H522L417 551L309 0H142L17 691H148L236 105L349 691H489L600 105L696 691H821Z" />
<glyph unicode="X" glyph-name="X" horiz-adv-x="562" d="M358 373L563 0H416L278 283L141 0H0L200 368L16 691H163L280 452L402 691H543L358 373Z" />
<glyph unicode="Y" glyph-name="Y" horiz-adv-x="574" d="M576 691L354 262V0H220V261L-2 691H144L290 370L436 691H576Z" />
<glyph unicode="Z" glyph-name="Z" horiz-adv-x="534" d="M496 691V589L177 108H499L485 0H23V101L348 586H56V691H496Z" />
<glyph unicode="[" glyph-name="bracketleft" horiz-adv-x="323" d="M287 820V720H169V-21H287V-120H48V820H287Z" />
<glyph unicode="\" glyph-name="backslash" horiz-adv-x="520" d="M198 812L432 -82L321 -108L88 787L198 812Z" />
<glyph unicode="]" glyph-name="bracketright" horiz-adv-x="323" d="M275 820V-120H36V-21H154V721H36V820H275Z" />
<glyph unicode="^" glyph-name="asciicircum" horiz-adv-x="550" d="M333 842L522 527H393L274 741L158 527H28L217 842H333Z" />
<glyph unicode="_" glyph-name="underscore" horiz-adv-x="520" d="M13 -158V-55H507V-158H13Z" />
<glyph unicode="`" glyph-name="grave" horiz-adv-x="322" d="M82 820L292 695L255 630L30 720L82 820Z" />
<glyph unicode="a" glyph-name="a" horiz-adv-x="546" d="M468 109T477 95T508 72L481 -13Q436 -9 408 9T364 64Q337 24 297 5T206 -15Q127 -15 81 30T35 148Q35 234 97 279T276 325H342V355Q342 406 319 426T243 447Q185 447 103 419L73 506Q172 544 265 544Q468
544 468 362V140Q468 109 477 95ZM305 78T342 143V250H289Q165 250 165 158Q165 120 184 99T240 78Q305 78 342 143Z" />
<glyph unicode="b" glyph-name="b" horiz-adv-x="596" d="M443 544T495 471T547 265Q547 183 522 120T449 21T338 -15Q295 -15 260 3T198 54L190 0H77V741L205 755V469Q231 505 268 524T351 544Q443 544 495 471ZM355 81T384 125T413 265Q413 365 386 406T310
448Q249 448 205 376V142Q222 113 247 97T303 81Q355 81 384 125Z" />
<glyph unicode="c" glyph-name="c" horiz-adv-x="478" d="M342 544T383 529T462 482L405 405Q378 425 353 434T298 443Q179 443 179 262Q179 170 210 130T298 89Q326 89 349 98T405 127L462 46Q387 -15 291 -15Q215 -15 159 18T73 114T43 260Q43 344 73 408T159
508T290 544Q342 544 383 529Z" />
<glyph unicode="d" glyph-name="d" horiz-adv-x="599" d="M522 741V0H409L400 67Q375 29 337 7T249 -15Q152 -15 100 60T48 264Q48 345 74 408T148 508T261 544Q337 544 394 487V755L522 741ZM319 82T345 98T394 150V392Q371 420 348 434T293 448Q242 448 213
403T183 265Q183 167 209 125T285 82Q319 82 345 98Z" />
<glyph unicode="e" glyph-name="e" horiz-adv-x="549" d="M511 267T508 225H176Q182 148 216 115T306 82Q341 82 372 93T438 129L491 56Q403 -15 295 -15Q174 -15 109 59T43 261Q43 342 71 406T152 507T278 544Q389 544 450 474T511 277Q511 267 508 225ZM384
314Q384 453 281 453Q234 453 208 419T176 308H384V314Z" />
<glyph unicode="f" glyph-name="f" horiz-adv-x="347" d="M253 658T237 641T220 585V529H347L333 437H220V0H92V437H6V529H92V587Q92 662 140 708T278 755Q348 755 415 724L378 638Q335 658 291 658Q253 658 237 641Z" />
<glyph unicode="g" glyph-name="g" horiz-adv-x="537" d="M537 501Q486 483 384 483Q433 461 456 429T480 347Q480 295 455 255T381 192T267 169Q231 169 204 177Q182 162 182 138Q182 101 246 101H327Q385 101 428 82T496 29T520 -49Q520 -129 452 -173T256 -218Q164
-218 112 -199T37 -144T15 -52H130Q130 -80 140 -96T178 -120T258 -128Q331 -128 361 -110T391 -58Q391 -28 368 -12T301 5H221Q146 5 108 34T70 107Q70 135 86 161T132 205Q84 230 62 266T39 354Q39 411 67 454T144 520T258 544Q342 542 393 556T505 603L537 501ZM217
457T193 430T168 356Q168 308 193 280T262 252Q308 252 332 279T356 357Q356 457 260 457Q217 457 193 430Z" />
<glyph unicode="h" glyph-name="h" horiz-adv-x="581" d="M429 544T469 501T509 383V0H381V363Q381 410 365 429T316 448Q284 448 257 428T205 369V0H77V740L205 753V466Q269 544 359 544Q429 544 469 501Z" />
<glyph unicode="i" glyph-name="i" horiz-adv-x="282" d="M205 529V0H77V529H205ZM176 797T198 775T221 719Q221 686 199 664T140 642Q105 642 83 664T60 719Q60 752 82 774T140 797Q176 797 198 775Z" />
<glyph unicode="j" glyph-name="j" horiz-adv-x="281" d="M204 47Q204 -31 182 -80T118 -160T11 -217L-30 -124Q9 -106 31 -89T64 -41T76 39V529H204V47ZM175 797T197 775T220 719Q220 686 198 664T139 642Q104 642 82 664T59 719Q59 752 81 774T139 797Q175 797
197 775Z" />
<glyph unicode="k" glyph-name="k" horiz-adv-x="534" d="M205 755V0H77V741L205 755ZM522 529L346 296L539 0H392L210 289L387 529H522Z" />
<glyph unicode="l" glyph-name="l" horiz-adv-x="295" d="M141 -15T107 20T72 121V741L200 755V125Q200 88 230 88Q245 88 260 93L287 3Q247 -15 202 -15Q141 -15 107 20Z" />
<glyph unicode="m" glyph-name="m" horiz-adv-x="850" d="M702 544T740 501T778 383V0H650V363Q650 448 592 448Q561 448 539 429T492 368V0H364V363Q364 448 306 448Q274 448 252 429T205 368V0H77V529H188L198 460Q258 544 351 544Q397 544 430 521T479 455Q511
498 549 521T638 544Q702 544 740 501Z" />
<glyph unicode="n" glyph-name="n" horiz-adv-x="581" d="M430 544T469 502T509 383V0H381V363Q381 410 365 429T316 448Q283 448 257 428T205 368V0H77V529H188L198 460Q263 544 359 544Q430 544 469 502Z" />
<glyph unicode="o" glyph-name="o" horiz-adv-x="584" d="M410 544T475 470T541 265Q541 182 511 119T425 20T292 -15Q175 -15 109 59T43 265Q43 348 73 411T159 509T293 544Q410 544 475 470ZM178 447T178 265Q178 171 206 127T292 82Q349 82 377 127T406 265Q406
358 378 402T293 447Q178 447 178 265Z" />
<glyph unicode="p" glyph-name="p" horiz-adv-x="596" d="M451 544T499 471T547 266Q547 184 523 121T451 21T338 -15Q254 -15 205 43V-204L77 -218V529H189L196 464Q227 504 267 524T351 544Q451 544 499 471ZM413 83T413 265Q413 362 388 405T313 448Q281 448
253 429T205 376V138Q242 83 302 83Q413 83 413 265Z" />
<glyph unicode="q" glyph-name="q" horiz-adv-x="599" d="M522 529V-218L394 -204V60Q339 -15 249 -15Q152 -15 100 60T48 264Q48 345 74 408T148 508T261 544Q345 544 404 477L411 529H522ZM319 82T345 98T394 150V392Q371 420 348 434T294 448Q242 448 213 403T183
265Q183 167 209 125T285 82Q319 82 345 98Z" />
<glyph unicode="r" glyph-name="r" horiz-adv-x="394" d="M367 543T391 536L369 412Q345 418 322 418Q275 418 248 385T205 282V0H77V529H188L200 425Q219 482 255 512T338 543Q367 543 391 536Z" />
<glyph unicode="s" glyph-name="s" horiz-adv-x="476" d="M351 544T432 481L382 406Q314 449 249 449Q211 449 190 435T169 396Q169 378 178 366T210 344T280 320Q366 297 407 259T449 153Q449 74 385 30T226 -15Q161 -15 108 5T15 60L79 132Q148 80 223 80Q266
80 291 97T317 144Q317 167 308 180T274 204T197 230Q116 252 78 291T40 390Q40 434 65 469T137 524T244 544Q351 544 432 481Z" />
<glyph unicode="t" glyph-name="t" horiz-adv-x="375" d="M380 25Q352 5 318 -5T247 -15Q169 -14 129 29T88 158V437H5V529H88V646L216 661V529H339L326 437H216V161Q216 122 229 105T272 88Q301 88 335 107L380 25Z" />
<glyph unicode="u" glyph-name="u" horiz-adv-x="577" d="M500 0H389L382 74Q353 29 314 7T220 -15Q149 -15 111 28T72 149V529H200V165Q200 120 215 101T265 82Q326 82 372 157V529H500V0Z" />
<glyph unicode="v" glyph-name="v" horiz-adv-x="504" d="M502 529L330 0H177L2 529H141L254 103L370 529H502Z" />
<glyph unicode="w" glyph-name="w" horiz-adv-x="734" d="M723 529L608 0H448L368 415L286 0H129L12 529H140L214 94L306 529H437L521 94L600 529H723Z" />
<glyph unicode="x" glyph-name="x" horiz-adv-x="500" d="M326 283L503 0H355L246 210L138 0H-3L173 279L15 529H161L251 349L340 529H479L326 283Z" />
<glyph unicode="y" glyph-name="y" horiz-adv-x="506" d="M333 -2Q301 -100 236 -154T58 -218L45 -125Q97 -117 128 -103T179 -64T214 0H170L2 529H138L253 85L373 529H505L333 -2Z" />
<glyph unicode="z" glyph-name="z" horiz-adv-x="449" d="M421 529V437L165 100H426L413 0H18V92L275 429H40V529H421Z" />
<glyph unicode="{" glyph-name="braceleft" horiz-adv-x="323" d="M288 746Q241 746 223 732T204 682V472Q204 414 182 388T113 349Q160 337 182 311T204 228V18Q204 -17 223 -31T288 -46V-138Q210 -138 166 -121T103 -70T84 19V218Q84 262 70 279T17 297V402Q55
402 69 420T84 482V681Q84 737 102 771T165 821T288 838V746Z" />
<glyph unicode="|" glyph-name="bar" horiz-adv-x="388" d="M253 809V-104H135V809H253Z" />
<glyph unicode="}" glyph-name="braceright" horiz-adv-x="323" d="M114 838T158 822T220 771T239 681V482Q239 438 253 420T307 402V297Q268 297 254 280T239 218V19Q239 -36 221 -70T158 -121T35 -138V-46Q81 -46 100 -32T119 18V228Q119 285 141 311T210 349Q163
362 141 388T119 472V682Q119 717 101 731T35 746V838Q114 838 158 822Z" />
<glyph unicode="~" glyph-name="asciitilde" horiz-adv-x="502" d="M298 240T275 249T223 277Q204 289 192 295T166 301Q143 301 128 288T96 249L25 285Q82 398 175 398Q206 398 229 389T279 362Q298 350 311 344T338 338Q360 338 376 350T408 386L477 349Q423
240 330 240Q298 240 275 249Z" />
<glyph unicode="&#xa0;" glyph-name="uni00A0" horiz-adv-x="250" />
<glyph unicode="&#xa1;" glyph-name="exclamdown" horiz-adv-x="241" d="M154 503T177 479T201 422Q201 388 178 365T121 341Q87 341 63 364T39 422Q39 455 63 479T121 503Q154 503 177 479ZM174 241L190 -206H52L68 241H174Z" />
<glyph unicode="&#xa2;" glyph-name="cent" horiz-adv-x="478" d="M462 46Q408 1 338 -11V-158H239V-11Q147 6 95 77T43 260Q43 373 95 448T240 540V688H338V541Q406 529 462 482L405 405Q378 425 353 434T298 443Q179 443 179 262Q179 170 210 130T298 89Q326
89 349 98T405 127L462 46Z" />
<glyph unicode="&#xa3;" glyph-name="sterling" horiz-adv-x="531" d="M242 176T229 148T179 100H492L477 0H33V95Q69 107 86 122T110 159T116 220V316H49V388H116V487Q116 575 169 630T318 685Q380 685 427 663T511 593L431 533Q409 561 385 573T329 586Q286
586 264 561T242 487V388H437V316H242V224Q242 176 229 148Z" />
<glyph unicode="&#xa4;" glyph-name="currency" horiz-adv-x="560" d="M497 273T462 221L538 146L475 83L397 159Q346 128 279 128Q216 128 163 160L84 83L23 146L100 223Q66 274 66 341Q66 406 99 459L23 538L86 601L164 522Q215 554 279 554Q347 554 398 523L476
601L538 538L462 461Q497 409 497 341Q497 273 462 221ZM334 219T362 251T390 342Q390 400 362 432T281 464Q228 464 201 432T173 342Q173 284 200 252T281 219Q334 219 362 251Z" />
<glyph unicode="&#xa5;" glyph-name="yen" horiz-adv-x="554" d="M555 673L372 349H477V276H341V196H477V124H341V0H213V124H78V196H213V276H78V349H182L-2 673H136L280 385L422 673H555Z" />
<glyph unicode="&#xa6;" glyph-name="brokenbar" horiz-adv-x="388" d="M253 809V443H135V809H253ZM253 262V-104H135V262H253Z" />
<glyph unicode="&#xa7;" glyph-name="section" horiz-adv-x="542" d="M433 157T446 133T459 75Q459 6 402 -36T249 -78Q147 -78 68 -25L112 53Q173 15 246 15Q287 15 311 29T335 68Q335 89 326 101T292 126T214 155Q134 180 97 212T60 304Q60 342 81 373T139 426Q111
446 98 471T85 531Q85 600 140 641T287 683Q392 683 470 628L426 553Q362 592 292 592Q251 592 230 578T208 537Q208 517 217 504T251 479T327 450Q407 424 444 390T482 300Q482 262 461 231T405 178Q433 157 446 133ZM334 215Q350 231 358 249T367 283Q367 303
359 317T328 342T264 369Q236 378 206 390Q192 374 184 356T176 322Q176 291 194 275T262 242L334 215Z" />
<glyph unicode="&#xa8;" glyph-name="dieresis" horiz-adv-x="422" d="M129 785T149 765T169 716Q169 687 149 667T100 647Q70 647 50 667T29 716Q29 745 49 765T100 785Q129 785 149 765ZM351 785T371 765T391 716Q391 687 371 667T321 647Q292 647 272 667T251
716Q251 745 271 765T321 785Q351 785 371 765Z" />
<glyph unicode="&#xa9;" glyph-name="copyright" horiz-adv-x="810" d="M496 758T570 717T688 601T732 433Q732 340 689 266T571 151T406 109Q316 109 241 150T122 266T78 433Q78 526 122 600T241 716T406 758Q496 758 570 717ZM335 691T278 659T189 567T156 433Q156
358 188 300T278 209T406 177Q477 177 533 209T622 299T655 433Q655 508 623 567T533 658T406 691Q335 691 278 659ZM478 628T532 582L490 527Q472 541 455 547T416 553Q379 553 357 524T334 434Q334 374 355 345T415 316Q439 316 458 323T497 347L536 290Q481
240 409 240Q331 240 285 291T238 434Q238 494 260 538T321 605T408 628Q478 628 532 582Z" />
<glyph unicode="&#xaa;" glyph-name="ordfeminine" horiz-adv-x="500" d="M298 527V544Q298 579 282 592T224 605Q176 605 113 584L85 662Q166 691 243 691Q332 691 373 656T415 550V396Q415 373 422 363T445 347L420 269Q383 272 359 285T320 325Q278 267 193
267Q130 267 93 302T55 392Q55 457 106 492T252 527H298ZM272 352T298 389V460H264Q176 460 176 400Q176 377 189 365T228 352Q272 352 298 389ZM61 102H455V0H61V102Z" />
<glyph unicode="&#xab;" glyph-name="guillemotleft" horiz-adv-x="604" d="M228 547L306 494L174 286L306 77L228 25L45 244V327L228 547ZM481 547L559 494L427 286L559 77L481 25L298 244V327L481 547Z" />
<glyph unicode="&#xac;" glyph-name="logicalnot" horiz-adv-x="517" d="M462 377V126H353V275H55V377H462Z" />
<glyph unicode="&#xad;" glyph-name="uni00AD" horiz-adv-x="405" d="M52 262V364H354V262H52Z" />
<glyph unicode="&#xae;" glyph-name="registered" horiz-adv-x="639" d="M394 755T454 720T550 624T585 488Q585 414 551 354T455 259T319 224Q245 224 185 258T89 353T54 488Q54 562 89 623T185 720T319 755Q394 755 454 720ZM377 283T422 309T492 381T517 488Q517
549 492 596T422 669T319 696Q263 696 218 670T148 596T122 488Q122 428 147 382T217 309T319 283Q377 283 422 309ZM430 520T414 501T369 471L443 355H368L309 459H286V355H221V634H302Q430 634 430 548Q430 520 414 501ZM286 511H315Q364 511 364 549Q364 585
314 585H286V511Z" />
<glyph unicode="&#xaf;" glyph-name="overscore" horiz-adv-x="351" d="M321 661H30V752H321V661Z" />
<glyph unicode="&#xb0;" glyph-name="degree" horiz-adv-x="522" d="M175 375T136 395T72 453T47 541Q47 591 71 628T135 686T218 706Q263 706 302 686T366 629T390 540Q390 490 366 453T302 395T218 375Q175 375 136 395ZM252 453T274 476T296 540Q296 581 274
604T218 628Q184 628 163 605T141 541Q141 500 162 477T218 453Q252 453 274 476Z" />
<glyph unicode="&#xb1;" glyph-name="plusminus" horiz-adv-x="517" d="M58 0V102H459V0H58ZM314 585V432H463V331H314V178H204V331H56V432H204V585H314Z" />
<glyph unicode="&#xb2;" glyph-name="uni00B2" horiz-adv-x="400" d="M265 749T305 714T345 626Q345 593 330 564T279 496T172 398H354L344 321H60V392Q140 467 176 504T227 567T242 617Q242 643 227 657T185 672Q161 672 143 662T104 629L45 676Q103 749 195
749Q265 749 305 714Z" />
<glyph unicode="&#xb3;" glyph-name="uni00B3" horiz-adv-x="400" d="M267 749T305 719T344 641Q344 604 321 579T254 543Q301 539 330 514T359 441Q359 385 314 348T191 310Q97 310 41 374L97 427Q117 406 138 397T185 387Q217 387 236 402T255 447Q255 478 237
492T182 506H146L158 574H182Q212 574 229 588T246 627Q246 650 230 662T187 675Q143 675 101 639L51 692Q112 749 198 749Q267 749 305 719Z" />
<glyph unicode="&#xb4;" glyph-name="acute" horiz-adv-x="322" d="M240 820L292 720L66 630L30 695L240 820Z" />
<glyph unicode="&#xb5;" glyph-name="uni00B5" horiz-adv-x="585" d="M408 -15Q398 8 393 27T384 76Q362 38 331 14T263 -10Q231 -10 210 0T171 36Q186 2 193 -28T200 -105V-204L77 -217V529H205V162Q205 88 268 88Q332 88 373 166V529H501V181Q501 81 526 0L408 -15Z" />
<glyph unicode="&#xb6;" glyph-name="paragraph" horiz-adv-x="763" d="M637 691V-203L524 -219V598H422V-203L309 -219V272Q194 276 135 333T76 482Q76 581 144 636T332 691H637Z" />
<glyph unicode="&#xb7;" glyph-name="middot" horiz-adv-x="240" d="M153 390T177 367T201 309Q201 276 177 252T119 228Q86 228 63 252T39 309Q39 343 62 366T119 390Q153 390 177 367Z" />
<glyph unicode="&#xb8;" glyph-name="cedilla" horiz-adv-x="300" d="M171 -52Q221 -57 245 -81T270 -144Q270 -194 232 -223T133 -253Q102 -253 75 -246T30 -225L61 -162Q91 -178 124 -178Q173 -178 173 -144Q173 -124 152 -115T82 -106L97 16H171V-52Z" />
<glyph unicode="&#xb9;" glyph-name="uni00B9" horiz-adv-x="400" d="M288 740V321H190V644L95 587L51 654L199 740H288Z" />
<glyph unicode="&#xba;" glyph-name="ordmasculine" horiz-adv-x="500" d="M347 691T401 635T455 479Q455 383 401 325T250 267Q154 267 100 323T45 480Q45 576 100 633T251 691Q347 691 401 635ZM209 604T189 574T168 480Q168 415 188 385T250 354Q292 354 312
384T332 479Q332 544 312 574T251 604Q209 604 189 574ZM50 0V102H451V0H50Z" />
<glyph unicode="&#xbb;" glyph-name="guillemotright" horiz-adv-x="598" d="M123 547L306 327V244L123 25L45 77L176 286L45 494L123 547ZM371 547L554 327V244L371 25L293 77L424 286L293 494L371 547Z" />
<glyph unicode="&#xbc;" glyph-name="onequarter" horiz-adv-x="952" d="M288 691V272H190V595L95 538L51 605L199 691H288ZM642 755L719 717L310 -82L233 -44L642 755ZM919 164V90H869V0H774L773 90H584V157L709 428L793 397L687 164H774L789 263H869V164H919Z" />
<glyph unicode="&#xbd;" glyph-name="onehalf" horiz-adv-x="952" d="M288 691V272H190V595L95 538L51 605L199 691H288ZM642 755L719 717L310 -82L233 -44L642 755ZM817 428T857 393T897 305Q897 272 882 243T831 175T724 77H906L896 0H612V71Q692 146 728 183T779
246T794 296Q794 322 779 336T737 351Q713 351 695 341T656 308L597 355Q655 428 747 428Q817 428 857 393Z" />
<glyph unicode="&#xbe;" glyph-name="threequarters" horiz-adv-x="952" d="M267 700T305 670T344 592Q344 555 321 530T254 494Q301 490 330 465T359 392Q359 336 314 299T191 261Q97 261 41 325L97 378Q117 357 138 348T185 338Q217 338 236 353T255 398Q255
429 237 443T182 457H146L158 525H182Q212 525 229 539T246 578Q246 601 230 613T187 626Q143 626 101 590L51 643Q112 700 198 700Q267 700 305 670ZM642 755L719 717L310 -82L233 -44L642 755ZM919 164V90H869V0H774L773 90H584V157L709 428L793 397L687 164H774L789
263H869V164H919Z" />
<glyph unicode="&#xbf;" glyph-name="questiondown" horiz-adv-x="471" d="M226 341T203 364T179 422Q179 455 202 479T260 503Q293 503 316 479T340 422Q340 388 317 365T260 341Q226 341 203 364ZM162 -219T116 -197T46 -138T22 -57Q22 -17 36 11T69 57T122
98Q163 125 182 147T202 206V241H322V201Q322 156 308 126T273 77T221 37Q187 15 171 -2T155 -47Q155 -80 177 -98T239 -117Q310 -117 366 -51L450 -116Q361 -219 228 -219Q162 -219 116 -197Z" />
<glyph unicode="&#xc0;" glyph-name="Agrave" horiz-adv-x="583" d="M447 0L404 160H175L132 0H-5L210 691H373L587 0H447ZM201 260H377L289 590L201 260ZM205 936L417 819L384 753L155 836L205 936Z" />
<glyph unicode="&#xc1;" glyph-name="Aacute" horiz-adv-x="583" d="M447 0L404 160H175L132 0H-5L210 691H373L587 0H447ZM201 260H377L289 590L201 260ZM373 936L423 836L194 753L161 819L373 936Z" />
<glyph unicode="&#xc2;" glyph-name="Acircumflex" horiz-adv-x="583" d="M447 0L404 160H175L132 0H-5L210 691H373L587 0H447ZM201 260H377L289 590L201 260ZM161 757L112 812L251 933H331L470 812L421 757L291 839L161 757Z" />
<glyph unicode="&#xc3;" glyph-name="Atilde" horiz-adv-x="583" d="M447 0L404 160H175L132 0H-5L210 691H373L587 0H447ZM201 260H377L289 590L201 260ZM329 770T314 777T278 798Q263 808 254 812T235 817Q218 817 207 807T182 772L113 806Q133 853 163 881T233
910Q255 910 270 903T307 883Q320 873 329 869T349 864Q364 864 376 874T402 907L470 873Q450 825 419 798T350 770Q329 770 314 777Z" />
<glyph unicode="&#xc4;" glyph-name="Adieresis" horiz-adv-x="583" d="M447 0L404 160H175L132 0H-5L210 691H373L587 0H447ZM201 260H377L289 590L201 260ZM210 911T230 891T250 842Q250 813 230 793T181 773Q151 773 131 793T110 842Q110 871 130 891T181 911Q210
911 230 891ZM432 911T452 891T472 842Q472 813 452 793T402 773Q373 773 353 793T332 842Q332 871 352 891T402 911Q432 911 452 891Z" />
<glyph unicode="&#xc5;" glyph-name="Aring" horiz-adv-x="583" d="M447 0L404 160H175L132 0H-5L210 691H373L587 0H447ZM201 260H377L289 590L201 260ZM349 979T384 945T419 859Q419 809 384 774T292 739Q235 739 200 774T164 859Q164 910 199 944T292 979Q349
979 384 945ZM269 912T256 898T243 859Q243 834 256 821T292 807Q314 807 327 820T340 859Q340 884 327 898T292 912Q269 912 256 898Z" />
<glyph unicode="&#xc6;" glyph-name="AE" horiz-adv-x="832" d="M560 99H790V0H451L419 160H179L122 0H-18L255 691H751L736 593H448L492 399H742V301H514L560 99ZM214 260H399L332 591L214 260Z" />
<glyph unicode="&#xc7;" glyph-name="Ccedilla" horiz-adv-x="568" d="M524 38T480 16T380 -13V-52Q430 -57 454 -81T479 -144Q479 -194 441 -223T342 -253Q311 -253 284 -246T239 -225L270 -162Q300 -178 333 -178Q382 -178 382 -144Q382 -124 361 -115T291 -106L303
-12Q184 3 114 96T43 347Q43 460 82 541T190 664T345 706Q408 706 455 688T547 633L480 555Q419 604 352 604Q275 604 229 542T182 347Q182 217 228 154T352 91Q393 91 425 105T493 147L555 69Q524 38 480 16Z" />
<glyph unicode="&#xc8;" glyph-name="Egrave" horiz-adv-x="530" d="M482 691L468 593H213V400H435V302H213V99H486V0H81V691H482ZM197 936L409 819L376 753L147 836L197 936Z" />
<glyph unicode="&#xc9;" glyph-name="Eacute" horiz-adv-x="530" d="M482 691L468 593H213V400H435V302H213V99H486V0H81V691H482ZM365 936L415 836L186 753L153 819L365 936Z" />
<glyph unicode="&#xca;" glyph-name="Ecircumflex" horiz-adv-x="530" d="M482 691L468 593H213V400H435V302H213V99H486V0H81V691H482ZM153 757L104 812L243 933H323L462 812L413 757L283 839L153 757Z" />
<glyph unicode="&#xcb;" glyph-name="Edieresis" horiz-adv-x="530" d="M482 691L468 593H213V400H435V302H213V99H486V0H81V691H482ZM202 911T222 891T242 842Q242 813 222 793T173 773Q143 773 123 793T102 842Q102 871 122 891T173 911Q202 911 222 891ZM424
911T444 891T464 842Q464 813 444 793T394 773Q365 773 345 793T324 842Q324 871 344 891T394 911Q424 911 444 891Z" />
<glyph unicode="&#xcc;" glyph-name="Igrave" horiz-adv-x="294" d="M213 691V0H81V691H213ZM60 936L272 819L239 753L10 836L60 936Z" />
<glyph unicode="&#xcd;" glyph-name="Iacute" horiz-adv-x="294" d="M213 691V0H81V691H213ZM228 936L278 836L49 753L16 819L228 936Z" />
<glyph unicode="&#xce;" glyph-name="Icircumflex" horiz-adv-x="294" d="M213 691V0H81V691H213ZM16 757L-33 812L106 933H186L325 812L276 757L146 839L16 757Z" />
<glyph unicode="&#xcf;" glyph-name="Idieresis" horiz-adv-x="294" d="M213 691V0H81V691H213ZM65 911T85 891T105 842Q105 813 85 793T36 773Q6 773 -14 793T-35 842Q-35 871 -15 891T36 911Q65 911 85 891ZM287 911T307 891T327 842Q327 813 307 793T257 773Q228
773 208 793T187 842Q187 871 207 891T257 911Q287 911 307 891Z" />
<glyph unicode="&#xd0;" glyph-name="Eth" horiz-adv-x="661" d="M425 691T521 618T618 349Q618 157 523 79T282 0H94V310H17V396H94V691H264Q425 691 521 618ZM379 99T429 153T479 349Q479 447 454 500T387 573T287 592H226V396H371V310H226V99H291Q379 99 429 153Z" />
<glyph unicode="&#xd1;" glyph-name="Ntilde" horiz-adv-x="672" d="M591 0H420L183 559Q192 485 196 425T201 282V0H81V691H248L489 131Q483 171 477 236T471 367V691H591V0ZM381 770T366 777T330 798Q315 808 306 812T287 817Q270 817 259 807T234 772L165 806Q185
853 215 881T285 910Q307 910 322 903T359 883Q372 873 381 869T401 864Q416 864 428 874T454 907L522 873Q502 825 471 798T402 770Q381 770 366 777Z" />
<glyph unicode="&#xd2;" glyph-name="Ograve" horiz-adv-x="691" d="M439 706T507 664T611 541T648 346Q648 233 611 152T506 28T346 -15Q253 -15 185 27T80 150T43 345Q43 457 80 538T185 663T346 706Q439 706 507 664ZM266 605T224 543T182 345Q182 86 346 86Q426
86 467 148T509 346Q509 481 468 543T346 605Q266 605 224 543ZM259 936L471 819L438 753L209 836L259 936Z" />
<glyph unicode="&#xd3;" glyph-name="Oacute" horiz-adv-x="691" d="M439 706T507 664T611 541T648 346Q648 233 611 152T506 28T346 -15Q253 -15 185 27T80 150T43 345Q43 457 80 538T185 663T346 706Q439 706 507 664ZM266 605T224 543T182 345Q182 86 346 86Q426
86 467 148T509 346Q509 481 468 543T346 605Q266 605 224 543ZM427 936L477 836L248 753L215 819L427 936Z" />
<glyph unicode="&#xd4;" glyph-name="Ocircumflex" horiz-adv-x="691" d="M439 706T507 664T611 541T648 346Q648 233 611 152T506 28T346 -15Q253 -15 185 27T80 150T43 345Q43 457 80 538T185 663T346 706Q439 706 507 664ZM266 605T224 543T182 345Q182 86
346 86Q426 86 467 148T509 346Q509 481 468 543T346 605Q266 605 224 543ZM215 757L166 812L305 933H385L524 812L475 757L345 839L215 757Z" />
<glyph unicode="&#xd5;" glyph-name="Otilde" horiz-adv-x="691" d="M439 706T507 664T611 541T648 346Q648 233 611 152T506 28T346 -15Q253 -15 185 27T80 150T43 345Q43 457 80 538T185 663T346 706Q439 706 507 664ZM266 605T224 543T182 345Q182 86 346 86Q426
86 467 148T509 346Q509 481 468 543T346 605Q266 605 224 543ZM383 770T368 777T332 798Q317 808 308 812T289 817Q272 817 261 807T236 772L167 806Q187 853 217 881T287 910Q309 910 324 903T361 883Q374 873 383 869T403 864Q418 864 430 874T456 907L524 873Q504
825 473 798T404 770Q383 770 368 777Z" />
<glyph unicode="&#xd6;" glyph-name="Odieresis" horiz-adv-x="691" d="M439 706T507 664T611 541T648 346Q648 233 611 152T506 28T346 -15Q253 -15 185 27T80 150T43 345Q43 457 80 538T185 663T346 706Q439 706 507 664ZM266 605T224 543T182 345Q182 86 346
86Q426 86 467 148T509 346Q509 481 468 543T346 605Q266 605 224 543ZM264 911T284 891T304 842Q304 813 284 793T235 773Q205 773 185 793T164 842Q164 871 184 891T235 911Q264 911 284 891ZM486 911T506 891T526 842Q526 813 506 793T456 773Q427 773 407 793T386
842Q386 871 406 891T456 911Q486 911 506 891Z" />
<glyph unicode="&#xd7;" glyph-name="multiply" horiz-adv-x="510" d="M374 499L447 426L329 309L447 188L374 115L257 237L136 115L63 188L181 304L63 426L136 499L253 376L374 499Z" />
<glyph unicode="&#xd8;" glyph-name="Oslash" horiz-adv-x="691" d="M572 626T610 544T648 346Q648 233 611 152T506 28T346 -15Q320 -15 288 -10L252 -131L149 -104L190 24Q119 66 81 147T43 345Q43 457 80 538T185 663T346 706Q378 706 402 702L439 824L543
796L502 667Q572 626 610 544ZM266 605T224 543T182 345Q182 179 240 123L384 602Q366 605 346 605Q266 605 224 543ZM426 86T467 148T509 346Q509 434 495 488T450 570L307 89Q325 86 346 86Q426 86 467 148Z" />
<glyph unicode="&#xd9;" glyph-name="Ugrave" horiz-adv-x="656" d="M585 226Q585 156 556 102T468 16T327 -15Q203 -15 137 50T71 226V691H203V233Q203 160 233 124T327 88Q391 88 421 124T452 233V691H585V226ZM241 936L453 819L420 753L191 836L241 936Z" />
<glyph unicode="&#xda;" glyph-name="Uacute" horiz-adv-x="656" d="M585 226Q585 156 556 102T468 16T327 -15Q203 -15 137 50T71 226V691H203V233Q203 160 233 124T327 88Q391 88 421 124T452 233V691H585V226ZM409 936L459 836L230 753L197 819L409 936Z" />
<glyph unicode="&#xdb;" glyph-name="Ucircumflex" horiz-adv-x="656" d="M585 226Q585 156 556 102T468 16T327 -15Q203 -15 137 50T71 226V691H203V233Q203 160 233 124T327 88Q391 88 421 124T452 233V691H585V226ZM197 757L148 812L287 933H367L506 812L457
757L327 839L197 757Z" />
<glyph unicode="&#xdc;" glyph-name="Udieresis" horiz-adv-x="656" d="M585 226Q585 156 556 102T468 16T327 -15Q203 -15 137 50T71 226V691H203V233Q203 160 233 124T327 88Q391 88 421 124T452 233V691H585V226ZM246 911T266 891T286 842Q286 813 266 793T217
773Q187 773 167 793T146 842Q146 871 166 891T217 911Q246 911 266 891ZM468 911T488 891T508 842Q508 813 488 793T438 773Q409 773 389 793T368 842Q368 871 388 891T438 911Q468 911 488 891Z" />
<glyph unicode="&#xdd;" glyph-name="Yacute" horiz-adv-x="574" d="M576 691L354 262V0H220V261L-2 691H144L290 370L436 691H576ZM368 936L418 836L189 753L156 819L368 936Z" />
<glyph unicode="&#xde;" glyph-name="Thorn" horiz-adv-x="591" d="M419 578T492 523T565 355Q565 237 491 179T294 120H213V0H81V691H213V578H285Q419 578 492 523ZM355 219T391 249T427 355Q427 421 391 451T284 481H213V219H284Q355 219 391 249Z" />
<glyph unicode="&#xdf;" glyph-name="germandbls" horiz-adv-x="600" d="M357 755T401 736T468 683T492 608Q492 569 476 546T429 494Q407 475 397 461T386 429Q386 407 402 391T452 352Q489 326 513 305T554 248T572 164Q572 110 547 69T477 7T381 -15Q318 -15
270 10L308 98Q331 85 366 85Q400 85 420 106T440 166Q440 193 429 214T403 249T358 285Q315 316 294 342T272 412Q272 447 285 467T324 512Q347 533 358 550T370 595Q370 626 349 643T295 661Q205 661 205 538V0H77V536Q77 640 134 697T297 755Q357 755 401 736Z"
/>
<glyph unicode="&#xe0;" glyph-name="agrave" horiz-adv-x="546" d="M468 109T477 95T508 72L481 -13Q436 -9 408 9T364 64Q337 24 297 5T206 -15Q127 -15 81 30T35 148Q35 234 97 279T276 325H342V355Q342 406 319 426T243 447Q185 447 103 419L73 506Q172 544
265 544Q468 544 468 362V140Q468 109 477 95ZM305 78T342 143V250H289Q165 250 165 158Q165 120 184 99T240 78Q305 78 342 143ZM197 820L407 695L370 630L145 720L197 820Z" />
<glyph unicode="&#xe1;" glyph-name="aacute" horiz-adv-x="546" d="M468 109T477 95T508 72L481 -13Q436 -9 408 9T364 64Q337 24 297 5T206 -15Q127 -15 81 30T35 148Q35 234 97 279T276 325H342V355Q342 406 319 426T243 447Q185 447 103 419L73 506Q172 544
265 544Q468 544 468 362V140Q468 109 477 95ZM305 78T342 143V250H289Q165 250 165 158Q165 120 184 99T240 78Q305 78 342 143ZM342 820L394 720L168 630L132 695L342 820Z" />
<glyph unicode="&#xe2;" glyph-name="acircumflex" horiz-adv-x="546" d="M468 109T477 95T508 72L481 -13Q436 -9 408 9T364 64Q337 24 297 5T206 -15Q127 -15 81 30T35 148Q35 234 97 279T276 325H342V355Q342 406 319 426T243 447Q185 447 103 419L73 506Q172
544 265 544Q468 544 468 362V140Q468 109 477 95ZM305 78T342 143V250H289Q165 250 165 158Q165 120 184 99T240 78Q305 78 342 143ZM136 627L87 682L225 808H306L445 682L396 627L266 715L136 627Z" />
<glyph unicode="&#xe3;" glyph-name="atilde" horiz-adv-x="546" d="M468 109T477 95T508 72L481 -13Q436 -9 408 9T364 64Q337 24 297 5T206 -15Q127 -15 81 30T35 148Q35 234 97 279T276 325H342V355Q342 406 319 426T243 447Q185 447 103 419L73 506Q172 544
265 544Q468 544 468 362V140Q468 109 477 95ZM305 78T342 143V250H289Q165 250 165 158Q165 120 184 99T240 78Q305 78 342 143ZM303 644T288 651T252 672Q237 682 228 686T209 691Q192 691 181 681T156 646L87 680Q107 727 137 755T207 784Q229 784 244 777T281
757Q294 747 303 743T323 738Q338 738 350 748T376 781L444 747Q424 699 393 672T324 644Q303 644 288 651Z" />
<glyph unicode="&#xe4;" glyph-name="adieresis" horiz-adv-x="546" d="M468 109T477 95T508 72L481 -13Q436 -9 408 9T364 64Q337 24 297 5T206 -15Q127 -15 81 30T35 148Q35 234 97 279T276 325H342V355Q342 406 319 426T243 447Q185 447 103 419L73 506Q172
544 265 544Q468 544 468 362V140Q468 109 477 95ZM305 78T342 143V250H289Q165 250 165 158Q165 120 184 99T240 78Q305 78 342 143ZM184 785T204 765T224 716Q224 687 204 667T155 647Q125 647 105 667T84 716Q84 745 104 765T155 785Q184 785 204 765ZM406 785T426
765T446 716Q446 687 426 667T376 647Q347 647 327 667T306 716Q306 745 326 765T376 785Q406 785 426 765Z" />
<glyph unicode="&#xe5;" glyph-name="aring" horiz-adv-x="546" d="M468 109T477 95T508 72L481 -13Q436 -9 408 9T364 64Q337 24 297 5T206 -15Q127 -15 81 30T35 148Q35 234 97 279T276 325H342V355Q342 406 319 426T243 447Q185 447 103 419L73 506Q172 544
265 544Q468 544 468 362V140Q468 109 477 95ZM305 78T342 143V250H289Q165 250 165 158Q165 120 184 99T240 78Q305 78 342 143ZM323 853T358 819T393 733Q393 683 358 648T266 613Q209 613 174 648T138 733Q138 784 173 818T266 853Q323 853 358 819ZM243 786T230
772T217 733Q217 708 230 695T266 681Q288 681 301 694T314 733Q314 758 301 772T266 786Q243 786 230 772Z" />
<glyph unicode="&#xe6;" glyph-name="ae" horiz-adv-x="852" d="M814 246T811 225H480Q486 148 519 115T609 82Q644 82 675 93T741 129L795 56Q705 -15 598 -15Q531 -15 480 9T397 78Q362 28 316 7T209 -15Q129 -15 82 30T35 148Q35 234 98 279T280 325H347V355Q347
405 324 425T248 446Q191 446 107 418L78 506Q177 544 269 544Q381 544 430 470Q490 544 590 544Q694 544 754 473T814 277Q814 246 811 225ZM688 314Q686 453 584 453Q537 453 511 419T479 308H688V314ZM281 78T308 97T361 155Q350 195 348 244V248H295Q171 248
171 156Q171 118 190 98T246 78Q281 78 308 97Z" />
<glyph unicode="&#xe7;" glyph-name="ccedilla" horiz-adv-x="478" d="M397 -7T317 -14V-52Q367 -57 391 -81T416 -144Q416 -194 378 -223T279 -253Q248 -253 221 -246T176 -225L207 -162Q237 -178 270 -178Q319 -178 319 -144Q319 -124 298 -115T228 -106L240
-11Q147 6 95 77T43 260Q43 344 73 408T159 508T290 544Q342 544 383 529T462 482L405 405Q378 425 353 434T298 443Q179 443 179 262Q179 170 210 130T298 89Q326 89 349 98T405 127L462 46Q397 -7 317 -14Z" />
<glyph unicode="&#xe8;" glyph-name="egrave" horiz-adv-x="549" d="M511 267T508 225H176Q182 148 216 115T306 82Q341 82 372 93T438 129L491 56Q403 -15 295 -15Q174 -15 109 59T43 261Q43 342 71 406T152 507T278 544Q389 544 450 474T511 277Q511 267 508
225ZM384 314Q384 453 281 453Q234 453 208 419T176 308H384V314ZM212 820L422 695L385 630L160 720L212 820Z" />
<glyph unicode="&#xe9;" glyph-name="eacute" horiz-adv-x="549" d="M511 267T508 225H176Q182 148 216 115T306 82Q341 82 372 93T438 129L491 56Q403 -15 295 -15Q174 -15 109 59T43 261Q43 342 71 406T152 507T278 544Q389 544 450 474T511 277Q511 267 508
225ZM384 314Q384 453 281 453Q234 453 208 419T176 308H384V314ZM357 820L409 720L183 630L147 695L357 820Z" />
<glyph unicode="&#xea;" glyph-name="ecircumflex" horiz-adv-x="549" d="M511 267T508 225H176Q182 148 216 115T306 82Q341 82 372 93T438 129L491 56Q403 -15 295 -15Q174 -15 109 59T43 261Q43 342 71 406T152 507T278 544Q389 544 450 474T511 277Q511 267
508 225ZM384 314Q384 453 281 453Q234 453 208 419T176 308H384V314ZM151 627L102 682L240 808H321L460 682L411 627L281 715L151 627Z" />
<glyph unicode="&#xeb;" glyph-name="edieresis" horiz-adv-x="549" d="M511 267T508 225H176Q182 148 216 115T306 82Q341 82 372 93T438 129L491 56Q403 -15 295 -15Q174 -15 109 59T43 261Q43 342 71 406T152 507T278 544Q389 544 450 474T511 277Q511 267
508 225ZM384 314Q384 453 281 453Q234 453 208 419T176 308H384V314ZM199 785T219 765T239 716Q239 687 219 667T170 647Q140 647 120 667T99 716Q99 745 119 765T170 785Q199 785 219 765ZM421 785T441 765T461 716Q461 687 441 667T391 647Q362 647 342 667T321
716Q321 745 341 765T391 785Q421 785 441 765Z" />
<glyph unicode="&#xec;" glyph-name="igrave" horiz-adv-x="282" d="M205 529V0H77V529H205ZM72 820L282 695L245 630L20 720L72 820Z" />
<glyph unicode="&#xed;" glyph-name="iacute" horiz-adv-x="282" d="M205 529V0H77V529H205ZM217 820L269 720L43 630L7 695L217 820Z" />
<glyph unicode="&#xee;" glyph-name="icircumflex" horiz-adv-x="282" d="M205 529V0H77V529H205ZM11 627L-38 682L100 808H181L320 682L271 627L141 715L11 627Z" />
<glyph unicode="&#xef;" glyph-name="idieresis" horiz-adv-x="282" d="M205 529V0H77V529H205ZM59 785T79 765T99 716Q99 687 79 667T30 647Q0 647 -20 667T-41 716Q-41 745 -21 765T30 785Q59 785 79 765ZM281 785T301 765T321 716Q321 687 301 667T251 647Q222
647 202 667T181 716Q181 745 201 765T251 785Q281 785 301 765Z" />
<glyph unicode="&#xf0;" glyph-name="eth" horiz-adv-x="575" d="M445 598T485 503T526 271Q526 188 497 123T412 22T281 -15Q214 -15 160 14T75 100T43 234Q43 299 68 355T139 444T248 477Q331 477 387 421Q374 475 348 516T277 593L215 532L132 571L196 639Q148
656 95 666L121 754Q202 740 269 712L340 788L409 728L349 668Q445 598 485 503ZM336 81T366 126T396 261L395 326Q351 384 278 384Q174 384 174 238Q174 160 202 121T281 81Q336 81 366 126Z" />
<glyph unicode="&#xf1;" glyph-name="ntilde" horiz-adv-x="581" d="M430 544T469 502T509 383V0H381V363Q381 410 365 429T316 448Q283 448 257 428T205 368V0H77V529H188L198 460Q263 544 359 544Q430 544 469 502ZM333 644T318 651T282 672Q267 682 258 686T239
691Q222 691 211 681T186 646L117 680Q137 727 167 755T237 784Q259 784 274 777T311 757Q324 747 333 743T353 738Q368 738 380 748T406 781L474 747Q454 699 423 672T354 644Q333 644 318 651Z" />
<glyph unicode="&#xf2;" glyph-name="ograve" horiz-adv-x="584" d="M410 544T475 470T541 265Q541 182 511 119T425 20T292 -15Q175 -15 109 59T43 265Q43 348 73 411T159 509T293 544Q410 544 475 470ZM178 447T178 265Q178 171 206 127T292 82Q349 82 377 127T406
265Q406 358 378 402T293 447Q178 447 178 265ZM223 820L433 695L396 630L171 720L223 820Z" />
<glyph unicode="&#xf3;" glyph-name="oacute" horiz-adv-x="584" d="M410 544T475 470T541 265Q541 182 511 119T425 20T292 -15Q175 -15 109 59T43 265Q43 348 73 411T159 509T293 544Q410 544 475 470ZM178 447T178 265Q178 171 206 127T292 82Q349 82 377 127T406
265Q406 358 378 402T293 447Q178 447 178 265ZM368 820L420 720L194 630L158 695L368 820Z" />
<glyph unicode="&#xf4;" glyph-name="ocircumflex" horiz-adv-x="584" d="M410 544T475 470T541 265Q541 182 511 119T425 20T292 -15Q175 -15 109 59T43 265Q43 348 73 411T159 509T293 544Q410 544 475 470ZM178 447T178 265Q178 171 206 127T292 82Q349 82
377 127T406 265Q406 358 378 402T293 447Q178 447 178 265ZM162 627L113 682L251 808H332L471 682L422 627L292 715L162 627Z" />
<glyph unicode="&#xf5;" glyph-name="otilde" horiz-adv-x="584" d="M410 544T475 470T541 265Q541 182 511 119T425 20T292 -15Q175 -15 109 59T43 265Q43 348 73 411T159 509T293 544Q410 544 475 470ZM178 447T178 265Q178 171 206 127T292 82Q349 82 377 127T406
265Q406 358 378 402T293 447Q178 447 178 265ZM329 644T314 651T278 672Q263 682 254 686T235 691Q218 691 207 681T182 646L113 680Q133 727 163 755T233 784Q255 784 270 777T307 757Q320 747 329 743T349 738Q364 738 376 748T402 781L470 747Q450 699 419
672T350 644Q329 644 314 651Z" />
<glyph unicode="&#xf6;" glyph-name="odieresis" horiz-adv-x="584" d="M410 544T475 470T541 265Q541 182 511 119T425 20T292 -15Q175 -15 109 59T43 265Q43 348 73 411T159 509T293 544Q410 544 475 470ZM178 447T178 265Q178 171 206 127T292 82Q349 82 377
127T406 265Q406 358 378 402T293 447Q178 447 178 265ZM210 785T230 765T250 716Q250 687 230 667T181 647Q151 647 131 667T110 716Q110 745 130 765T181 785Q210 785 230 765ZM432 785T452 765T472 716Q472 687 452 667T402 647Q373 647 353 667T332 716Q332
745 352 765T402 785Q432 785 452 765Z" />
<glyph unicode="&#xf7;" glyph-name="divide" horiz-adv-x="510" d="M289 178T313 155T337 97Q337 64 313 40T255 16Q222 16 199 40T175 97Q175 131 198 154T255 178Q289 178 313 155ZM289 649T313 626T337 568Q337 535 313 511T255 487Q222 487 199 511T175 568Q175
602 198 625T255 649Q289 649 313 626ZM55 281V383H456V281H55Z" />
<glyph unicode="&#xf8;" glyph-name="oslash" horiz-adv-x="584" d="M483 476T512 413T541 265Q541 182 511 119T425 20T292 -15Q271 -15 251 -12L213 -133L115 -104L156 20Q102 54 73 116T43 265Q43 348 73 411T159 509T293 544Q314 544 334 541L373 662L470
633L428 509Q483 476 512 413ZM171 447T171 265Q171 206 179 170T206 112L317 446Q310 447 293 447Q171 447 171 265ZM413 82T413 265Q413 377 378 417L268 83Q276 82 292 82Q413 82 413 265Z" />
<glyph unicode="&#xf9;" glyph-name="ugrave" horiz-adv-x="577" d="M500 0H389L382 74Q353 29 314 7T220 -15Q149 -15 111 28T72 149V529H200V165Q200 120 215 101T265 82Q326 82 372 157V529H500V0ZM217 820L427 695L390 630L165 720L217 820Z" />
<glyph unicode="&#xfa;" glyph-name="uacute" horiz-adv-x="577" d="M500 0H389L382 74Q353 29 314 7T220 -15Q149 -15 111 28T72 149V529H200V165Q200 120 215 101T265 82Q326 82 372 157V529H500V0ZM362 820L414 720L188 630L152 695L362 820Z" />
<glyph unicode="&#xfb;" glyph-name="ucircumflex" horiz-adv-x="577" d="M500 0H389L382 74Q353 29 314 7T220 -15Q149 -15 111 28T72 149V529H200V165Q200 120 215 101T265 82Q326 82 372 157V529H500V0ZM156 627L107 682L245 808H326L465 682L416 627L286 715L156
627Z" />
<glyph unicode="&#xfc;" glyph-name="udieresis" horiz-adv-x="577" d="M500 0H389L382 74Q353 29 314 7T220 -15Q149 -15 111 28T72 149V529H200V165Q200 120 215 101T265 82Q326 82 372 157V529H500V0ZM204 785T224 765T244 716Q244 687 224 667T175 647Q145
647 125 667T104 716Q104 745 124 765T175 785Q204 785 224 765ZM426 785T446 765T466 716Q466 687 446 667T396 647Q367 647 347 667T326 716Q326 745 346 765T396 785Q426 785 446 765Z" />
<glyph unicode="&#xfd;" glyph-name="yacute" horiz-adv-x="506" d="M333 -2Q301 -100 236 -154T58 -218L45 -125Q97 -117 128 -103T179 -64T214 0H170L2 529H138L253 85L373 529H505L333 -2ZM329 820L381 720L155 630L119 695L329 820Z" />
<glyph unicode="&#xfe;" glyph-name="thorn" horiz-adv-x="596" d="M450 544T498 471T547 266Q547 184 523 121T451 21T338 -15Q254 -15 205 43V-201L77 -218V741L205 755V473Q234 509 271 526T349 544Q450 544 498 471ZM413 83T413 265Q413 363 388 405T311 448Q280
448 253 429T205 376V138Q242 83 302 83Q413 83 413 265Z" />
<glyph unicode="&#xff;" glyph-name="ydieresis" horiz-adv-x="506" d="M333 -2Q301 -100 236 -154T58 -218L45 -125Q97 -117 128 -103T179 -64T214 0H170L2 529H138L253 85L373 529H505L333 -2ZM171 785T191 765T211 716Q211 687 191 667T142 647Q112 647 92
667T71 716Q71 745 91 765T142 785Q171 785 191 765ZM393 785T413 765T433 716Q433 687 413 667T363 647Q334 647 314 667T293 716Q293 745 313 765T363 785Q393 785 413 765Z" />
<glyph unicode="&#x2013;" glyph-name="endash" horiz-adv-x="520" d="M26 262V364H494V262H26Z" />
<glyph unicode="&#x2014;" glyph-name="emdash" horiz-adv-x="793" d="M26 262V364H767V262H26Z" />
<glyph unicode="&#x2018;" glyph-name="quoteleft" horiz-adv-x="236" d="M84 474T63 494T41 546Q41 562 46 579T64 624L129 760H201L160 606Q192 584 192 546Q192 515 170 495T116 474Q84 474 63 494Z" />
<glyph unicode="&#x2019;" glyph-name="quoteright" horiz-adv-x="236" d="M152 760T173 740T195 688Q195 672 190 655T172 610L107 474H35L76 628Q44 650 44 688Q44 719 66 739T120 760Q152 760 173 740Z" />
<glyph unicode="&#x201a;" glyph-name="quotesinglbase" horiz-adv-x="236" d="M152 126T173 106T195 54Q195 38 190 21T172 -24L107 -160H35L76 -6Q44 16 44 54Q44 85 66 105T120 126Q152 126 173 106Z" />
<glyph unicode="&#x201c;" glyph-name="quotedblleft" horiz-adv-x="429" d="M84 474T63 494T41 546Q41 562 46 579T64 624L129 760H201L160 606Q192 584 192 546Q192 515 170 495T116 474Q84 474 63 494ZM277 474T256 494T234 546Q234 562 239 579T257 624L322
760H394L353 606Q385 584 385 546Q385 515 363 495T309 474Q277 474 256 494Z" />
<glyph unicode="&#x201d;" glyph-name="quotedblright" horiz-adv-x="429" d="M152 760T173 740T195 688Q195 672 190 655T172 610L107 474H35L76 628Q44 650 44 688Q44 719 66 739T120 760Q152 760 173 740ZM345 760T366 740T388 688Q388 672 383 655T365 610L300
474H228L269 628Q237 650 237 688Q237 719 259 739T313 760Q345 760 366 740Z" />
<glyph unicode="&#x201e;" glyph-name="quotedblbase" horiz-adv-x="429" d="M152 126T173 106T195 54Q195 38 190 21T172 -24L107 -160H35L76 -6Q44 16 44 54Q44 85 66 105T120 126Q152 126 173 106ZM345 126T366 106T388 54Q388 38 383 21T365 -24L300 -160H228L269
-6Q237 16 237 54Q237 85 259 105T313 126Q345 126 366 106Z" />
<glyph unicode="&#x2022;" glyph-name="bullet" horiz-adv-x="336" d="M222 468T258 432T294 341Q294 287 258 251T168 215Q114 215 78 251T42 342Q42 396 78 432T168 468Q222 468 258 432Z" />
<glyph unicode="&#x2039;" glyph-name="guilsinglleft" horiz-adv-x="351" d="M228 547L306 494L174 286L306 77L228 25L45 244V327L228 547Z" />
<glyph unicode="&#x203a;" glyph-name="guilsinglright" horiz-adv-x="351" d="M123 547L306 327V244L123 25L45 77L176 286L45 494L123 547Z" />
</font>
</defs>
</svg>
