<?xml version="1.0" standalone="no"?>
<!DOCTYPE svg PUBLIC "-//W3C//DTD SVG 1.1//EN" "http://www.w3.org/Graphics/SVG/1.1/DTD/svg11.dtd">
<svg xmlns="http://www.w3.org/2000/svg">
<defs >
<font id="FiraSans" horiz-adv-x="574" ><font-face
    font-family="Fira Sans"
    units-per-em="1000"
    panose-1="2 11 8 3 5 0 0 2 0 4"
    ascent="935"
    descent="-265"
    alphabetic="0" />
<glyph unicode=" " glyph-name="space" horiz-adv-x="237" />
<glyph unicode="!" glyph-name="exclam" horiz-adv-x="240" d="M204 693L184 255H56L36 693H204ZM158 164T184 138T211 74Q211 36 185 10T120 -17Q83 -17 57 9T30 74Q30 111 56 137T120 164Q158 164 184 138Z" />
<glyph unicode="&quot;" glyph-name="quotedbl" horiz-adv-x="439" d="M67 414L48 693H191L171 414H67ZM268 414L249 693H392L372 414H268Z" />
<glyph unicode="#" glyph-name="numbersign" horiz-adv-x="557" d="M542 440H472L447 248H505V143H433L414 0H283L302 143H202L183 0H52L71 143H15V248H85L110 440H52V545H124L141 676H272L255 545H355L372 676H503L486 545H542V440ZM316 248L341 440H241L216 248H316Z" />
<glyph unicode="$" glyph-name="dollar" horiz-adv-x="549" d="M525 122T476 69T340 -3V-161H226V-9Q94 2 9 85L90 173Q162 106 256 106Q305 106 333 128T361 188Q361 213 351 229T315 259T240 288Q130 323 84 371T37 494Q37 569 89 619T226 682V830H340V682Q439
666 506 601L433 515Q367 571 288 571Q246 571 222 554T198 506Q198 484 208 470T246 444T327 414Q428 382 476 334T525 200Q525 122 476 69Z" />
<glyph unicode="%" glyph-name="percent" horiz-adv-x="859" d="M614 720L711 658L248 -40L151 22L614 720ZM257 690T297 668T361 605T385 510Q385 456 362 415T298 352T207 330Q157 330 117 352T53 415T29 510Q29 564 52 604T116 667T207 690Q257 690 297 668ZM142
595T142 510Q142 473 156 449T207 425Q271 425 271 510Q271 595 207 595Q142 595 142 510ZM702 342T742 320T806 258T830 163Q830 109 807 68T743 5T652 -17Q602 -17 561 5T497 68T473 163Q473 217 496 257T561 320T652 342Q702 342 742 320ZM587 247T587 163Q587
126 601 102T652 77Q716 77 716 163Q716 247 652 247Q587 247 587 163Z" />
<glyph unicode="&amp;" glyph-name="ampersand" horiz-adv-x="760" d="M379 710T427 689T501 632T527 550Q527 491 494 448T395 361L530 234Q559 294 578 378L710 339Q672 229 618 153L739 46L604 -17L526 58Q433 -17 307 -17Q234 -17 178 7T91 75T60 177Q60 237
92 282T195 373Q141 425 120 461T99 544Q99 589 123 626T195 687T313 710Q379 710 427 689ZM285 608T268 591T251 544Q251 518 263 497T308 444Q343 467 359 491T376 546Q376 575 360 591T315 608Q285 608 268 591ZM254 265T240 241T225 186Q225 145 255 120T334
95Q397 95 447 133L285 288Q254 265 240 241Z" />
<glyph unicode="&apos;" glyph-name="quotesingle" horiz-adv-x="238" d="M67 414L48 693H191L171 414H67Z" />
<glyph unicode="(" glyph-name="parenleft" horiz-adv-x="325" d="M313 791Q242 689 210 588T178 350Q178 214 210 113T313 -91L212 -159Q147 -69 108 -4T44 150T18 350Q18 462 43 550T108 703T212 859L313 791Z" />
<glyph unicode=")" glyph-name="parenright" horiz-adv-x="325" d="M178 768T216 703T280 550T306 350Q306 238 281 150T217 -3T113 -159L12 -91Q83 12 115 113T147 350Q147 485 115 586T12 791L113 859Q178 768 216 703Z" />
<glyph unicode="*" glyph-name="asterisk" horiz-adv-x="449" d="M441 535L300 512L401 410L291 330L225 457L159 329L49 409L149 511L8 535L49 661L177 599L157 742H293L272 598L399 662L441 535Z" />
<glyph unicode="+" glyph-name="plus" horiz-adv-x="531" d="M331 549V393H482V271H331V115H200V271H48V393H200V549H331Z" />
<glyph unicode="," glyph-name="comma" horiz-adv-x="240" d="M158 164T184 138T210 74Q210 52 203 30T178 -32L115 -177H26L69 -1Q50 12 40 31T29 74Q29 112 55 138T120 164Q158 164 184 138Z" />
<glyph unicode="-" glyph-name="hyphen" horiz-adv-x="407" d="M44 252V374H363V252H44Z" />
<glyph unicode="." glyph-name="period" horiz-adv-x="240" d="M157 164T183 138T210 74Q210 36 184 10T120 -17Q82 -17 56 9T29 74Q29 111 55 137T120 164Q157 164 183 138Z" />
<glyph unicode="/" glyph-name="slash" horiz-adv-x="520" d="M309 816L447 785L212 -112L73 -80L309 816Z" />
<glyph unicode="0" glyph-name="zero" horiz-adv-x="585" d="M417 690T482 599T548 337Q548 167 483 75T293 -17Q169 -17 104 75T38 337Q38 508 103 599T293 690Q417 690 482 599ZM259 573T239 551T210 478T200 337Q200 247 209 196T239 122T293 100Q327 100 347
121T376 194T386 337Q386 428 377 479T347 552T293 573Q259 573 239 551Z" />
<glyph unicode="1" glyph-name="one" horiz-adv-x="464" d="M382 676V0H227V522L82 433L13 538L241 676H382Z" />
<glyph unicode="2" glyph-name="two" horiz-adv-x="517" d="M311 690T363 664T443 594T471 497Q471 443 449 394T371 282T208 121H485L469 0H29V112Q152 233 208 294T286 397T309 481Q309 522 286 545T222 569Q186 569 158 553T99 499L6 573Q48 628 106 659T238
690Q311 690 363 664Z" />
<glyph unicode="3" glyph-name="three" horiz-adv-x="520" d="M310 690T360 667T437 605T464 518Q464 457 430 416T332 357Q400 350 443 309T486 191Q486 134 456 87T368 11T228 -17Q80 -17 -4 85L81 168Q115 134 147 119T219 103Q266 103 295 129T324 201Q324
253 297 275T214 298H158L175 407H214Q259 407 285 430T311 495Q311 532 287 552T221 573Q150 573 89 514L11 599Q107 690 239 690Q310 690 360 667Z" />
<glyph unicode="4" glyph-name="four" horiz-adv-x="565" d="M544 264V146H468V0H314L313 146H28V251L220 693L354 643L191 264H315L332 424H468V264H544Z" />
<glyph unicode="5" glyph-name="five" horiz-adv-x="536" d="M454 563H209V421Q256 443 309 443Q365 443 409 417T478 341T503 223Q503 152 471 98T378 13T238 -17Q101 -17 13 85L101 167Q156 102 232 102Q284 102 312 133T341 222Q341 335 246 335Q226 335 207
330T165 311H58V676H472L454 563Z" />
<glyph unicode="6" glyph-name="six" horiz-adv-x="564" d="M401 455T445 429T514 352T539 231Q539 162 509 106T424 16T294 -17Q164 -17 101 70T38 309Q38 423 73 509T175 642T332 690Q419 690 486 645L428 551Q383 577 336 577Q279 577 244 529T202 393Q263
455 345 455Q401 455 445 429ZM338 96T359 131T381 229Q381 292 361 319T301 346Q247 346 202 293Q204 186 225 141T296 96Q338 96 359 131Z" />
<glyph unicode="7" glyph-name="seven" horiz-adv-x="468" d="M450 676V569L202 -16L59 32L286 557H13V676H450Z" />
<glyph unicode="8" glyph-name="eight" horiz-adv-x="581" d="M485 330T518 286T551 183Q551 128 520 83T428 10T287 -17Q208 -17 150 9T60 80T29 180Q29 293 155 348Q56 406 56 508Q56 562 86 603T169 667T291 690Q394 690 459 644T525 516Q525 471 499 432T417
363Q485 330 518 286ZM254 583T232 563T209 506Q209 472 228 451T291 411L312 403Q346 425 359 449T372 508Q372 542 352 562T292 583Q254 583 232 563ZM340 96T366 120T393 184Q393 225 370 248T289 293L256 305Q188 267 188 188Q188 146 216 121T292 96Q340 96
366 120Z" />
<glyph unicode="9" glyph-name="nine" horiz-adv-x="560" d="M399 690T464 619T529 428Q529 291 485 201T348 57T108 -28L76 82Q207 114 273 162T359 299Q306 234 219 234Q166 234 122 261T52 339T26 457Q26 526 59 579T149 661T277 690Q399 690 464 619ZM297
345T322 360T368 405Q369 499 348 538T277 577Q234 577 210 548T185 462Q185 400 207 373T268 345Q297 345 322 360Z" />
<glyph unicode=":" glyph-name="colon" horiz-adv-x="240" d="M157 164T183 138T210 74Q210 36 184 10T120 -17Q82 -17 56 9T29 74Q29 111 55 137T120 164Q157 164 183 138ZM157 510T183 484T210 420Q210 382 184 356T120 329Q82 329 56 355T29 420Q29 457 55
483T120 510Q157 510 183 484Z" />
<glyph unicode=";" glyph-name="semicolon" horiz-adv-x="240" d="M158 164T184 138T210 74Q210 52 203 30T178 -32L115 -177H26L69 -1Q50 12 40 31T29 74Q29 112 55 138T120 164Q158 164 184 138ZM157 510T183 484T210 420Q210 382 184 356T120 329Q82 329 56
355T29 420Q29 457 55 483T120 510Q157 510 183 484Z" />
<glyph unicode="&lt;" glyph-name="less" horiz-adv-x="519" d="M434 576L484 465L168 333L484 205L434 90L34 263V402L434 576Z" />
<glyph unicode="=" glyph-name="equal" horiz-adv-x="519" d="M48 375V497H470V375H48ZM48 422V544H470V422H48Z" />
<glyph unicode="&gt;" glyph-name="greater" horiz-adv-x="519" d="M84 576L484 402V263L84 90L34 205L350 333L34 465L84 576Z" />
<glyph unicode="?" glyph-name="question" horiz-adv-x="481" d="M318 710T367 688T442 627T467 543Q467 502 453 473T418 426T365 384Q325 357 306 336T287 280V255H143V286Q143 333 157 365T192 416T244 457Q274 477 288 492T302 529Q302 556 284 571T232 586Q169
586 115 525L14 603Q105 710 248 710Q318 710 367 688ZM254 164T280 138T307 74Q307 36 281 10T217 -17Q180 -17 154 9T127 74Q127 111 153 137T217 164Q254 164 280 138Z" />
<glyph unicode="@" glyph-name="at" horiz-adv-x="1020" d="M569 503T614 492T700 458V211Q700 150 710 126T747 102Q786 102 808 150T830 314Q830 448 754 521T526 595Q421 595 346 551T231 427T191 242Q191 80 277 -12T527 -105Q577 -105 630 -96T724 -71L761
-180Q712 -199 650 -210T526 -222Q382 -222 274 -165T107 -3T48 242Q48 376 109 483T280 650T527 710Q664 710 765 656T919 511T972 316Q972 226 945 155T869 44T754 4Q698 4 664 34T620 106Q601 61 565 35T477 8Q386 8 340 69T294 233Q294 357 355 430T527 503Q569
503 614 492ZM522 107T539 121T566 156V394Q543 403 522 403Q481 403 459 364T437 232Q437 164 451 136T498 107Q522 107 539 121Z" />
<glyph unicode="A" glyph-name="A" horiz-adv-x="590" d="M430 0L394 149H192L157 0H-13L196 693H395L604 0H430ZM220 268H366L293 574L220 268Z" />
<glyph unicode="B" glyph-name="B" horiz-adv-x="617" d="M503 354T546 316T590 202Q590 91 511 46T288 0H65V693H261Q407 693 484 652T561 516Q561 455 525 418T434 367Q503 354 546 316ZM229 577V416H290Q394 416 394 500Q394 542 366 559T277 577H229ZM354
119T387 138T421 211Q421 307 301 307H229V119H289Q354 119 387 138Z" />
<glyph unicode="C" glyph-name="C" horiz-adv-x="575" d="M413 710T463 691T559 634L481 541Q450 565 420 577T356 589Q286 589 246 530T205 348Q205 227 245 169T358 110Q396 110 427 124T494 166L567 72Q528 33 473 8T350 -17Q254 -17 183 25T73 149T33 348Q33
461 73 543T185 667T348 710Q413 710 463 691Z" />
<glyph unicode="D" glyph-name="D" horiz-adv-x="651" d="M421 693T519 620T618 350Q618 157 522 79T273 0H65V693H258Q421 693 519 620ZM229 574V119H283Q364 119 406 169T448 350Q448 439 427 488T370 555T281 574H229Z" />
<glyph unicode="E" glyph-name="E" horiz-adv-x="526" d="M490 693L473 576H229V410H442V295H229V118H490V0H65V693H490Z" />
<glyph unicode="F" glyph-name="F" horiz-adv-x="487" d="M65 0V693H478L461 576H229V392H431V275H229V0H65Z" />
<glyph unicode="G" glyph-name="G" horiz-adv-x="645" d="M499 710T596 625L513 538Q476 566 445 578T372 591Q295 591 249 531T203 347Q203 214 238 159T347 103Q399 103 441 126V283H351L335 399H600V56Q546 21 481 2T351 -17Q193 -17 113 75T33 347Q33 461
76 543T195 667T365 710Q499 710 596 625Z" />
<glyph unicode="H" glyph-name="H" horiz-adv-x="666" d="M437 0V297H229V0H65V693H229V425H437V693H601V0H437Z" />
<glyph unicode="I" glyph-name="I" horiz-adv-x="293" d="M229 693V0H65V693H229Z" />
<glyph unicode="J" glyph-name="J" horiz-adv-x="317" d="M256 105Q256 22 227 -32T149 -116T33 -169L-11 -53Q33 -36 55 -14T84 37T92 111V693H256V105Z" />
<glyph unicode="K" glyph-name="K" horiz-adv-x="633" d="M229 693V0H65V693H229ZM627 693L406 382L645 0H455L234 370L454 693H627Z" />
<glyph unicode="L" glyph-name="L" horiz-adv-x="513" d="M229 693V130H499L482 0H65V693H229Z" />
<glyph unicode="M" glyph-name="M" horiz-adv-x="786" d="M753 0H592L580 271Q575 368 575 444Q575 502 578 554L471 73H316L202 554Q208 467 208 390Q208 332 205 269L193 0H33L85 693H292L396 223L493 693H701L753 0Z" />
<glyph unicode="N" glyph-name="N" horiz-adv-x="663" d="M599 0H390L190 537Q200 458 205 398T211 254V0H65V693H269L474 155Q452 292 452 413V693H599V0Z" />
<glyph unicode="O" glyph-name="O" horiz-adv-x="691" d="M493 710T575 615T658 347Q658 234 621 152T513 27T345 -17Q248 -17 178 26T71 150T33 347Q33 459 70 541T178 666T345 710Q493 710 575 615ZM274 590T240 533T205 347Q205 219 240 161T345 103Q417 103
451 160T486 347Q486 476 451 533T345 590Q274 590 240 533Z" />
<glyph unicode="P" glyph-name="P" horiz-adv-x="600" d="M426 693T502 636T578 467Q578 350 504 291T304 231H229V0H65V693H289Q426 693 502 636ZM348 349T378 376T409 467Q409 576 287 576H229V349H290Q348 349 378 376Z" />
<glyph unicode="Q" glyph-name="Q" horiz-adv-x="690" d="M560 45T608 30T700 -18L601 -147Q544 -83 484 -49T335 -14Q242 -14 174 28T70 152T33 347Q33 459 70 541T178 666T345 710Q493 710 575 615T658 347Q658 135 495 45Q560 45 608 30ZM205 219T240 161T345
103Q417 103 451 160T486 347Q486 476 451 533T345 590Q274 590 240 533T205 347Q205 219 240 161Z" />
<glyph unicode="R" glyph-name="R" horiz-adv-x="617" d="M293 265H229V0H65V693H292Q434 693 505 641T577 482Q577 415 545 371T444 295L620 0H435L293 265ZM229 378H298Q353 378 380 403T408 482Q408 532 379 555T288 578H229V378Z" />
<glyph unicode="S" glyph-name="S" horiz-adv-x="572" d="M366 710T423 688T528 621L452 532Q381 590 300 590Q257 590 232 573T207 522Q207 499 218 485T257 457T341 426Q447 392 497 343T547 202Q547 137 514 88T419 11T272 -17Q187 -17 122 10T9 82L92 173Q132
139 174 122T267 105Q318 105 347 127T377 190Q377 216 366 233T328 265T250 295Q135 330 87 381T38 510Q38 570 70 615T159 685T288 710Q366 710 423 688Z" />
<glyph unicode="T" glyph-name="T" horiz-adv-x="540" d="M539 693L523 567H352V0H188V567H9V693H539Z" />
<glyph unicode="U" glyph-name="U" horiz-adv-x="651" d="M596 230Q596 159 566 103T474 15T325 -17Q193 -17 124 50T55 230V693H219V237Q219 170 244 138T325 105Q381 105 406 137T432 237V693H596V230Z" />
<glyph unicode="V" glyph-name="V" horiz-adv-x="570" d="M584 693L391 0H187L-13 693H160L292 128L416 693H584Z" />
<glyph unicode="W" glyph-name="W" horiz-adv-x="847" d="M837 693L721 0H508L422 529L331 0H123L9 693H173L242 124L338 693H510L600 124L681 693H837Z" />
<glyph unicode="X" glyph-name="X" horiz-adv-x="581" d="M385 374L585 0H406L287 264L170 0H-4L190 368L11 693H189L289 471L394 693H568L385 374Z" />
<glyph unicode="Y" glyph-name="Y" horiz-adv-x="594" d="M601 693L379 260V0H215V259L-7 693H172L300 388L428 693H601Z" />
<glyph unicode="Z" glyph-name="Z" horiz-adv-x="544" d="M512 693V569L211 131H517L501 0H18V123L325 566H49V693H512Z" />
<glyph unicode="[" glyph-name="bracketleft" horiz-adv-x="324" d="M299 823V705H184V-6H299V-123H34V823H299Z" />
<glyph unicode="\" glyph-name="backslash" horiz-adv-x="520" d="M211 816L447 -80L308 -112L73 785L211 816Z" />
<glyph unicode="]" glyph-name="bracketright" horiz-adv-x="324" d="M290 823V-123H25V-5H140V705H25V823H290Z" />
<glyph unicode="^" glyph-name="asciicircum" horiz-adv-x="559" d="M351 844L540 527H386L278 726L175 527H18L207 844H351Z" />
<glyph unicode="_" glyph-name="underscore" horiz-adv-x="520" d="M10 -171V-47H510V-171H10Z" />
<glyph unicode="`" glyph-name="grave" horiz-adv-x="340" d="M92 835L310 703L266 622L30 717L92 835Z" />
<glyph unicode="a" glyph-name="a" horiz-adv-x="548" d="M484 124T492 110T520 89L487 -14Q438 -10 407 7T359 63Q307 -17 199 -17Q120 -17 73 29T26 149Q26 236 90 282T275 328H329V351Q329 398 309 415T239 433Q213 433 176 426T100 405L64 509Q114 528 166
538T264 548Q378 548 431 501T484 360V154Q484 124 492 110ZM299 96T329 147V241H290Q236 241 210 222T183 163Q183 131 199 114T245 96Q299 96 329 147Z" />
<glyph unicode="b" glyph-name="b" horiz-adv-x="597" d="M458 548T509 474T560 265Q560 183 535 119T462 19T349 -17Q306 -17 271 1T210 51L202 0H62V742L220 759V477Q244 510 281 529T363 548Q458 548 509 474ZM396 98T396 265Q396 360 374 396T310 432Q257
432 220 370V149Q235 125 256 112T303 98Q396 98 396 265Z" />
<glyph unicode="c" glyph-name="c" horiz-adv-x="479" d="M347 548T391 532T474 483L406 389Q356 427 305 427Q252 427 225 388T198 262Q198 178 225 143T303 108Q330 108 352 116T405 144L474 46Q395 -17 295 -17Q214 -17 155 17T64 114T32 261Q32 345 64 410T155
511T292 548Q347 548 391 532Z" />
<glyph unicode="d" glyph-name="d" horiz-adv-x="600" d="M538 742V0H398L390 62Q334 -17 239 -17Q140 -17 89 59T37 267Q37 348 64 412T140 512T254 548Q330 548 380 498V759L538 742ZM343 99T380 159V388Q361 411 342 422T297 433Q253 433 227 392T201 266Q201
173 223 136T288 99Q343 99 380 159Z" />
<glyph unicode="e" glyph-name="e" horiz-adv-x="552" d="M525 243T522 219H193Q201 152 231 125T314 98Q346 98 376 109T441 145L506 57Q413 -17 299 -17Q170 -17 101 59T32 263Q32 344 61 408T146 510T280 548Q395 548 460 476T525 276Q525 243 522 219ZM370
321Q368 443 284 443Q243 443 221 413T193 314H370V321Z" />
<glyph unicode="f" glyph-name="f" horiz-adv-x="356" d="M271 642T256 626T241 572V531H366L349 421H241V0H83V421H3V531H83V578Q83 658 135 708T286 759Q365 759 431 725L388 622Q348 642 305 642Q271 642 256 626Z" />
<glyph unicode="g" glyph-name="g" horiz-adv-x="551" d="M551 500Q499 479 398 479Q450 457 474 425T498 342Q498 291 471 251T394 187T275 164Q243 164 214 170Q206 166 202 158T197 140Q197 125 208 117T255 108H335Q396 108 442 88T513 33T538 -46Q538 -129
467 -175T260 -222Q163 -222 107 -202T29 -144T6 -51H148Q148 -75 157 -89T192 -110T264 -117Q329 -117 354 -102T379 -57Q379 -33 360 -19T303 -5H226Q144 -5 104 24T63 100Q63 129 80 156T126 202Q76 229 54 265T31 354Q31 443 95 495T264 548Q344 546 399 564T514
617L551 500ZM231 444T210 421T188 356Q188 313 209 290T268 266Q307 266 327 289T348 358Q348 444 268 444Q231 444 210 421Z" />
<glyph unicode="h" glyph-name="h" horiz-adv-x="577" d="M442 548T481 506T520 388V0H362V361Q362 401 349 416T312 432Q264 432 220 364V0H62V742L220 758V474Q253 511 290 529T373 548Q442 548 481 506Z" />
<glyph unicode="i" glyph-name="i" horiz-adv-x="282" d="M220 531V0H62V531H220ZM181 811T207 786T234 721Q234 682 208 657T140 631Q99 631 73 656T47 721Q47 760 73 785T140 811Q181 811 207 786Z" />
<glyph unicode="j" glyph-name="j" horiz-adv-x="281" d="M219 60Q219 -23 193 -77T121 -163T6 -221L-47 -106Q-8 -88 14 -71T48 -26T61 50V531H219V60ZM181 811T207 786T234 721Q234 682 208 657T140 631Q99 631 73 656T47 721Q47 760 73 785T140 811Q181 811 207 786Z" />
<glyph unicode="k" glyph-name="k" horiz-adv-x="552" d="M220 759V0H62V742L220 759ZM548 531L387 298L561 0H383L225 290L387 531H548Z" />
<glyph unicode="l" glyph-name="l" horiz-adv-x="297" d="M134 -17T96 22T57 135V742L215 759V141Q215 108 242 108Q256 108 268 113L299 1Q256 -17 203 -17Q134 -17 96 22Z" />
<glyph unicode="m" glyph-name="m" horiz-adv-x="845" d="M712 548T750 506T788 388V0H630V361Q630 432 585 432Q560 432 541 415T504 363V0H346V361Q346 432 301 432Q277 432 258 415T220 363V0H62V531H200L211 469Q242 509 279 528T365 548Q410 548 442 526T490
464Q522 507 560 527T649 548Q712 548 750 506Z" />
<glyph unicode="n" glyph-name="n" horiz-adv-x="577" d="M442 548T481 506T520 388V0H362V361Q362 401 350 416T312 432Q264 432 220 363V0H62V531H200L211 468Q245 508 284 528T373 548Q442 548 481 506Z" />
<glyph unicode="o" glyph-name="o" horiz-adv-x="584" d="M414 548T483 474T552 265Q552 180 521 117T431 18T292 -17Q171 -17 102 57T32 266Q32 351 63 414T153 513T292 548Q414 548 483 474ZM244 432T220 392T196 266Q196 179 219 139T292 99Q340 99 364 139T388
265Q388 352 365 392T292 432Q244 432 220 392Z" />
<glyph unicode="p" glyph-name="p" horiz-adv-x="597" d="M462 548T511 474T560 267Q560 185 535 121T461 20T349 -17Q269 -17 220 38V-205L62 -222V531H201L209 472Q240 511 280 529T362 548Q462 548 511 474ZM396 99T396 265Q396 359 375 395T312 432Q285 432
262 416T220 370V146Q252 99 301 99Q396 99 396 265Z" />
<glyph unicode="q" glyph-name="q" horiz-adv-x="600" d="M538 531V-222L380 -205V51Q327 -17 239 -17Q140 -17 89 59T37 267Q37 349 64 412T140 512T255 548Q336 548 392 485L400 531H538ZM343 99T380 159V388Q361 411 342 422T298 433Q253 433 227 393T201 266Q201
173 223 136T288 99Q343 99 380 159Z" />
<glyph unicode="r" glyph-name="r" horiz-adv-x="401" d="M379 546T403 539L378 386Q348 393 330 393Q283 393 259 361T220 263V0H62V531H200L213 428Q231 483 267 514T350 546Q379 546 403 539Z" />
<glyph unicode="s" glyph-name="s" horiz-adv-x="483" d="M306 548T356 531T444 483L386 394Q321 435 255 435Q224 435 208 425T191 395Q191 380 198 371T229 351T300 327Q383 303 423 265T464 158Q464 104 433 65T348 4T228 -17Q161 -17 104 4T6 62L83 148Q150
96 224 96Q260 96 280 109T301 146Q301 165 293 176T262 196T189 220Q110 243 71 284T32 386Q32 432 58 468T134 526T249 548Q306 548 356 531Z" />
<glyph unicode="t" glyph-name="t" horiz-adv-x="386" d="M395 25Q366 5 328 -6T251 -17Q77 -16 77 175V421H2V531H77V646L235 664V531H357L340 421H235V177Q235 140 247 124T285 108Q312 108 342 125L395 25Z" />
<glyph unicode="u" glyph-name="u" horiz-adv-x="572" d="M510 0H373L366 67Q308 -17 205 -17Q132 -17 95 27T57 150V531H215V170Q215 131 227 116T266 100Q316 100 352 162V531H510V0Z" />
<glyph unicode="v" glyph-name="v" horiz-adv-x="513" d="M519 531L352 0H165L-6 531H166L260 120L358 531H519Z" />
<glyph unicode="w" glyph-name="w" horiz-adv-x="749" d="M744 531L634 0H445L374 390L304 0H117L4 531H164L219 118L302 531H456L529 118L593 531H744Z" />
<glyph unicode="x" glyph-name="x" horiz-adv-x="512" d="M351 284L522 0H343L251 199L161 0H-11L160 279L6 531H183L257 361L328 531H496L351 284Z" />
<glyph unicode="y" glyph-name="y" horiz-adv-x="518" d="M355 -1Q323 -104 251 -159T56 -222L39 -111Q115 -101 151 -77T210 0H156L-6 531H162L257 101L361 531H524L355 -1Z" />
<glyph unicode="z" glyph-name="z" horiz-adv-x="459" d="M436 531V420L196 120H441L427 0H13V112L254 412H34V531H436Z" />
<glyph unicode="{" glyph-name="braceleft" horiz-adv-x="324" d="M298 730Q254 730 238 717T222 670V484Q222 421 197 392T118 349Q170 338 196 309T222 216V30Q222 -3 238 -16T298 -30V-140Q210 -140 161 -122T93 -68T74 25V204Q74 249 61 267T9 285V414Q47
414 60 432T74 496V675Q74 733 93 768T161 822T298 840V730Z" />
<glyph unicode="|" glyph-name="bar" horiz-adv-x="376" d="M262 810V-105H115V810H262Z" />
<glyph unicode="}" glyph-name="braceright" horiz-adv-x="324" d="M114 840T162 822T230 769T249 675V496Q249 451 263 433T314 414V285Q277 285 263 267T249 204V25Q249 -32 230 -67T163 -121T26 -140V-30Q69 -30 85 -17T101 30V216Q101 278 127 308T206 349Q152
363 127 392T102 484V670Q102 703 86 716T26 730V840Q114 840 162 822Z" />
<glyph unicode="~" glyph-name="asciitilde" horiz-adv-x="514" d="M304 232T280 241T228 269Q207 282 195 287T169 293Q146 293 133 281T100 241L16 283Q44 340 82 375T177 410Q210 410 233 401T286 374Q306 362 319 356T346 350Q369 350 383 362T415 398L498
357Q470 300 433 266T338 232Q304 232 280 241Z" />
<glyph unicode="&#xa0;" glyph-name="uni00A0" horiz-adv-x="237" />
<glyph unicode="&#xa1;" glyph-name="exclamdown" horiz-adv-x="240" d="M158 509T184 483T211 419Q211 382 185 356T120 329Q83 329 57 355T30 419Q30 456 56 482T120 509Q158 509 184 483ZM184 235L205 -210H37L57 235H184Z" />
<glyph unicode="&#xa2;" glyph-name="cent" horiz-adv-x="479" d="M474 46Q414 -1 346 -13V-161H232V-11Q138 8 85 80T32 261Q32 372 86 447T233 542V691H346V544Q417 531 474 483L406 389Q356 427 305 427Q252 427 225 388T198 262Q198 178 225 143T303 108Q330
108 352 116T405 144L474 46Z" />
<glyph unicode="&#xa3;" glyph-name="sterling" horiz-adv-x="539" d="M266 196T253 169T202 120H509L491 0H28V114Q65 125 82 140T105 176T111 233V311H43V393H111V482Q111 575 166 632T324 690Q392 690 441 666T528 590L431 519Q411 548 390 560T340 572Q266
572 266 481V393H451V311H266V241Q266 196 253 169Z" />
<glyph unicode="&#xa4;" glyph-name="currency" horiz-adv-x="560" d="M501 276T468 223L543 148L474 78L396 154Q343 125 280 125Q217 125 165 155L86 78L17 148L94 224Q61 277 61 342Q61 406 94 459L17 536L87 606L165 528Q217 558 280 558Q345 558 397 528L474
606L543 536L468 460Q501 407 501 342Q501 276 468 223ZM329 231T353 260T378 342Q378 395 354 423T281 452Q234 452 209 423T184 342Q184 289 209 260T281 231Q329 231 353 260Z" />
<glyph unicode="&#xa5;" glyph-name="yen" horiz-adv-x="568" d="M576 676L399 352H497V270H364V198H497V116H364V0H206V116H74V198H206V270H74V352H170L-7 676H161L288 395L413 676H576Z" />
<glyph unicode="&#xa6;" glyph-name="brokenbar" horiz-adv-x="376" d="M262 810V443H115V810H262ZM262 262V-105H115V262H262Z" />
<glyph unicode="&#xa7;" glyph-name="section" horiz-adv-x="550" d="M448 162T461 138T474 76Q474 29 447 -7T369 -63T252 -83Q140 -83 61 -29L112 64Q177 26 244 26Q282 26 302 37T323 70Q323 87 315 98T282 120T204 148Q127 172 90 205T53 298Q53 372 133 421Q104
442 91 468T78 529Q78 575 104 611T179 668T293 689Q346 689 396 674T486 633L433 544Q368 580 301 580Q228 580 228 535Q228 518 236 507T268 485T344 458Q421 434 459 400T497 307Q497 232 419 182Q448 162 461 138ZM319 230T333 224Q345 239 352 255T359 285Q359
311 339 327T261 362L212 379Q191 351 191 321Q191 295 207 280T268 249Q319 230 333 224Z" />
<glyph unicode="&#xa8;" glyph-name="dieresis" horiz-adv-x="453" d="M144 799T167 776T191 720Q191 687 168 664T110 641Q76 641 53 664T29 720Q29 753 52 776T110 799Q144 799 167 776ZM376 799T399 776T422 720Q422 687 399 664T341 641Q308 641 285 664T261
720Q261 753 284 776T341 799Q376 799 399 776Z" />
<glyph unicode="&#xa9;" glyph-name="copyright" horiz-adv-x="810" d="M499 766T576 724T698 605T743 432Q743 336 699 260T577 142T406 99Q313 99 235 141T112 260T67 432Q67 528 112 604T234 723T406 766Q499 766 576 724ZM335 687T279 655T191 565T159 432Q159
358 191 301T279 211T406 179Q476 179 532 211T620 300T652 432Q652 507 620 565T532 655T406 687Q335 687 279 655ZM445 630T478 617T539 579L491 519Q472 533 456 538T419 543Q386 543 366 517T345 433Q345 324 418 324Q460 324 498 353L542 289Q486 236 409
236Q327 236 279 287T231 433Q231 493 254 537T317 606T408 630Q445 630 478 617Z" />
<glyph unicode="&#xaa;" glyph-name="ordfeminine" horiz-adv-x="500" d="M286 528V539Q286 570 272 581T219 593Q200 593 170 588T109 572L77 662Q117 677 160 685T241 693Q337 693 381 657T425 547V405Q425 384 431 374T452 359L423 267Q384 270 358 282T315
322Q294 292 260 278T187 264Q123 264 85 299T47 391Q47 458 99 493T249 528H286ZM263 364T286 390V453H263Q191 453 191 402Q191 384 201 374T232 364Q263 364 286 390ZM52 122H460V0H52V122Z" />
<glyph unicode="&#xab;" glyph-name="guillemotleft" horiz-adv-x="628" d="M226 556L323 491L194 285L323 78L226 13L36 234V334L226 556ZM495 556L592 491L463 285L592 78L495 13L305 234V334L495 556Z" />
<glyph unicode="&#xac;" glyph-name="logicalnot" horiz-adv-x="531" d="M483 390V114H352V267H48V390H483Z" />
<glyph unicode="&#xad;" glyph-name="uni00AD" horiz-adv-x="407" d="M44 252V374H363V252H44Z" />
<glyph unicode="&#xae;" glyph-name="registered" horiz-adv-x="637" d="M397 759T459 724T557 625T593 484Q593 406 558 344T460 247T319 212Q241 212 179 247T80 344T44 484Q44 562 80 625T178 723T319 759Q397 759 459 724ZM377 279T421 304T490 376T515 484Q515
546 491 593T422 666T319 692Q262 692 217 666T147 593T122 484Q122 423 147 377T217 305T319 279Q377 279 421 304ZM432 519T417 499T374 469L448 352H366L308 454H286V352H215V634H299Q432 634 432 546Q432 519 417 499ZM286 512H316Q359 512 359 548Q359 580
314 580H286V512Z" />
<glyph unicode="&#xaf;" glyph-name="overscore" horiz-adv-x="365" d="M335 655H30V765H335V655Z" />
<glyph unicode="&#xb0;" glyph-name="degree" horiz-adv-x="521" d="M173 369T132 390T65 450T39 541Q39 592 64 630T131 689T218 710Q263 710 304 690T370 631T396 541Q396 489 371 450T304 390T218 369Q173 369 132 390ZM249 462T268 483T287 541Q287 577 269
598T218 619Q186 619 167 598T148 541Q148 505 167 484T218 462Q249 462 268 483Z" />
<glyph unicode="&#xb1;" glyph-name="plusminus" horiz-adv-x="531" d="M54 0V122H476V0H54ZM331 622V466H482V344H331V188H200V344H48V466H200V622H331Z" />
<glyph unicode="&#xb2;" glyph-name="uni00B2" horiz-adv-x="400" d="M270 752T311 716T353 626Q353 595 340 567T290 502T186 410H363L351 321H53V403Q130 473 166 509T217 570T232 616Q232 638 219 651T182 664Q159 664 141 654T104 622L36 675Q64 711 104 731T194
752Q270 752 311 716Z" />
<glyph unicode="&#xb3;" glyph-name="uni00B3" horiz-adv-x="400" d="M272 752T312 721T352 642Q352 606 329 581T259 543Q308 540 337 514T367 441Q367 385 321 347T192 309Q90 309 33 376L98 438Q117 417 137 408T183 399Q211 399 228 411T245 449Q245 476 229
488T178 501H141L154 581H180Q208 581 222 592T237 624Q237 644 223 654T184 665Q138 665 100 630L41 692Q106 752 199 752Q272 752 312 721Z" />
<glyph unicode="&#xb4;" glyph-name="acute" horiz-adv-x="340" d="M248 835L310 717L74 622L30 703L248 835Z" />
<glyph unicode="&#xb5;" glyph-name="uni00B5" horiz-adv-x="582" d="M392 -17Q383 2 379 19T369 68Q323 -8 261 -8Q232 -8 211 1T172 34Q193 -4 202 -34T212 -113V-205L62 -220V531H220V167Q220 106 270 106Q293 106 315 121T355 169V531H513V182Q513 84 537 0L392 -17Z" />
<glyph unicode="&#xb6;" glyph-name="paragraph" horiz-adv-x="788" d="M672 693V-204L534 -222V583H442V-204L304 -222V263Q187 266 126 324T65 478Q65 579 134 636T328 693H672Z" />
<glyph unicode="&#xb7;" glyph-name="middot" horiz-adv-x="240" d="M157 398T183 372T210 308Q210 270 184 244T120 217Q82 217 56 243T29 308Q29 345 55 371T120 398Q157 398 183 372Z" />
<glyph unicode="&#xb8;" glyph-name="cedilla" horiz-adv-x="321" d="M187 -48Q240 -54 265 -79T291 -147Q291 -198 251 -230T142 -262Q108 -262 79 -254T30 -232L66 -159Q100 -176 130 -176Q177 -176 177 -146Q177 -128 155 -120T85 -112L100 16H187V-48Z" />
<glyph unicode="&#xb9;" glyph-name="uni00B9" horiz-adv-x="400" d="M300 742V321H183V632L92 575L39 653L193 742H300Z" />
<glyph unicode="&#xba;" glyph-name="ordmasculine" horiz-adv-x="500" d="M350 693T407 637T464 478Q464 380 407 322T251 264Q151 264 94 320T37 479Q37 577 94 635T250 693Q350 693 407 637ZM216 591T200 564T183 479Q183 419 199 393T251 366Q285 366 301
393T318 478Q318 538 302 564T250 591Q216 591 200 564ZM39 0V122H461V0H39Z" />
<glyph unicode="&#xbb;" glyph-name="guillemotright" horiz-adv-x="625" d="M134 556L323 334V234L134 13L36 78L165 285L36 491L134 556ZM400 556L589 334V234L400 13L302 78L431 285L302 491L400 556Z" />
<glyph unicode="&#xbc;" glyph-name="onequarter" horiz-adv-x="969" d="M300 693V272H183V583L92 526L39 604L193 693H300ZM644 759L736 714L325 -85L233 -40L644 759ZM943 170V84H897V0H785V84H594V162L715 431L814 395L714 170H787L807 265H897V170H943Z" />
<glyph unicode="&#xbd;" glyph-name="onehalf" horiz-adv-x="969" d="M300 693V272H183V583L92 526L39 604L193 693H300ZM644 759L736 714L325 -85L233 -40L644 759ZM839 431T880 395T922 305Q922 274 909 246T859 181T755 89H932L920 0H622V82Q699 152 735 188T786
249T801 295Q801 317 788 330T751 343Q728 343 710 333T673 301L605 354Q633 390 673 410T763 431Q839 431 880 395Z" />
<glyph unicode="&#xbe;" glyph-name="threequarters" horiz-adv-x="969" d="M272 703T312 672T352 593Q352 557 329 532T259 494Q308 491 337 465T367 392Q367 336 321 298T192 260Q90 260 33 327L98 389Q117 368 137 359T183 350Q211 350 228 362T245 400Q245
427 229 439T178 452H141L154 532H180Q208 532 222 543T237 575Q237 595 223 605T184 616Q138 616 100 581L41 643Q106 703 199 703Q272 703 312 672ZM644 759L736 714L325 -85L233 -40L644 759ZM943 170V84H897V0H785V84H594V162L715 431L814 395L714 170H787L807
265H897V170H943Z" />
<glyph unicode="&#xbf;" glyph-name="questiondown" horiz-adv-x="481" d="M227 329T201 355T174 419Q174 456 200 482T265 509Q302 509 328 483T355 419Q355 382 329 356T265 329Q227 329 201 355ZM163 -222T114 -200T39 -139T14 -55Q14 -14 28 15T63 63T117
104Q156 130 175 151T194 206V236H338V200Q338 153 324 122T290 72T238 31Q207 11 194 -3T180 -41Q180 -68 198 -83T249 -98Q313 -98 367 -37L467 -115Q378 -222 233 -222Q163 -222 114 -200Z" />
<glyph unicode="&#xc0;" glyph-name="Agrave" horiz-adv-x="590" d="M430 0L394 149H192L157 0H-13L196 693H395L604 0H430ZM220 268H366L293 574L220 268ZM211 956L432 831L392 751L152 838L211 956Z" />
<glyph unicode="&#xc1;" glyph-name="Aacute" horiz-adv-x="590" d="M430 0L394 149H192L157 0H-13L196 693H395L604 0H430ZM220 268H366L293 574L220 268ZM377 956L436 838L196 751L156 831L377 956Z" />
<glyph unicode="&#xc2;" glyph-name="Acircumflex" horiz-adv-x="590" d="M430 0L394 149H192L157 0H-13L196 693H395L604 0H430ZM220 268H366L293 574L220 268ZM163 755L106 820L248 949H344L485 820L429 755L296 839L163 755Z" />
<glyph unicode="&#xc3;" glyph-name="Atilde" horiz-adv-x="590" d="M430 0L394 149H192L157 0H-13L196 693H395L604 0H430ZM220 268H366L293 574L220 268ZM332 761T316 768T281 788Q256 806 240 806Q223 806 212 796T187 762L108 800Q128 852 161 885T237 918Q260
918 276 911T313 890Q327 881 335 877T353 873Q369 873 380 883T405 917L484 878Q463 825 430 793T354 761Q332 761 316 768Z" />
<glyph unicode="&#xc4;" glyph-name="Adieresis" horiz-adv-x="590" d="M430 0L394 149H192L157 0H-13L196 693H395L604 0H430ZM220 268H366L293 574L220 268ZM213 925T236 902T260 846Q260 813 237 790T179 767Q145 767 122 790T98 846Q98 879 121 902T179 925Q213
925 236 902ZM445 925T468 902T491 846Q491 813 468 790T410 767Q377 767 354 790T330 846Q330 879 353 902T410 925Q445 925 468 902Z" />
<glyph unicode="&#xc5;" glyph-name="Aring" horiz-adv-x="590" d="M430 0L394 149H192L157 0H-13L196 693H395L604 0H430ZM220 268H366L293 574L220 268ZM359 993T397 955T435 862Q435 807 397 769T296 731Q233 731 195 769T157 862Q157 917 195 955T296 993Q359
993 397 955ZM275 912T263 899T251 862Q251 838 263 825T296 812Q316 812 328 825T341 862Q341 886 329 899T296 912Q275 912 263 899Z" />
<glyph unicode="&#xc6;" glyph-name="AE" horiz-adv-x="845" d="M582 118H812V0H444L418 149H203L153 0H-23L249 693H775L758 576H488L522 408H766V293H546L582 118ZM243 268H398L345 573L243 268Z" />
<glyph unicode="&#xc7;" glyph-name="Ccedilla" horiz-adv-x="575" d="M436 -54T461 -79T487 -147Q487 -198 447 -230T338 -262Q304 -262 275 -254T226 -232L262 -159Q296 -176 326 -176Q373 -176 373 -146Q373 -128 351 -120T281 -112L293 -13Q172 5 103 98T33
348Q33 461 73 543T185 667T348 710Q413 710 463 691T559 634L481 541Q450 565 420 577T356 589Q286 589 246 530T205 348Q205 227 245 169T358 110Q396 110 427 124T494 166L567 72Q533 38 486 15T383 -15V-48Q436 -54 461 -79Z" />
<glyph unicode="&#xc8;" glyph-name="Egrave" horiz-adv-x="526" d="M490 693L473 576H229V410H442V295H229V118H490V0H65V693H490ZM194 956L415 831L375 751L135 838L194 956Z" />
<glyph unicode="&#xc9;" glyph-name="Eacute" horiz-adv-x="526" d="M490 693L473 576H229V410H442V295H229V118H490V0H65V693H490ZM360 956L419 838L179 751L139 831L360 956Z" />
<glyph unicode="&#xca;" glyph-name="Ecircumflex" horiz-adv-x="526" d="M490 693L473 576H229V410H442V295H229V118H490V0H65V693H490ZM146 755L89 820L231 949H327L468 820L412 755L279 839L146 755Z" />
<glyph unicode="&#xcb;" glyph-name="Edieresis" horiz-adv-x="526" d="M490 693L473 576H229V410H442V295H229V118H490V0H65V693H490ZM196 925T219 902T243 846Q243 813 220 790T162 767Q128 767 105 790T81 846Q81 879 104 902T162 925Q196 925 219 902ZM428
925T451 902T474 846Q474 813 451 790T393 767Q360 767 337 790T313 846Q313 879 336 902T393 925Q428 925 451 902Z" />
<glyph unicode="&#xcc;" glyph-name="Igrave" horiz-adv-x="293" d="M229 693V0H65V693H229ZM61 956L282 831L242 751L2 838L61 956Z" />
<glyph unicode="&#xcd;" glyph-name="Iacute" horiz-adv-x="293" d="M229 693V0H65V693H229ZM227 956L286 838L46 751L6 831L227 956Z" />
<glyph unicode="&#xce;" glyph-name="Icircumflex" horiz-adv-x="293" d="M229 693V0H65V693H229ZM13 755L-44 820L98 949H194L335 820L279 755L146 839L13 755Z" />
<glyph unicode="&#xcf;" glyph-name="Idieresis" horiz-adv-x="293" d="M229 693V0H65V693H229ZM63 925T86 902T110 846Q110 813 87 790T29 767Q-5 767 -28 790T-52 846Q-52 879 -29 902T29 925Q63 925 86 902ZM295 925T318 902T341 846Q341 813 318 790T260 767Q227
767 204 790T180 846Q180 879 203 902T260 925Q295 925 318 902Z" />
<glyph unicode="&#xd0;" glyph-name="Eth" horiz-adv-x="665" d="M435 693T533 620T632 350Q632 157 536 79T287 0H79V304H14V402H79V693H272Q435 693 533 620ZM378 119T420 169T462 350Q462 439 441 488T384 555T295 574H243V402H377V304H243V119H297Q378 119 420 169Z" />
<glyph unicode="&#xd1;" glyph-name="Ntilde" horiz-adv-x="663" d="M599 0H390L190 537Q200 458 205 398T211 254V0H65V693H269L474 155Q452 292 452 413V693H599V0ZM372 761T356 768T321 788Q296 806 280 806Q263 806 252 796T227 762L148 800Q168 852 201 885T277
918Q300 918 316 911T353 890Q367 881 375 877T393 873Q409 873 420 883T445 917L524 878Q503 825 470 793T394 761Q372 761 356 768Z" />
<glyph unicode="&#xd2;" glyph-name="Ograve" horiz-adv-x="691" d="M493 710T575 615T658 347Q658 234 621 152T513 27T345 -17Q248 -17 178 26T71 150T33 347Q33 459 70 541T178 666T345 710Q493 710 575 615ZM274 590T240 533T205 347Q205 219 240 161T345
103Q417 103 451 160T486 347Q486 476 451 533T345 590Q274 590 240 533ZM260 956L481 831L441 751L201 838L260 956Z" />
<glyph unicode="&#xd3;" glyph-name="Oacute" horiz-adv-x="691" d="M493 710T575 615T658 347Q658 234 621 152T513 27T345 -17Q248 -17 178 26T71 150T33 347Q33 459 70 541T178 666T345 710Q493 710 575 615ZM274 590T240 533T205 347Q205 219 240 161T345
103Q417 103 451 160T486 347Q486 476 451 533T345 590Q274 590 240 533ZM426 956L485 838L245 751L205 831L426 956Z" />
<glyph unicode="&#xd4;" glyph-name="Ocircumflex" horiz-adv-x="691" d="M493 710T575 615T658 347Q658 234 621 152T513 27T345 -17Q248 -17 178 26T71 150T33 347Q33 459 70 541T178 666T345 710Q493 710 575 615ZM274 590T240 533T205 347Q205 219 240 161T345
103Q417 103 451 160T486 347Q486 476 451 533T345 590Q274 590 240 533ZM212 755L155 820L297 949H393L534 820L478 755L345 839L212 755Z" />
<glyph unicode="&#xd5;" glyph-name="Otilde" horiz-adv-x="691" d="M493 710T575 615T658 347Q658 234 621 152T513 27T345 -17Q248 -17 178 26T71 150T33 347Q33 459 70 541T178 666T345 710Q493 710 575 615ZM274 590T240 533T205 347Q205 219 240 161T345
103Q417 103 451 160T486 347Q486 476 451 533T345 590Q274 590 240 533ZM381 761T365 768T330 788Q305 806 289 806Q272 806 261 796T236 762L157 800Q177 852 210 885T286 918Q309 918 325 911T362 890Q376 881 384 877T402 873Q418 873 429 883T454 917L533
878Q512 825 479 793T403 761Q381 761 365 768Z" />
<glyph unicode="&#xd6;" glyph-name="Odieresis" horiz-adv-x="691" d="M493 710T575 615T658 347Q658 234 621 152T513 27T345 -17Q248 -17 178 26T71 150T33 347Q33 459 70 541T178 666T345 710Q493 710 575 615ZM274 590T240 533T205 347Q205 219 240 161T345
103Q417 103 451 160T486 347Q486 476 451 533T345 590Q274 590 240 533ZM262 925T285 902T309 846Q309 813 286 790T228 767Q194 767 171 790T147 846Q147 879 170 902T228 925Q262 925 285 902ZM494 925T517 902T540 846Q540 813 517 790T459 767Q426 767 403
790T379 846Q379 879 402 902T459 925Q494 925 517 902Z" />
<glyph unicode="&#xd7;" glyph-name="multiply" horiz-adv-x="519" d="M376 510L463 423L347 309L463 190L376 103L261 224L143 103L56 190L171 304L56 423L143 510L257 389L376 510Z" />
<glyph unicode="&#xd8;" glyph-name="Oslash" horiz-adv-x="691" d="M584 625T621 543T658 347Q658 234 621 152T513 27T345 -17Q320 -17 296 -14L260 -134L136 -102L176 27Q107 70 70 151T33 347Q33 459 70 541T178 666T345 710Q371 710 395 707L432 828L555
795L514 667Q584 625 621 543ZM274 590T240 533T205 347Q205 203 243 148L375 588Q357 590 345 590Q274 590 240 533ZM417 103T451 160T486 347Q486 493 448 546L315 105Q335 103 345 103Q417 103 451 160Z" />
<glyph unicode="&#xd9;" glyph-name="Ugrave" horiz-adv-x="651" d="M596 230Q596 159 566 103T474 15T325 -17Q193 -17 124 50T55 230V693H219V237Q219 170 244 138T325 105Q381 105 406 137T432 237V693H596V230ZM240 956L461 831L421 751L181 838L240 956Z" />
<glyph unicode="&#xda;" glyph-name="Uacute" horiz-adv-x="651" d="M596 230Q596 159 566 103T474 15T325 -17Q193 -17 124 50T55 230V693H219V237Q219 170 244 138T325 105Q381 105 406 137T432 237V693H596V230ZM406 956L465 838L225 751L185 831L406 956Z" />
<glyph unicode="&#xdb;" glyph-name="Ucircumflex" horiz-adv-x="651" d="M596 230Q596 159 566 103T474 15T325 -17Q193 -17 124 50T55 230V693H219V237Q219 170 244 138T325 105Q381 105 406 137T432 237V693H596V230ZM192 755L135 820L277 949H373L514 820L458
755L325 839L192 755Z" />
<glyph unicode="&#xdc;" glyph-name="Udieresis" horiz-adv-x="651" d="M596 230Q596 159 566 103T474 15T325 -17Q193 -17 124 50T55 230V693H219V237Q219 170 244 138T325 105Q381 105 406 137T432 237V693H596V230ZM242 925T265 902T289 846Q289 813 266 790T208
767Q174 767 151 790T127 846Q127 879 150 902T208 925Q242 925 265 902ZM474 925T497 902T520 846Q520 813 497 790T439 767Q406 767 383 790T359 846Q359 879 382 902T439 925Q474 925 497 902Z" />
<glyph unicode="&#xdd;" glyph-name="Yacute" horiz-adv-x="594" d="M601 693L379 260V0H215V259L-7 693H172L300 388L428 693H601ZM378 956L437 838L197 751L157 831L378 956Z" />
<glyph unicode="&#xde;" glyph-name="Thorn" horiz-adv-x="600" d="M426 585T502 527T578 356Q578 236 504 175T304 114H229V0H65V693H229V585H289Q426 585 502 527ZM348 233T378 261T409 356Q409 413 379 440T287 468H229V233H290Q348 233 378 261Z" />
<glyph unicode="&#xdf;" glyph-name="germandbls" horiz-adv-x="606" d="M363 759T409 739T480 684T505 609Q505 571 490 547T445 495Q424 476 414 463T404 431Q404 411 419 396T467 357Q503 332 528 310T570 251T588 166Q588 110 562 69T489 5T386 -17Q319 -17
267 10L314 117Q337 105 366 105Q394 105 409 121T425 169Q425 204 407 226T351 275Q323 297 307 312T279 350T267 405Q267 441 279 462T315 509Q336 530 346 546T356 590Q356 617 339 632T294 647Q220 647 220 538V0H62V533Q62 639 123 699T298 759Q363 759 409
739Z" />
<glyph unicode="&#xe0;" glyph-name="agrave" horiz-adv-x="548" d="M484 124T492 110T520 89L487 -14Q438 -10 407 7T359 63Q307 -17 199 -17Q120 -17 73 29T26 149Q26 236 90 282T275 328H329V351Q329 398 309 415T239 433Q213 433 176 426T100 405L64 509Q114
528 166 538T264 548Q378 548 431 501T484 360V154Q484 124 492 110ZM299 96T329 147V241H290Q236 241 210 222T183 163Q183 131 199 114T245 96Q299 96 329 147ZM203 835L421 703L377 622L141 717L203 835Z" />
<glyph unicode="&#xe1;" glyph-name="aacute" horiz-adv-x="548" d="M484 124T492 110T520 89L487 -14Q438 -10 407 7T359 63Q307 -17 199 -17Q120 -17 73 29T26 149Q26 236 90 282T275 328H329V351Q329 398 309 415T239 433Q213 433 176 426T100 405L64 509Q114
528 166 538T264 548Q378 548 431 501T484 360V154Q484 124 492 110ZM299 96T329 147V241H290Q236 241 210 222T183 163Q183 131 199 114T245 96Q299 96 329 147ZM343 835L405 717L169 622L125 703L343 835Z" />
<glyph unicode="&#xe2;" glyph-name="acircumflex" horiz-adv-x="548" d="M484 124T492 110T520 89L487 -14Q438 -10 407 7T359 63Q307 -17 199 -17Q120 -17 73 29T26 149Q26 236 90 282T275 328H329V351Q329 398 309 415T239 433Q213 433 176 426T100 405L64
509Q114 528 166 538T264 548Q378 548 431 501T484 360V154Q484 124 492 110ZM299 96T329 147V241H290Q236 241 210 222T183 163Q183 131 199 114T245 96Q299 96 329 147ZM137 620L81 685L222 822H319L460 685L404 620L271 712L137 620Z" />
<glyph unicode="&#xe3;" glyph-name="atilde" horiz-adv-x="548" d="M484 124T492 110T520 89L487 -14Q438 -10 407 7T359 63Q307 -17 199 -17Q120 -17 73 29T26 149Q26 236 90 282T275 328H329V351Q329 398 309 415T239 433Q213 433 176 426T100 405L64 509Q114
528 166 538T264 548Q378 548 431 501T484 360V154Q484 124 492 110ZM299 96T329 147V241H290Q236 241 210 222T183 163Q183 131 199 114T245 96Q299 96 329 147ZM307 635T291 642T256 662Q231 680 215 680Q198 680 187 670T162 636L83 674Q103 726 136 759T212
792Q235 792 251 785T288 764Q302 755 310 751T328 747Q344 747 355 757T380 791L459 752Q438 699 405 667T329 635Q307 635 291 642Z" />
<glyph unicode="&#xe4;" glyph-name="adieresis" horiz-adv-x="548" d="M484 124T492 110T520 89L487 -14Q438 -10 407 7T359 63Q307 -17 199 -17Q120 -17 73 29T26 149Q26 236 90 282T275 328H329V351Q329 398 309 415T239 433Q213 433 176 426T100 405L64 509Q114
528 166 538T264 548Q378 548 431 501T484 360V154Q484 124 492 110ZM299 96T329 147V241H290Q236 241 210 222T183 163Q183 131 199 114T245 96Q299 96 329 147ZM189 799T212 776T236 720Q236 687 213 664T155 641Q121 641 98 664T74 720Q74 753 97 776T155 799Q189
799 212 776ZM421 799T444 776T467 720Q467 687 444 664T386 641Q353 641 330 664T306 720Q306 753 329 776T386 799Q421 799 444 776Z" />
<glyph unicode="&#xe5;" glyph-name="aring" horiz-adv-x="548" d="M484 124T492 110T520 89L487 -14Q438 -10 407 7T359 63Q307 -17 199 -17Q120 -17 73 29T26 149Q26 236 90 282T275 328H329V351Q329 398 309 415T239 433Q213 433 176 426T100 405L64 509Q114
528 166 538T264 548Q378 548 431 501T484 360V154Q484 124 492 110ZM299 96T329 147V241H290Q236 241 210 222T183 163Q183 131 199 114T245 96Q299 96 329 147ZM334 867T372 829T410 736Q410 681 372 643T271 605Q208 605 170 643T132 736Q132 791 170 829T271
867Q334 867 372 829ZM250 786T238 773T226 736Q226 712 238 699T271 686Q291 686 303 699T316 736Q316 760 304 773T271 786Q250 786 238 773Z" />
<glyph unicode="&#xe6;" glyph-name="ae" horiz-adv-x="855" d="M828 243T825 219H496Q503 152 533 125T617 98Q649 98 679 109T744 145L809 57Q716 -17 602 -17Q532 -17 479 7T391 74Q327 -17 203 -17Q122 -17 74 29T26 149Q26 236 91 282T281 328H335V350Q335
396 315 414T245 432Q219 432 182 425T106 404L70 509Q120 528 172 538T270 548Q381 548 433 481Q497 548 595 548Q665 548 717 516T799 422T828 276Q828 243 825 219ZM672 321Q672 443 586 443Q546 443 524 413T496 314H672V321ZM282 96T304 112T348 160Q339 191
337 234V238H297Q244 238 219 220T193 160Q193 130 208 113T253 96Q282 96 304 112Z" />
<glyph unicode="&#xe7;" glyph-name="ccedilla" horiz-adv-x="479" d="M406 -8T323 -16V-48Q376 -54 401 -79T427 -147Q427 -198 387 -230T278 -262Q244 -262 215 -254T166 -232L202 -159Q236 -176 266 -176Q313 -176 313 -146Q313 -128 291 -120T221 -112L233
-11Q139 8 86 80T32 261Q32 345 64 410T155 511T292 548Q347 548 391 532T474 483L406 389Q356 427 305 427Q252 427 225 388T198 262Q198 178 225 143T303 108Q330 108 352 116T405 144L474 46Q406 -8 323 -16Z" />
<glyph unicode="&#xe8;" glyph-name="egrave" horiz-adv-x="552" d="M525 243T522 219H193Q201 152 231 125T314 98Q346 98 376 109T441 145L506 57Q413 -17 299 -17Q170 -17 101 59T32 263Q32 344 61 408T146 510T280 548Q395 548 460 476T525 276Q525 243 522
219ZM370 321Q368 443 284 443Q243 443 221 413T193 314H370V321ZM215 835L433 703L389 622L153 717L215 835Z" />
<glyph unicode="&#xe9;" glyph-name="eacute" horiz-adv-x="552" d="M525 243T522 219H193Q201 152 231 125T314 98Q346 98 376 109T441 145L506 57Q413 -17 299 -17Q170 -17 101 59T32 263Q32 344 61 408T146 510T280 548Q395 548 460 476T525 276Q525 243 522
219ZM370 321Q368 443 284 443Q243 443 221 413T193 314H370V321ZM355 835L417 717L181 622L137 703L355 835Z" />
<glyph unicode="&#xea;" glyph-name="ecircumflex" horiz-adv-x="552" d="M525 243T522 219H193Q201 152 231 125T314 98Q346 98 376 109T441 145L506 57Q413 -17 299 -17Q170 -17 101 59T32 263Q32 344 61 408T146 510T280 548Q395 548 460 476T525 276Q525 243
522 219ZM370 321Q368 443 284 443Q243 443 221 413T193 314H370V321ZM149 620L93 685L234 822H331L472 685L416 620L283 712L149 620Z" />
<glyph unicode="&#xeb;" glyph-name="edieresis" horiz-adv-x="552" d="M525 243T522 219H193Q201 152 231 125T314 98Q346 98 376 109T441 145L506 57Q413 -17 299 -17Q170 -17 101 59T32 263Q32 344 61 408T146 510T280 548Q395 548 460 476T525 276Q525 243
522 219ZM370 321Q368 443 284 443Q243 443 221 413T193 314H370V321ZM201 799T224 776T248 720Q248 687 225 664T167 641Q133 641 110 664T86 720Q86 753 109 776T167 799Q201 799 224 776ZM433 799T456 776T479 720Q479 687 456 664T398 641Q365 641 342 664T318
720Q318 753 341 776T398 799Q433 799 456 776Z" />
<glyph unicode="&#xec;" glyph-name="igrave" horiz-adv-x="282" d="M220 531V0H62V531H220ZM73 835L291 703L247 622L11 717L73 835Z" />
<glyph unicode="&#xed;" glyph-name="iacute" horiz-adv-x="282" d="M220 531V0H62V531H220ZM213 835L275 717L39 622L-5 703L213 835Z" />
<glyph unicode="&#xee;" glyph-name="icircumflex" horiz-adv-x="282" d="M220 531V0H62V531H220ZM7 620L-49 685L92 822H189L330 685L274 620L141 712L7 620Z" />
<glyph unicode="&#xef;" glyph-name="idieresis" horiz-adv-x="282" d="M220 531V0H62V531H220ZM59 799T82 776T106 720Q106 687 83 664T25 641Q-9 641 -32 664T-56 720Q-56 753 -33 776T25 799Q59 799 82 776ZM291 799T314 776T337 720Q337 687 314 664T256 641Q223
641 200 664T176 720Q176 753 199 776T256 799Q291 799 314 776Z" />
<glyph unicode="&#xf0;" glyph-name="eth" horiz-adv-x="579" d="M456 600T499 504T542 277Q542 194 511 127T422 22T283 -17Q211 -17 154 13T65 99T32 234Q32 301 59 357T133 446T240 479Q319 479 372 432Q358 479 335 514T270 582L215 527L116 573L173 632Q125
647 81 654L113 758Q193 744 259 720L332 798L412 727L357 670Q456 600 499 504ZM334 98T357 137T381 256L380 327Q341 369 283 369Q193 369 193 237Q193 166 217 132T285 98Q334 98 357 137Z" />
<glyph unicode="&#xf1;" glyph-name="ntilde" horiz-adv-x="577" d="M442 548T481 506T520 388V0H362V361Q362 401 350 416T312 432Q264 432 220 363V0H62V531H200L211 468Q245 508 284 528T373 548Q442 548 481 506ZM330 635T314 642T279 662Q254 680 238 680Q221
680 210 670T185 636L106 674Q126 726 159 759T235 792Q258 792 274 785T311 764Q325 755 333 751T351 747Q367 747 378 757T403 791L482 752Q461 699 428 667T352 635Q330 635 314 642Z" />
<glyph unicode="&#xf2;" glyph-name="ograve" horiz-adv-x="584" d="M414 548T483 474T552 265Q552 180 521 117T431 18T292 -17Q171 -17 102 57T32 266Q32 351 63 414T153 513T292 548Q414 548 483 474ZM244 432T220 392T196 266Q196 179 219 139T292 99Q340
99 364 139T388 265Q388 352 365 392T292 432Q244 432 220 392ZM224 835L442 703L398 622L162 717L224 835Z" />
<glyph unicode="&#xf3;" glyph-name="oacute" horiz-adv-x="584" d="M414 548T483 474T552 265Q552 180 521 117T431 18T292 -17Q171 -17 102 57T32 266Q32 351 63 414T153 513T292 548Q414 548 483 474ZM244 432T220 392T196 266Q196 179 219 139T292 99Q340
99 364 139T388 265Q388 352 365 392T292 432Q244 432 220 392ZM364 835L426 717L190 622L146 703L364 835Z" />
<glyph unicode="&#xf4;" glyph-name="ocircumflex" horiz-adv-x="584" d="M414 548T483 474T552 265Q552 180 521 117T431 18T292 -17Q171 -17 102 57T32 266Q32 351 63 414T153 513T292 548Q414 548 483 474ZM244 432T220 392T196 266Q196 179 219 139T292 99Q340
99 364 139T388 265Q388 352 365 392T292 432Q244 432 220 392ZM158 620L102 685L243 822H340L481 685L425 620L292 712L158 620Z" />
<glyph unicode="&#xf5;" glyph-name="otilde" horiz-adv-x="584" d="M414 548T483 474T552 265Q552 180 521 117T431 18T292 -17Q171 -17 102 57T32 266Q32 351 63 414T153 513T292 548Q414 548 483 474ZM244 432T220 392T196 266Q196 179 219 139T292 99Q340
99 364 139T388 265Q388 352 365 392T292 432Q244 432 220 392ZM328 635T312 642T277 662Q252 680 236 680Q219 680 208 670T183 636L104 674Q124 726 157 759T233 792Q256 792 272 785T309 764Q323 755 331 751T349 747Q365 747 376 757T401 791L480 752Q459 699
426 667T350 635Q328 635 312 642Z" />
<glyph unicode="&#xf6;" glyph-name="odieresis" horiz-adv-x="584" d="M414 548T483 474T552 265Q552 180 521 117T431 18T292 -17Q171 -17 102 57T32 266Q32 351 63 414T153 513T292 548Q414 548 483 474ZM244 432T220 392T196 266Q196 179 219 139T292 99Q340
99 364 139T388 265Q388 352 365 392T292 432Q244 432 220 392ZM210 799T233 776T257 720Q257 687 234 664T176 641Q142 641 119 664T95 720Q95 753 118 776T176 799Q210 799 233 776ZM442 799T465 776T488 720Q488 687 465 664T407 641Q374 641 351 664T327 720Q327
753 350 776T407 799Q442 799 465 776Z" />
<glyph unicode="&#xf7;" glyph-name="divide" horiz-adv-x="519" d="M297 182T323 156T350 92Q350 54 324 28T260 1Q222 1 196 27T169 92Q169 129 195 155T260 182Q297 182 323 156ZM297 664T323 638T350 574Q350 536 324 510T260 483Q222 483 196 509T169 574Q169
611 195 637T260 664Q297 664 323 638ZM48 271V393H470V271H48Z" />
<glyph unicode="&#xf8;" glyph-name="oslash" horiz-adv-x="584" d="M493 476T522 414T552 265Q552 180 521 117T431 18T292 -17Q280 -17 258 -15L221 -135L106 -101L145 21Q90 56 61 118T32 266Q32 351 63 414T153 513T292 548Q303 548 325 546L364 667L480 633L438
510Q493 476 522 414ZM183 432T183 266Q183 170 208 132L308 432H292Q183 432 183 266ZM346 99T373 139T401 265Q401 362 375 399L276 99H292Q346 99 373 139Z" />
<glyph unicode="&#xf9;" glyph-name="ugrave" horiz-adv-x="572" d="M510 0H373L366 67Q308 -17 205 -17Q132 -17 95 27T57 150V531H215V170Q215 131 227 116T266 100Q316 100 352 162V531H510V0ZM216 835L434 703L390 622L154 717L216 835Z" />
<glyph unicode="&#xfa;" glyph-name="uacute" horiz-adv-x="572" d="M510 0H373L366 67Q308 -17 205 -17Q132 -17 95 27T57 150V531H215V170Q215 131 227 116T266 100Q316 100 352 162V531H510V0ZM356 835L418 717L182 622L138 703L356 835Z" />
<glyph unicode="&#xfb;" glyph-name="ucircumflex" horiz-adv-x="572" d="M510 0H373L366 67Q308 -17 205 -17Q132 -17 95 27T57 150V531H215V170Q215 131 227 116T266 100Q316 100 352 162V531H510V0ZM150 620L94 685L235 822H332L473 685L417 620L284 712L150 620Z" />
<glyph unicode="&#xfc;" glyph-name="udieresis" horiz-adv-x="572" d="M510 0H373L366 67Q308 -17 205 -17Q132 -17 95 27T57 150V531H215V170Q215 131 227 116T266 100Q316 100 352 162V531H510V0ZM202 799T225 776T249 720Q249 687 226 664T168 641Q134 641
111 664T87 720Q87 753 110 776T168 799Q202 799 225 776ZM434 799T457 776T480 720Q480 687 457 664T399 641Q366 641 343 664T319 720Q319 753 342 776T399 799Q434 799 457 776Z" />
<glyph unicode="&#xfd;" glyph-name="yacute" horiz-adv-x="518" d="M355 -1Q323 -104 251 -159T56 -222L39 -111Q115 -101 151 -77T210 0H156L-6 531H162L257 101L361 531H524L355 -1ZM331 835L393 717L157 622L113 703L331 835Z" />
<glyph unicode="&#xfe;" glyph-name="thorn" horiz-adv-x="597" d="M461 548T510 475T560 267Q560 185 535 121T461 20T349 -17Q269 -17 220 38V-204L62 -222V742L220 759V481Q250 516 286 532T359 548Q461 548 510 475ZM396 99T396 265Q396 359 375 395T309 432Q283
432 261 416T220 370V146Q252 99 301 99Q396 99 396 265Z" />
<glyph unicode="&#xff;" glyph-name="ydieresis" horiz-adv-x="518" d="M355 -1Q323 -104 251 -159T56 -222L39 -111Q115 -101 151 -77T210 0H156L-6 531H162L257 101L361 531H524L355 -1ZM177 799T200 776T224 720Q224 687 201 664T143 641Q109 641 86 664T62
720Q62 753 85 776T143 799Q177 799 200 776ZM409 799T432 776T455 720Q455 687 432 664T374 641Q341 641 318 664T294 720Q294 753 317 776T374 799Q409 799 432 776Z" />
<glyph unicode="&#x2013;" glyph-name="endash" horiz-adv-x="520" d="M21 252V374H499V252H21Z" />
<glyph unicode="&#x2014;" glyph-name="emdash" horiz-adv-x="796" d="M21 252V374H775V252H21Z" />
<glyph unicode="&#x2018;" glyph-name="quoteleft" horiz-adv-x="243" d="M86 461T62 484T38 542Q38 561 44 581T67 635L131 766H212L170 610Q207 584 207 541Q207 507 183 484T122 461Q86 461 62 484Z" />
<glyph unicode="&#x2019;" glyph-name="quoteright" horiz-adv-x="243" d="M157 766T181 743T205 685Q205 666 199 646T176 592L112 461H31L73 617Q36 643 36 686Q36 720 60 743T121 766Q157 766 181 743Z" />
<glyph unicode="&#x201a;" glyph-name="quotesinglbase" horiz-adv-x="243" d="M157 142T181 119T205 61Q205 42 199 22T176 -32L112 -163H31L73 -7Q36 19 36 62Q36 96 60 119T121 142Q157 142 181 119Z" />
<glyph unicode="&#x201c;" glyph-name="quotedblleft" horiz-adv-x="448" d="M86 461T62 484T38 542Q38 561 44 581T67 635L131 766H212L170 610Q207 584 207 541Q207 507 183 484T122 461Q86 461 62 484ZM291 461T267 484T243 542Q243 561 249 581T272 635L336
766H417L375 610Q412 584 412 541Q412 507 388 484T327 461Q291 461 267 484Z" />
<glyph unicode="&#x201d;" glyph-name="quotedblright" horiz-adv-x="448" d="M157 766T181 743T205 685Q205 666 199 646T176 592L112 461H31L73 617Q36 643 36 686Q36 720 60 743T121 766Q157 766 181 743ZM362 766T386 743T410 685Q410 666 404 646T381 592L317
461H236L278 617Q241 643 241 686Q241 720 265 743T326 766Q362 766 386 743Z" />
<glyph unicode="&#x201e;" glyph-name="quotedblbase" horiz-adv-x="448" d="M157 142T181 119T205 61Q205 42 199 22T176 -32L112 -163H31L73 -7Q36 19 36 62Q36 96 60 119T121 142Q157 142 181 119ZM362 142T386 119T410 61Q410 42 404 22T381 -32L317 -163H236L278
-7Q241 19 241 62Q241 96 265 119T326 142Q362 142 386 119Z" />
<glyph unicode="&#x2022;" glyph-name="bullet" horiz-adv-x="346" d="M232 480T271 440T311 341Q311 282 272 243T173 203Q114 203 75 243T35 342Q35 401 74 440T173 480Q232 480 271 440Z" />
<glyph unicode="&#x2039;" glyph-name="guilsinglleft" horiz-adv-x="359" d="M226 556L323 491L194 285L323 78L226 13L36 234V334L226 556Z" />
<glyph unicode="&#x203a;" glyph-name="guilsinglright" horiz-adv-x="359" d="M134 556L323 334V234L134 13L36 78L165 285L36 491L134 556Z" />
</font>
</defs>
</svg>
