<?xml version="1.0" encoding="UTF-8"?>
<svg id="Ebene_1"
    xmlns="http://www.w3.org/2000/svg" viewBox="0 0 62.44 73.98">
    <defs>
        <style>.cls-1{fill:none;stroke:#000;stroke-linecap:round;stroke-linejoin:round;stroke-width:2px;}</style>
    </defs>
    <path class="cls-1" d="M55.35,18.98v23.97c0,14.34-10.89,25.96-24.34,25.96S6.68,57.29,6.68,42.95v-11.31c7.48,0,8.01-11.96,8.01-11.96,1.79-.78,3.82-.89,6.02,.23,11.9,6.08,26.13,1.69,31.33-.41,1.21-.49,2.34-.6,3.31-.52Z"/>
    <path class="cls-1" d="M14.7,38.09s3.18-2.52,6.99,0"/>
    <path class="cls-1" d="M39.71,38.09s3.18-2.52,6.99,0"/>
    <path class="cls-1" d="M6.68,34.87v9.97c-2.07,0-3.75-2.23-3.75-4.99s1.68-4.98,3.75-4.98Z"/>
    <path class="cls-1" d="M55.35,44.84v-9.97c2.07,0,3.75,2.23,3.75,4.99s-1.68,4.98-3.75,4.98Z"/>
    <path class="cls-1" d="M58.61,20.11s-1.33-.96-3.34-1.13c-.97-.08-2.1,.03-3.31,.52-5.2,2.1-19.43,6.49-31.33,.41-2.2-1.12-4.23-1.01-6.02-.23,0,0-.53,11.96-8.01,11.96v-10.33c0-.18,0-.35,.01-.53,.03-2.34,.17-4.72,.61-7,.62-3.05,4.35-7.48,9.01-8.8C33.96-.04,47.12,4.46,51.77,7.66c4.91,3.39,6.81,12.45,6.84,12.45Z"/>
    <path class="cls-1" d="M7.3,13.78c-.44,2.28-.58,4.66-.61,7,.01-2.33,.15-4.71,.61-7Z"/>
    <path class="cls-1" d="M39.44,13.19s1.3,1.99,5.11,1.97c2.97-.02,4.64-1.83,7.1-1.77,3.55,.08,5.36,2.39,6.24,4.28,.05,.1,.19,.47,.19,.47,.43,1.36,.54,1.98,.55,1.98,0,0-1.33-.96-3.34-1.13-.97-.08-2.1,.03-3.31,.52"/>
    <path class="cls-1" d="M41.17,55.69s-3.2-2.47-10.19-2.47-10.9,2.47-10.9,2.47"/>
</svg>
